<svg width="133" height="132" viewBox="0 0 133 132" fill="none" xmlns="http://www.w3.org/2000/svg">
<ellipse cx="66.5" cy="65.5" rx="66" ry="65.5" fill="url(#paint0_linear_113_31543)"/>
<path d="M45.5914 50.6475C45.5215 50.7524 44.4551 50.9971 42.3921 51.3817C40.3642 51.7663 38.9656 52.0286 38.1964 52.1684V47.9202C42.4621 46.9062 45.3816 45.3678 46.9551 43.3048H51.2033V85.7871H45.5914V50.6475ZM70.5293 86.2591C66.823 86.2591 64.1482 85.1927 62.5048 83.0599C60.8615 80.927 60.0398 77.8501 60.0398 73.8291C60.0398 71.1368 60.4769 68.9865 61.351 67.3781C62.2601 65.7697 63.5713 64.4411 65.2845 63.3921C62.1377 61.2942 60.5643 58.1299 60.5643 53.8992C60.5643 50.4377 61.386 47.7454 63.0293 45.8223C64.6727 43.8992 67.1726 42.9377 70.5293 42.9377C73.8509 42.9377 76.316 43.8992 77.9243 45.8223C79.5677 47.7454 80.3894 50.4377 80.3894 53.8992C80.3894 56.1719 79.9873 58.0775 79.1831 59.6159C78.3789 61.1194 77.2076 62.3782 75.6691 63.3921C77.3824 64.476 78.6936 65.8222 79.6026 67.4306C80.5117 69.039 80.9663 71.1718 80.9663 73.8291C80.9663 77.8151 80.1446 80.892 78.5013 83.0599C76.8579 85.1927 74.2006 86.2591 70.5293 86.2591ZM70.5293 60.8222C73.4314 60.7873 74.8824 58.3747 74.8824 53.5845C74.8824 51.6964 74.5327 50.1754 73.8334 49.0216C73.1691 47.8678 72.0677 47.2908 70.5293 47.2908C68.9908 47.2908 67.8545 47.8678 67.1202 49.0216C66.4209 50.1754 66.0713 51.6964 66.0713 53.5845C66.0713 55.6824 66.4034 57.4132 67.0678 58.7768C67.7321 60.1054 68.8859 60.7873 70.5293 60.8222ZM70.5293 81.8011C72.4174 81.8011 73.7286 81.1193 74.4628 79.7557C75.1971 78.3571 75.5642 76.4165 75.5642 73.934C75.5642 71.6613 75.1621 69.8082 74.3579 68.3746C73.5887 66.9411 72.3125 66.2068 70.5293 66.1718C68.7111 66.2068 67.3999 66.9411 66.5957 68.3746C65.7915 69.8082 65.3894 71.6613 65.3894 73.934C65.3894 76.4165 65.7566 78.3571 66.4908 79.7557C67.2601 81.1193 68.6062 81.8011 70.5293 81.8011ZM92.2437 66.1194H84.901V61.8712H92.2437V53.3223H96.4394V61.8712H104.044V66.1194H96.4394V74.6683H92.2437V66.1194Z" fill="white"/>
<path d="M115.538 96.453C110.657 104.024 104.053 110.353 96.259 114.93C88.4645 119.508 79.6963 122.206 70.6598 122.807C61.6233 123.409 52.5706 121.897 44.23 118.394C35.8894 114.891 28.4936 109.494 22.6376 102.637" stroke="white" stroke-width="2.17227"/>
<path d="M111.266 93.7406C106.813 100.649 100.789 106.423 93.6769 110.599C86.5653 114.775 78.5653 117.237 70.3205 117.786C62.0757 118.335 53.8161 116.956 46.2062 113.759C38.5963 110.563 31.8485 105.639 26.5055 99.383" stroke="white" stroke-width="2.37735"/>
<path d="M18.0353 34.547C22.9161 26.9757 29.5193 20.6469 37.3138 16.0696C45.1083 11.4923 53.8764 8.79444 62.9129 8.19289C71.9495 7.59134 81.0021 9.10294 89.3428 12.6061C97.6834 16.1093 105.079 21.5062 110.935 28.3628" stroke="white" stroke-width="2.17227"/>
<path d="M22.3082 37.2594C26.7615 30.3514 32.7862 24.577 39.8978 20.4008C47.0094 16.2245 55.0094 13.763 63.2542 13.2141C71.4991 12.6653 79.7586 14.0444 87.3685 17.2407C94.9784 20.437 101.726 25.3611 107.069 31.617" stroke="white" stroke-width="2.37735"/>
<defs>
<linearGradient id="paint0_linear_113_31543" x1="66.5" y1="7.12359e-07" x2="72.4357" y2="35.1585" gradientUnits="userSpaceOnUse">
<stop stop-color="#EB5C24"/>
<stop offset="1" stop-color="#F07E23"/>
</linearGradient>
</defs>
</svg>
