<svg id="Layer_1" data-name="Layer 1" xmlns="http://www.w3.org/2000/svg" viewBox="0 0 567 160" height="160" width="567">
  <title>logo-bond</title>
  <path fill="#1a171b" d="M34.14,95.25H18.84V84.67H21v7.15H25.2V85.9h2.11v5.92H32V84.14h2.17ZM21,45.81H34.14V42.37H21V36.45H18.84V51.76H21ZM34.14,61.47H32v7.68H27.31V63.23H25.2v5.92H21V62H18.84v10.6h15.3ZM21,140.56H34.14v-3.43H21v-5.95H18.84v15.31H21ZM34.14,120H18.84v-6.19a7.15,7.15,0,0,1,.44-2.9,3.38,3.38,0,0,1,1.33-1.59,3.86,3.86,0,0,1,2-.56,4.36,4.36,0,0,1,2.54.82A5.65,5.65,0,0,1,27,111.94l7.15-5.39v4.16l-6.27,4.13v1.88h6.27Zm-8.36-4a3.89,3.89,0,0,0-.88-3,2.72,2.72,0,0,0-1.95-.82,1.82,1.82,0,0,0-1.47.67,4.69,4.69,0,0,0-.55,2.69v1.18h4.85ZM33.17,158A4.1,4.1,0,0,0,30,156.46a3.9,3.9,0,0,0-2.35.73,10,10,0,0,0-2.44,3.49l-.65,1.21a7.59,7.59,0,0,1-1.24,1.93,1.67,1.67,0,0,1-1,.41,1.54,1.54,0,0,1-1.24-.67,2.93,2.93,0,0,1-.5-1.91,12.93,12.93,0,0,1,.91-4H19a22.16,22.16,0,0,0-.55,4.48,6.1,6.1,0,0,0,1.26,4.11,3.7,3.7,0,0,0,2.94,1.44,3.78,3.78,0,0,0,2.44-.86,11.44,11.44,0,0,0,2.28-3.22l.58-1.14a5.72,5.72,0,0,1,1.3-1.94,1.79,1.79,0,0,1,1.14-.41,1.84,1.84,0,0,1,1.44.7,3.28,3.28,0,0,1,.6,2.2,13.49,13.49,0,0,1-.12,1.73,14.89,14.89,0,0,1-.95,2.9H34a24.07,24.07,0,0,0,.54-4.66q0-3.39-1.36-4.93" transform="translate(-18.43 -18.52)"/>
  <path fill="#1a171b" d="M109.11,94c26.2-5.21,36.23-19.49,36.23-35.62,0-21.46-17.35-36.9-50.36-36.9H36a42.59,42.59,0,0,1,11.86,29c.15,14,.16,28.05.16,42V102.7c0,19.86,0,39.5-.41,58.77l-.27,12.15H90.45c46.36,0,62.73-21.46,62.73-41.83,0-18.75-12.87-33.49-44.07-37.8m-36-61.4H87.53c22.17,0,33.37,7.5,33.37,27.51,0,20.28-11.35,29.3-37.34,29.3H72.65c0-19.18,0-38.19.43-56.81M85.84,162.5H73.07c-.42-19.85-.42-40.1-.42-62.22H84.4c29.75,0,42.92,10.33,42.92,31.43,0,19.89-13.86,30.79-41.48,30.79m338.56-141h12.19V174.94H426.44L337.27,53.1V173.62H325.08V36.44l-9.78-15H345L424.4,130.71Zm86.44,0H452.09a42.59,42.59,0,0,1,11.86,29c.15,13.94.16,27.89.16,41.77v8.44c0,21.66,0,41.58-.41,60.84l-.28,12.15h43c45.59,0,79-27.11,79-76s-29.92-76.15-74.51-76.15m-5.47,141H489.31c-.41-19.91-.44-40.16-.44-61.91v-8.4c0-20.13,0-40.06.44-59.6H507c31.84,0,50.65,22.69,50.65,65.1,0,41.06-18.81,64.81-52.32,64.81M307.46,100c.41-16.08-2.53-29.86-7.81-41.3h0l-.05-.09c-.12-.27-.24-.55-.38-.82s-.44-.88-.8-1.5a.34.34,0,0,1,.06.12,1.19,1.19,0,0,1-.08-.16l0,0a2.53,2.53,0,0,0-.12-.23,73.78,73.78,0,0,0-4.56-7.71l-.59-.87c-.84-1.2-1.71-2.38-2.61-3.51l-.4-.47a67.32,67.32,0,0,0-5.26-5.76l-1.18-1.15c-.91-.84-1.83-1.66-2.77-2.44-.56-.47-1.13-.9-1.7-1.35-1.43-1.1-2.88-2.15-4.38-3.13-.8-.52-1.59-1.05-2.41-1.53s-1.62-1-2.45-1.4c-1.19-.65-2.4-1.25-3.62-1.82-.82-.38-1.64-.73-2.48-1.09-1.31-.55-2.63-1.05-4-1.52-.63-.22-1.28-.43-1.92-.63-1.74-.55-3.49-1-5.27-1.45l-.66-.13c-1.77-.39-3.56-.68-5.36-.93L245.17,19c-2-.21-3.92-.38-5.89-.43a64.17,64.17,0,0,0-6.51.16c-.73.06-1.46.19-2.18.26-1.43.16-2.86.3-4.27.55-.88.15-1.75.38-2.63.57-1.24.26-2.49.52-3.72.85-.94.26-1.87.59-2.8.9-1.14.36-2.27.72-3.4,1.14-1,.38-1.91.81-2.87,1.23s-2.1.91-3.13,1.42-1.92,1-2.87,1.57S203,28.26,202,28.86s-1.9,1.26-2.84,1.91-1.77,1.25-2.64,1.91-1.85,1.49-2.76,2.27-1.6,1.39-2.38,2.12-1.78,1.73-2.65,2.63c-.73.75-1.43,1.53-2.13,2.32-.85,1-1.68,2-2.5,3-.63.82-1.26,1.65-1.87,2.51-.79,1.09-1.55,2.21-2.29,3.36-.56.87-1.09,1.77-1.62,2.67-.71,1.23-1.4,2.46-2.06,3.75-.48.92-.91,1.88-1.35,2.83-.62,1.35-1.23,2.7-1.79,4.12-.38,1-.72,2-1.08,3-.52,1.47-1,3-1.48,4.49-.29,1-.53,2.07-.8,3.1-.39,1.61-.81,3.22-1.13,4.89-.2,1-.34,2.14-.51,3.2-.27,1.75-.57,3.48-.75,5.29,0,.16,0,.31-.06.46,0,.35-.07.69-.1,1-.19,2.18-.35,4.4-.41,6.68-.08,3.28,0,6.48.16,9.56,0,.76.17,1.47.23,2.21.19,2.3.38,4.6.72,6.79.12.84.33,1.62.48,2.45.36,2,.71,4,1.19,6,.19.77.46,1.49.68,2.25.52,1.89,1,3.79,1.68,5.59.25.69.56,1.31.82,2,.7,1.79,1.39,3.58,2.19,5.28.28.58.62,1.12.91,1.69,0,.08.08.14.11.21.52,1,1,2,1.58,3,.34.59.64,1.21,1,1.79.22.37.48.68.7,1,.63,1,1.3,1.95,2,2.91.5.7.95,1.44,1.47,2.11.36.47.76.88,1.13,1.34,0,0,0,0,0,.05.76.95,1.53,1.88,2.34,2.78.37.42.73.86,1.11,1.27l.09.11v0c.24.25.5.46.73.7.87.9,1.77,1.76,2.68,2.59.54.5,1.07,1,1.63,1.52,1.4,1.2,2.85,2.33,4.33,3.41.58.41,1.18.81,1.76,1.21,1.2.81,2.41,1.58,3.64,2.3.48.29.95.58,1.44.85,1.69.95,3.43,1.81,5.18,2.59.42.19.84.36,1.27.54,1.51.64,3,1.21,4.58,1.74.43.15.87.31,1.31.45,1.89.6,3.8,1.13,5.74,1.56.3.07.63.12.94.18,1.62.35,3.26.63,4.91.84.59.09,1.19.16,1.78.23,1.66.18,3.31.31,5,.37.3,0,.6.06.91.06,26.83.69,53.19-14.9,65.34-44l-.14.15c.18-.43.34-.86.53-1.3H301c.85-2.1,1.58-4.29,2.27-6.52,0-.09.07-.17.1-.26.7-2.32,1.31-4.73,1.84-7.19.08-.35.18-.67.25-1,.49-2.37.85-4.82,1.17-7.31.05-.46.15-.89.21-1.35.33-3,.55-6,.63-9.13v0Zm-27.86-.72a1.28,1.28,0,0,0,0,.19c-.07,2.42-.21,4.8-.39,7.18-.08,1-.19,2-.28,2.91-.14,1.38-.29,2.74-.46,4.09s-.36,2.56-.57,3.82c-.13.81-.28,1.6-.43,2.39-4.87,25.89-18.16,46.06-41.93,46.19h0c-18.67-.48-30.27-13.51-36.14-31.74-.8-2.48-1.46-5.08-2-7.72-.13-.62-.26-1.23-.38-1.86-.54-2.61-1-5.28-1.34-8l0-.17c-.34-2.79-.55-5.65-.7-8.53,0-.71-.07-1.43-.1-2.14-.1-2.88-.15-5.77-.07-8.69v0a1.28,1.28,0,0,1,0-.19c0-1.87.14-3.74.26-5.6a127,127,0,0,1,2-15.37c.06-.32.12-.64.19-1,5.12-25.22,18.42-44.66,41.86-44.66,30,.77,41.52,33.92,40.63,68.94" transform="translate(-18.43 -18.52)"/>
  <path fill="#1a171b" d="M298.48,56.35l0-.06,0,.06m0-.06v0m-225.79,44H84.41c29.73,0,42.91,10.33,42.91,31.44,0,19.88-13.86,30.78-41.49,30.78H73.07c-.41-19.85-.42-40.09-.42-62.22m.43-67.69H87.54c22.17,0,33.36,7.5,33.36,27.51,0,20.28-11.35,29.29-37.34,29.29H72.65c0-19.18,0-38.17.43-56.8m.26-11.12H36a42.61,42.61,0,0,1,11.87,29c.14,14,.16,28.05.16,42V102.7c0,19.85,0,39.5-.41,58.77l-.28,12.16h43.1c46.35,0,62.72-21.46,62.72-41.84,0-18.74-12.87-33.5-44.07-37.81,26.2-5.2,36.23-19.48,36.23-35.61,0-21.47-17.35-36.9-50.36-36.9Zm351.06,0V130.72L345,21.47H315.31l9.78,15V173.63h12.18V53.1l89.16,121.84h10.16V21.47Zm64.47,79.12V92.2c0-20.14,0-40.07.43-59.61H507c31.86,0,50.66,22.69,50.66,65.1,0,41.06-18.8,64.81-52.32,64.81H489.3c-.4-19.9-.43-40.16-.43-61.91m.69-79.12H452.09a42.6,42.6,0,0,1,11.86,29c.14,13.94.16,27.89.16,41.78v8.43c0,21.66,0,41.57-.4,60.84l-.28,12.16h43c45.25,0,78.47-26.73,79-74.95v-2.2c-.46-48.16-30.26-75-74.51-75ZM199.35,134.3c-.8-2.48-1.46-5.07-2-7.73l-.39-1.85c-.53-2.61-1-5.29-1.33-8l0-.17c-.34-2.79-.55-5.65-.71-8.53l-.09-2.14c-.1-2.87-.14-5.77-.08-8.69v0a1.09,1.09,0,0,0,0-.18c0-1.88.15-3.74.27-5.59a130.86,130.86,0,0,1,2-15.37c.07-.33.14-.65.2-1,5.13-25.23,18.42-44.66,41.86-44.66,30,.76,41.53,33.91,40.63,68.94a1.1,1.1,0,0,0,0,.18c-.06,2.41-.2,4.81-.38,7.18-.08,1-.18,1.94-.28,2.92-.13,1.37-.29,2.73-.47,4.07s-.35,2.57-.56,3.83c-.12.81-.28,1.61-.43,2.39-4.87,25.88-18.16,46.06-41.93,46.19h0c-18.67-.47-30.26-13.51-36.14-31.74m38-115.78c-1.54,0-3.09.07-4.63.19-.72,0-1.44.18-2.17.26-1.43.15-2.85.29-4.27.53-.88.16-1.76.39-2.63.57-1.23.27-2.49.52-3.72.86-.95.26-1.87.59-2.8.9-1.14.36-2.27.71-3.4,1.15-1,.36-1.91.81-2.86,1.22s-2.11.91-3.14,1.42-1.92,1-2.87,1.56S203,28.27,202,28.85s-1.91,1.26-2.84,1.92-1.78,1.25-2.64,1.91-1.86,1.49-2.76,2.27-1.62,1.39-2.39,2.12-1.79,1.73-2.65,2.62-1.44,1.54-2.13,2.33c-.86,1-1.68,2-2.49,3-.64.81-1.27,1.65-1.89,2.5-.78,1.1-1.55,2.22-2.29,3.37-.55.87-1.08,1.77-1.61,2.67-.71,1.23-1.41,2.47-2.06,3.75-.47.92-.91,1.88-1.34,2.83-.63,1.35-1.24,2.7-1.8,4.12-.38,1-.72,2-1.08,3-.51,1.47-1,3-1.48,4.49-.29,1-.53,2.06-.79,3.1-.4,1.62-.81,3.21-1.14,4.89-.19,1-.34,2.13-.51,3.2-.28,1.74-.56,3.48-.75,5.3,0,.16,0,.29-.07.45l-.09,1c-.19,2.2-.35,4.41-.41,6.69-.08,3.29,0,6.48.17,9.57,0,.75.16,1.46.22,2.2.19,2.3.38,4.6.71,6.79.12.85.34,1.62.49,2.45.37,2,.71,4,1.2,6,.18.77.45,1.49.67,2.25.53,1.89,1,3.79,1.68,5.59.26.69.56,1.31.82,2,.7,1.79,1.39,3.59,2.19,5.28.28.58.63,1.12.9,1.69a2.25,2.25,0,0,1,.12.21c.51,1,1,2,1.58,3,.34.59.65,1.22,1,1.79.22.36.47.69.7,1,.64,1,1.29,2,2,2.91.5.7,1,1.43,1.47,2.11.37.47.76.88,1.13,1.34l0,0c.76.95,1.53,1.89,2.33,2.79.37.42.73.86,1.12,1.27l.08.11h0c.23.24.49.45.72.69.88.9,1.77,1.76,2.68,2.6.55.5,1.07,1,1.64,1.51,1.39,1.2,2.84,2.32,4.32,3.4.59.42,1.18.83,1.77,1.22,1.18.81,2.4,1.58,3.63,2.3.48.29,1,.59,1.45.85q2.53,1.42,5.18,2.59c.41.19.84.36,1.26.53q2.27,1,4.57,1.75c.44.15.88.31,1.32.45,1.89.6,3.8,1.13,5.73,1.56l1,.19c1.63.33,3.26.61,4.91.84.6.08,1.2.16,1.78.22q2.49.27,5,.36c.3,0,.61.07.9.07,26.84.69,53.2-14.91,65.35-44l-.14.15c.18-.43.35-.86.52-1.3H301c.83-2.09,1.57-4.29,2.26-6.52a2.14,2.14,0,0,0,.09-.27c.71-2.31,1.32-4.72,1.85-7.19.08-.33.18-.66.25-1,.48-2.37.85-4.82,1.17-7.31.05-.46.15-.9.2-1.36q.51-4.42.64-9.12v0c.4-16.08-2.53-29.87-7.81-41.31h0a.28.28,0,0,0,0-.08c-.12-.28-.25-.56-.37-.83s-.44-.85-.76-1.43a.09.09,0,0,0,0,0,1.19,1.19,0,0,0-.08-.16l0,0a2,2,0,0,0-.12-.21,71.61,71.61,0,0,0-4.57-7.72c-.19-.3-.38-.59-.58-.87q-1.26-1.81-2.61-3.51c-.13-.16-.27-.31-.4-.48a65.69,65.69,0,0,0-5.27-5.75q-.57-.58-1.17-1.14c-.91-.85-1.83-1.67-2.78-2.45-.55-.47-1.12-.9-1.69-1.34-1.43-1.11-2.88-2.17-4.38-3.15-.79-.51-1.6-1-2.4-1.52s-1.64-.95-2.47-1.4c-1.18-.64-2.39-1.24-3.61-1.82-.81-.37-1.64-.73-2.47-1.09-1.32-.54-2.64-1.05-4-1.52-.63-.22-1.28-.43-1.92-.63-1.74-.54-3.49-1-5.27-1.44l-.66-.14c-1.76-.39-3.56-.68-5.36-.92-.51-.07-1-.14-1.53-.19-2-.23-3.93-.39-5.91-.44-.39,0-.79,0-1.18,0Z" transform="translate(-18.43 -18.52)"/>
</svg>
