<svg width="1198" height="42" viewBox="0 0 1198 42" fill="none" xmlns="http://www.w3.org/2000/svg">
<path d="M19.8208 3.16H18.8308C17.8774 3.16 17.1258 3.41667 16.5758 3.93C16.0258 4.44333 15.5491 5.21333 15.1458 6.24L11.1308 16.745C10.5074 18.395 9.53576 19.5317 8.21576 20.155V20.265C9.7191 20.7417 10.8008 21.805 11.4608 23.455L16.3008 35.885C16.7408 37.0217 17.2541 37.8283 17.8408 38.305C18.4641 38.7817 19.2158 39.02 20.0958 39.02H21.0308V41C20.6274 41.1467 20.0224 41.22 19.2158 41.22C17.8958 41.22 16.7774 40.835 15.8608 40.065C14.9441 39.295 14.2291 38.2133 13.7158 36.82L8.76576 24.115C8.36243 23.125 7.86743 22.4467 7.28076 22.08C6.6941 21.6767 5.88743 21.475 4.86076 21.475H3.04576V41H0.295762V1.125H3.04576V19.165H4.80576C5.6491 19.165 6.3641 18.945 6.95076 18.505C7.5741 18.065 8.1241 17.24 8.60076 16.03L12.7808 5.14C13.8808 2.35333 15.7141 0.959998 18.2808 0.959998C18.5741 0.959998 18.8491 0.978331 19.1058 1.015C19.3991 1.05167 19.6374 1.08833 19.8208 1.125V3.16ZM85.9785 1.125L94.9435 24.83H95.0535L102.258 1.125H105.283L94.6685 34.62C93.9718 36.82 92.9451 38.4517 91.5885 39.515C90.2318 40.5783 88.6368 41.11 86.8035 41.11L86.5835 38.855C87.7935 38.7083 88.8935 38.2867 89.8835 37.59C90.9101 36.8933 91.6801 35.61 92.1935 33.74L93.6785 28.24L82.7885 1.125H85.9785ZM179.849 1.125C185.642 1.125 188.539 4.93833 188.539 12.565C188.539 16.2317 187.806 19.055 186.339 21.035C184.909 23.015 182.764 24.005 179.904 24.005H173.139V41H170.334V1.125H179.849ZM173.139 21.585H179.794C181.884 21.585 183.406 20.87 184.359 19.44C185.312 17.9733 185.789 15.6817 185.789 12.565C185.789 9.44833 185.312 7.19333 184.359 5.8C183.406 4.40666 181.884 3.71 179.794 3.71H173.139V21.585ZM271.453 1.125V3.71H257.648V19.055H269.033V21.475H257.648V38.415H272.333V41H254.843V1.125H271.453ZM341.243 1.125V19.165H354.828V1.125H357.633V41H354.828V21.695H341.243V41H338.438V1.125H341.243ZM445.805 1.125V41H443.11V7.175H443L428.81 41H426.17V1.125H428.81V35.005H428.92L443.11 1.125H445.805ZM530.941 1.125V3.71H517.136V19.055H528.521V21.475H517.136V38.415H531.821V41H514.331V1.125H530.941ZM668.624 1.125L677.589 24.83H677.699L684.904 1.125H687.929L677.314 34.62C676.617 36.82 675.591 38.4517 674.234 39.515C672.877 40.5783 671.282 41.11 669.449 41.11L669.229 38.855C670.439 38.7083 671.539 38.2867 672.529 37.59C673.556 36.8933 674.326 35.61 674.839 33.74L676.324 28.24L665.434 1.125H668.624ZM769.534 1.125V3.71H755.729V17.955H761.614C764.988 17.955 767.371 18.9267 768.764 20.87C770.194 22.7767 770.909 25.5267 770.909 29.12C770.909 33.3367 770.176 36.38 768.709 38.25C767.243 40.0833 764.841 41 761.504 41H752.979V1.125H769.534ZM761.449 38.47C762.586 38.47 763.576 38.3233 764.419 38.03C765.263 37.7367 765.959 37.2417 766.509 36.545C767.059 35.8117 767.463 34.8583 767.719 33.685C768.013 32.475 768.159 30.9533 768.159 29.12C768.159 26.04 767.609 23.84 766.509 22.52C765.409 21.2 763.704 20.54 761.394 20.54H755.729V38.47H761.449ZM857.284 1.125V41H854.589V7.175H854.479L840.289 41H837.649V1.125H840.289V35.005H840.399L854.589 1.125H857.284ZM942.97 10.805C942.97 13.445 942.585 15.4983 941.815 16.965C941.045 18.395 939.762 19.3667 937.965 19.88V19.99C940.165 20.43 941.815 21.475 942.915 23.125C944.015 24.7383 944.565 26.92 944.565 29.67C944.565 33.6667 943.814 36.5633 942.31 38.36C940.844 40.12 938.46 41 935.16 41H925.81V1.125H934.06C937.067 1.125 939.304 1.95 940.77 3.6C942.237 5.25 942.97 7.65166 942.97 10.805ZM928.56 38.47H935.105C936.205 38.47 937.177 38.3417 938.02 38.085C938.864 37.7917 939.56 37.315 940.11 36.655C940.66 35.9583 941.064 35.0417 941.32 33.905C941.614 32.7683 941.76 31.3383 941.76 29.615C941.76 26.7183 941.21 24.6283 940.11 23.345C939.01 22.0617 937.36 21.42 935.16 21.42H928.56V38.47ZM928.56 18.89H934.115C936.499 18.89 938.13 18.23 939.01 16.91C939.89 15.5533 940.33 13.5733 940.33 10.97C940.33 8.44 939.835 6.60667 938.845 5.47C937.892 4.29666 936.315 3.71 934.115 3.71H928.56V18.89ZM1011.12 41H1008.26L1018.76 1.125H1021.84L1032.4 41H1029.49L1026.63 29.56H1013.98L1011.12 41ZM1014.58 27.14H1026.02L1020.36 4.26H1020.25L1014.58 27.14ZM1114.39 1.125V3.71H1100.59V19.055H1111.97V21.475H1100.59V38.415H1115.27V41H1097.78V1.125H1114.39ZM1197.05 1.125V3.71H1188.91V41H1186.16V3.71H1178.02V1.125H1197.05Z" fill="#AEAEAE"/>
</svg>
