<svg width="144" height="144" viewBox="0 0 144 144" fill="none" xmlns="http://www.w3.org/2000/svg">
<path fill-rule="evenodd" clip-rule="evenodd" d="M82.0975 16.9133C80.111 15.7719 77.7487 15.4022 75.0265 16.003C71.868 16.7002 70.0629 19.6998 69.1785 23.0775C68.3162 26.3705 68.1741 30.5174 68.704 34.8479C68.2496 34.4063 67.7636 33.9817 67.2415 33.5751C63.994 31.0458 59.511 29.3324 52.9697 28.312C48.4795 27.6115 45.9002 25.1666 44.7791 22.6373C43.6081 19.9951 44.0526 17.4459 45.2533 16.22C46.9382 14.4996 48.6121 13.9434 50.0284 13.9659C51.4809 13.989 52.8234 14.6234 53.7945 15.5579C54.785 16.5109 55.2517 17.6336 55.2159 18.5237C55.1852 19.2871 54.7779 20.1673 53.2967 20.8079C52.505 21.1504 52.1408 22.0697 52.4833 22.8614C52.8257 23.653 53.745 24.0172 54.5367 23.6748C56.9557 22.6286 58.2511 20.7805 58.3369 18.6493C58.4176 16.6448 57.4145 14.7064 55.9602 13.3071C54.4866 11.8891 52.4093 10.8798 50.078 10.8428C47.7107 10.8052 45.237 11.7726 43.0218 14.0344C40.6614 16.4444 40.4063 20.4799 41.9235 23.903C43.4908 27.439 46.9878 30.5401 52.4883 31.3982C58.7489 32.3749 62.6524 33.96 65.3222 36.0394C67.6964 37.8885 69.2215 40.2259 70.5295 43.2062C71.6755 46.8172 73.2944 50.3586 75.4112 53.4611L43.2778 36.462C42.1341 35.857 40.7166 36.2937 40.1116 37.4373L32.6096 51.6182C32.0046 52.7618 32.4413 54.1794 33.5849 54.7844L37.7384 56.9816L15.1424 99.6949C14.4365 101.029 14.946 102.683 16.2802 103.389L82.6796 138.515C84.0138 139.221 85.6676 138.712 86.3735 137.377L108.969 94.664L114.68 97.6848C115.823 98.2898 117.241 97.8532 117.846 96.7095L125.348 82.5286C125.953 81.385 125.516 79.9674 124.373 79.3624L100.569 66.7698C101.925 66.9761 103.28 67.1441 104.619 67.2788C112.553 68.0772 120.151 67.7305 124.758 67.1594C125.614 67.0532 126.222 66.2733 126.116 65.4173C126.01 64.5613 125.23 63.9534 124.374 64.0596C119.975 64.6048 112.612 64.9438 104.931 64.1709C99.3221 63.6065 93.6572 62.4595 88.8734 60.4404C93.419 60.1262 98.6126 59.3942 103.186 58.0077C106.544 56.9897 109.693 55.5826 112.001 53.6288C114.349 51.6409 115.887 49.0238 115.756 45.7282C115.678 43.7374 115.04 42.0928 113.789 40.9397C112.56 39.8068 110.942 39.3366 109.268 39.2579C105.971 39.103 101.864 40.4304 97.9637 42.3761C94.6221 44.0433 91.2745 46.2442 88.4854 48.6183C88.5194 48.5 88.5531 48.3815 88.5866 48.263C89.8501 43.7847 90.7951 38.8595 90.3109 35.1991C89.7592 31.0285 88.7637 25.783 86.5918 21.8158C85.4969 19.8157 84.0459 18.0328 82.0975 16.9133ZM73.4527 42.0953C73.5969 42.4276 73.7374 42.7641 73.8751 43.1047C73.9536 43.2988 73.9902 43.4995 73.9893 43.6966C75.7654 48.6604 78.4857 53.2515 82.1159 56.3999C82.4107 55.7019 82.7897 55.0137 83.2242 54.3456C83.2697 54.2757 83.316 54.2057 83.363 54.1357C84.1213 52.1182 84.9088 49.7954 85.5804 47.4148C86.832 42.9785 87.6084 38.5877 87.2143 35.6088C86.6682 31.4804 85.7249 26.737 83.852 23.3157C82.9245 21.6214 81.8265 20.3601 80.5414 19.6216C79.2943 18.9051 77.7385 18.6031 75.6997 19.0532C74.3213 19.3574 72.9997 20.815 72.2002 23.8687C71.4252 26.8283 71.2924 30.8129 71.8903 35.1267C72.2103 37.4353 72.7322 39.7924 73.4527 42.0953ZM86.1506 55.5948C86.9232 54.5003 87.9495 53.3489 89.1741 52.1928C91.9653 49.5578 95.6618 47.0153 99.3582 45.1711C103.101 43.3038 106.627 42.2608 109.121 42.378C110.341 42.4354 111.157 42.7619 111.672 43.2363C112.165 43.6905 112.581 44.4639 112.635 45.8516C112.719 47.9615 111.788 49.7169 109.983 51.2447C108.137 52.8066 105.448 54.0582 102.28 55.0185C96.8619 56.661 90.4098 57.3446 85.406 57.4823C85.6473 56.8923 85.8971 56.2604 86.1506 55.5948ZM86.431 62.8244L76.7437 57.6997L69.9721 70.5001L79.6594 75.6248L86.431 62.8244ZM89.192 64.2851L122.222 81.7583L115.45 94.5587L82.4204 77.0854L89.192 64.2851ZM80.9598 79.8464L106.208 93.2034L83.7951 135.572L58.5464 122.215L80.9598 79.8464ZM55.7854 120.754L46.0981 115.629L68.5115 73.2611L78.1988 78.3858L55.7854 120.754ZM73.9827 56.2391L67.2111 69.0395L35.7358 52.3885L42.5074 39.5881L73.9827 56.2391ZM65.7505 71.8005L43.3371 114.169L18.0859 100.81L40.4994 58.4422L65.7505 71.8005Z" fill="url(#paint0_linear)"/>
<defs>
<linearGradient id="paint0_linear" x1="6.05709" y1="132.035" x2="96.6669" y2="175.443" gradientUnits="userSpaceOnUse">
<stop stop-color="#FF54B1"/>
<stop offset="1" stop-color="#2E98EC"/>
</linearGradient>
</defs>
</svg>
