<svg width="357" height="360" viewBox="0 0 357 360" fill="none" xmlns="http://www.w3.org/2000/svg">
<path fill-rule="evenodd" clip-rule="evenodd" d="M161.912 36.8857C167.21 34.3628 173.316 33.8846 180.149 35.9558C188.077 38.359 192.094 46.3747 193.687 55.1746C195.239 63.7529 194.784 74.3693 192.577 85.3224C193.824 84.2851 195.148 83.2976 196.56 82.3628C205.352 76.5446 217.138 73.0535 234.043 71.7378C245.647 70.8347 252.716 65.1001 256.077 58.8624C259.589 52.3463 258.957 45.7491 256.132 42.3817C252.169 37.6562 248.004 35.9059 244.383 35.684C240.669 35.4564 237.116 36.8117 234.452 39.0063C231.735 41.2447 230.322 44.0194 230.237 46.2995C230.165 48.255 231.032 50.5831 234.688 52.5111C236.642 53.5416 237.39 55.961 236.36 57.9151C235.329 59.8692 232.91 60.6178 230.956 59.5873C224.985 56.4385 222.042 51.4638 222.243 46.0047C222.432 40.87 225.376 36.118 229.366 32.8315C233.408 29.5014 238.912 27.3337 244.872 27.6989C250.925 28.0698 257.051 31.028 262.262 37.2407C267.814 43.8604 267.669 54.2157 263.12 62.6577C258.42 71.3782 248.879 78.6074 234.663 79.7137C218.484 80.973 208.203 84.2508 200.976 89.0342C194.553 93.2844 190.2 98.9466 186.274 106.29C182.635 115.291 177.8 124.022 171.779 131.532L257.187 94.4612C260.226 93.1418 263.76 94.5364 265.079 97.5762L281.439 135.268C282.759 138.308 281.364 141.841 278.324 143.161L267.283 147.953L316.56 261.482C318.099 265.028 316.472 269.151 312.925 270.69L136.441 347.293C132.894 348.832 128.771 347.205 127.232 343.658L77.9557 230.13L62.7799 236.717C59.7402 238.036 56.2065 236.642 54.8871 233.602L38.5271 195.91C37.2077 192.871 38.6023 189.337 41.6421 188.017L104.91 160.556C101.406 160.815 97.9143 160.977 94.4692 161.057C74.0512 161.531 54.7174 159.147 43.0649 156.78C40.8999 156.34 39.5015 154.229 39.9413 152.064C40.3811 149.899 42.4926 148.5 44.6575 148.94C55.7818 151.2 74.5176 153.518 94.2835 153.059C108.719 152.724 123.411 150.912 136.025 146.7C124.479 145.001 111.361 142.107 99.9555 137.665C91.5814 134.403 83.8193 130.189 78.3105 124.744C72.7054 119.205 69.2955 112.219 70.2782 103.829C70.8718 98.7605 72.8244 94.6868 76.2464 91.9888C79.6082 89.3384 83.8321 88.4568 88.1244 88.5861C96.5726 88.8406 106.8 93.0403 116.375 98.778C124.579 103.694 132.693 109.975 139.347 116.587C139.284 116.279 139.221 115.97 139.159 115.66C136.816 103.975 135.374 91.212 137.332 81.9604C139.564 71.4191 143.141 58.2207 149.469 48.5182C152.659 43.6268 156.716 39.3602 161.912 36.8857ZM179.029 102.877C178.591 103.703 178.163 104.54 177.741 105.389C177.502 105.872 177.368 106.379 177.333 106.885C171.818 119.207 163.967 130.392 154.078 137.715C153.463 135.874 152.631 134.042 151.653 132.25C151.55 132.063 151.446 131.875 151.34 131.687C149.801 126.386 148.249 120.299 147.003 114.087C144.682 102.512 143.565 91.1463 145.159 83.6171C147.368 73.1825 150.712 61.256 156.17 52.8887C158.872 48.7453 161.925 45.7407 165.352 44.1085C168.678 42.5247 172.71 42.0606 177.828 43.6118C181.288 44.6606 184.375 48.6434 185.815 56.599C187.21 64.3093 186.763 74.5107 184.385 85.4085C183.114 91.2343 181.319 97.144 179.029 102.877ZM143.934 134.863C142.177 131.916 139.783 128.773 136.884 125.58C130.276 118.3 121.338 111.079 112.263 105.64C103.074 100.134 94.2745 96.775 87.8835 96.5825C84.7563 96.4883 82.6074 97.1611 81.1995 98.2712C79.8517 99.3337 78.6376 101.227 78.2239 104.759C77.5947 110.131 79.6263 114.797 83.9339 119.054C88.3379 123.407 94.9599 127.134 102.859 130.21C116.371 135.473 132.712 138.491 145.463 139.83C144.963 138.276 144.45 136.613 143.934 134.863ZM134.451 156.455L46.662 194.56L61.4293 228.582L149.218 190.478L134.451 156.455ZM156.557 187.292L141.789 153.27L167.54 142.093L182.308 176.115L156.557 187.292ZM152.404 197.816L85.2942 226.945L134.173 339.556L201.282 310.427L152.404 197.816ZM208.621 307.242L159.742 194.631L185.493 183.454L234.371 296.065L208.621 307.242ZM174.879 138.908L189.646 172.93L273.304 136.619L258.537 102.596L174.879 138.908ZM192.831 180.269L241.71 292.88L308.823 263.75L259.944 151.139L192.831 180.269Z" fill="url(#paint0_linear)"/>
<defs>
<linearGradient id="paint0_linear" x1="0" y1="107.148" x2="257.754" y2="3.89314" gradientUnits="userSpaceOnUse">
<stop stop-color="#FF54B1"/>
<stop offset="1" stop-color="#2E98EC"/>
</linearGradient>
</defs>
</svg>
