<svg width="214" height="213" viewBox="0 0 214 213" fill="none" xmlns="http://www.w3.org/2000/svg">
<path fill-rule="evenodd" clip-rule="evenodd" d="M127.251 12.2922C126.465 10.5729 124.475 9.95344 122.877 10.6938L24.3418 56.3311C22.7451 57.0707 21.9279 58.9871 22.7317 60.7007C25.5755 66.7634 29.1966 73.7875 33.4782 81.1007L14.0407 90.1034C12.4149 90.8564 11.6251 92.8262 12.471 94.5278C18.7837 107.227 37.9096 130.019 67.9665 124.837L67.9293 124.62C81.5461 136.255 97.3058 143.341 113.939 139L120.134 152.375L105.535 159.137C103.881 159.903 103.162 161.864 103.928 163.518L109.526 175.605L102.466 178.875C100.812 179.641 100.092 181.603 100.858 183.256L104.59 191.313C105.356 192.967 107.318 193.687 108.971 192.921L172.32 163.58C173.974 162.814 174.694 160.853 173.928 159.199L170.196 151.142C169.43 149.488 167.469 148.768 165.815 149.534L158.758 152.803L153.159 140.716C152.393 139.062 150.432 138.342 148.778 139.108L134.179 145.87L127.986 132.498C142.161 122.564 146.948 105.859 146.831 87.8424C168.88 68.2838 163.941 39.7287 158.434 26.9232C157.683 25.1775 155.67 24.5059 154.044 25.2589L135.875 33.6744C133.068 25.7114 130.052 18.415 127.251 12.2922ZM146.396 78.8806C146.486 79.9011 146.562 80.9204 146.625 81.9374C162.923 64.9048 159.58 41.651 154.838 29.7403L137.308 37.8594C141.599 50.756 145.185 65.0924 146.396 78.8806ZM63.8646 120.958C39.3284 123.408 23.1146 105.213 16.9452 93.6072L35.747 84.899C42.777 96.4341 51.3659 108.392 61.0698 118.218C61.9894 119.149 62.9212 120.063 63.8646 120.958ZM123.718 15.1532C131.225 31.7797 140.006 56.414 142.013 79.2656C144.07 102.688 138.985 123.295 119.395 132.368C99.8132 141.438 80.7637 131.899 64.2006 115.126C48.0494 98.7711 34.9401 76.1474 27.1992 59.8569L123.718 15.1532ZM166.666 153.989L169.473 160.05L108.12 188.466L105.313 182.405L166.666 153.989ZM154.764 154.65L149.629 143.563L108.382 162.667L113.518 173.754L154.764 154.65ZM125.051 136.63L130.186 147.717L124.125 150.524L118.99 139.437L125.051 136.63ZM81.5928 56.527C81.7128 54.3259 84.2441 53.1536 86.0005 54.4856L97.3117 63.0634L111.032 59.4185C113.162 58.8525 115.059 60.8975 114.335 62.9796L109.673 76.3879L117.379 88.3101C118.576 90.1614 117.217 92.5976 115.013 92.5524L100.82 92.2614L91.8628 103.275C90.4719 104.985 87.735 104.445 87.097 102.335L82.9879 88.7472L69.7457 83.6316C67.6895 82.8373 67.3567 80.0677 69.1662 78.8088L80.8196 70.7019L81.5928 56.527ZM95.295 67.0563L85.8171 59.8688L85.1693 71.746C85.1232 72.5922 84.6895 73.3698 83.9938 73.8538L74.2293 80.6467L85.3251 84.9331C86.1156 85.2385 86.7211 85.8912 86.9664 86.7024L90.4094 98.0881L97.9148 88.86C98.4495 88.2025 99.2575 87.8283 100.105 87.8457L111.997 88.0896L105.54 78.0999C105.08 77.3882 104.974 76.5042 105.252 75.7037L109.159 64.4687L97.6628 67.5229C96.8438 67.7405 95.9702 67.5683 95.295 67.0563Z" fill="url(#paint0_linear)"/>
<defs>
<linearGradient id="paint0_linear" x1="213.002" y1="220.199" x2="232.134" y2="6.48582" gradientUnits="userSpaceOnUse">
<stop stop-color="#FF54B1"/>
<stop offset="1" stop-color="#2E98EC"/>
</linearGradient>
</defs>
</svg>
