<svg width="382" height="381" viewBox="0 0 382 381" fill="none" xmlns="http://www.w3.org/2000/svg">
<path fill-rule="evenodd" clip-rule="evenodd" d="M146.497 21.019C147.805 17.8402 151.376 16.5752 154.332 17.8081L336.553 93.8065C339.506 95.038 341.125 98.4623 339.785 101.632C335.044 112.846 328.958 125.861 321.693 139.448L357.641 154.441C360.648 155.695 362.221 159.218 360.804 162.369C350.226 185.883 317.078 228.634 262.107 221.328L262.16 220.929C238.237 243.024 210.101 257.006 179.576 250.286L169.26 275.021L196.257 286.281C199.316 287.556 200.761 291.07 199.485 294.128L190.163 316.481L203.219 321.926C206.278 323.202 207.723 326.715 206.447 329.773L200.233 344.673C198.958 347.731 195.444 349.176 192.386 347.901L75.2346 299.041C72.1763 297.765 70.731 294.252 72.0065 291.194L78.2206 276.294C79.4962 273.236 83.0095 271.791 86.0679 273.066L99.1186 278.509L108.441 256.157C109.717 253.098 113.23 251.653 116.288 252.928L143.285 264.188L153.599 239.459C127.149 222.406 117.279 192.393 116.227 159.652C74.7957 125.666 81.7644 73.4405 90.871 49.789C92.1124 46.5648 95.7228 45.2033 98.7295 46.4573L132.331 60.4713C136.87 45.8072 141.839 32.3395 146.497 21.019ZM116.388 143.34C116.297 145.2 116.229 147.058 116.186 148.91C85.3803 119.109 89.8225 76.6267 97.6015 54.6547L130.02 68.1753C123.129 91.9068 117.621 118.205 116.388 143.34ZM269.284 213.993C314.035 216.725 342.216 182.528 352.61 161.01L317.838 146.508C305.875 167.958 291.11 190.286 274.169 208.82C272.564 210.576 270.935 212.302 269.284 213.993ZM153.117 25.969C140.645 56.7027 126.421 102.074 124.378 143.732C122.285 186.43 132.969 223.512 169.197 238.621C205.41 253.724 239.35 235.057 268.264 203.423C296.46 172.575 318.689 130.552 331.609 100.413L153.117 25.969ZM84.8343 281.22L80.16 292.427L193.619 339.747L198.294 328.54L84.8343 281.22ZM106.504 281.585L115.055 261.082L191.332 292.895L182.781 313.398L106.504 281.585ZM159.221 246.76L150.67 267.264L161.878 271.938L170.429 251.435L159.221 246.76ZM232.554 98.1802C232.181 94.1897 227.5 92.2375 224.402 94.7806L204.454 111.159L179.272 105.499C175.362 104.621 172.058 108.469 173.52 112.201L182.932 136.234L169.768 158.435C167.724 161.882 170.363 166.213 174.364 165.976L200.129 164.451L217.176 183.832C219.823 186.841 224.757 185.669 225.768 181.791L232.28 156.816L255.979 146.592C259.659 145.005 260.07 139.95 256.694 137.79L234.953 123.879L232.554 98.1802ZM208.398 118.271L225.113 104.548L227.124 126.081C227.267 127.615 228.11 128.997 229.407 129.828L247.624 141.484L227.766 150.05C226.352 150.66 225.297 151.889 224.909 153.38L219.452 174.307L205.169 158.068C204.151 156.911 202.657 156.288 201.119 156.379L179.53 157.657L190.56 139.054C191.346 137.729 191.477 136.115 190.915 134.681L183.029 114.543L204.129 119.285C205.633 119.623 207.208 119.249 208.398 118.271Z" fill="url(#paint0_linear)"/>
<defs>
<linearGradient id="paint0_linear" x1="111.634" y1="0" x2="386.624" y2="124.274" gradientUnits="userSpaceOnUse">
<stop stop-color="#FF54B1"/>
<stop offset="1" stop-color="#2E98EC"/>
</linearGradient>
</defs>
</svg>
