<svg width="26" height="19" viewBox="0 0 26 19" fill="none" xmlns="http://www.w3.org/2000/svg">
<path d="M23.2635 10.3803C22.822 9.72996 22.3165 9.15265 21.7504 8.6813C22.6084 7.76053 23.1353 6.51457 23.1353 5.14073C23.1353 2.30169 20.8924 0.00341797 18.1296 0.00341797C15.3669 0.00341797 13.1239 2.30534 13.1239 5.14073C13.1239 6.51457 13.6544 7.76053 14.5089 8.6813C13.9464 9.1563 13.4373 9.72996 12.9958 10.3803C12.9175 10.4973 12.8462 10.6251 12.7679 10.7494C12.6932 10.6251 12.622 10.4973 12.5401 10.3803C12.0986 9.72996 11.593 9.15265 11.027 8.6813C11.885 7.76053 12.4119 6.51457 12.4119 5.14073C12.4119 2.30169 10.169 0.00341797 7.4062 0.00341797C4.64346 0.00341797 2.40763 2.30169 2.40763 5.13707C2.40763 6.51092 2.9381 7.75688 3.79256 8.67765C3.23004 9.15265 2.72093 9.7263 2.27946 10.3767C1.02626 12.2401 0.271484 14.7723 0.271484 17.5346C0.271484 18.0315 0.296406 18.5211 0.342689 18.9998H1.78103C1.72762 18.5248 1.7027 18.0352 1.7027 17.5346C1.7027 15.0353 2.38627 12.8028 3.4579 11.2134C3.90649 10.5521 4.41204 10.0113 4.95676 9.60938C5.68305 10.0332 6.52326 10.2744 7.41688 10.2744C8.3105 10.2744 9.15072 10.0296 9.87701 9.60938C10.4217 10.015 10.9273 10.5521 11.3759 11.2134C11.6002 11.5459 11.8031 11.915 11.9918 12.3023C12.3193 12.9746 12.5828 13.72 12.775 14.5238C12.9993 15.4592 13.1311 16.4713 13.1311 17.5346C13.1311 18.0352 13.1026 18.5248 13.0527 18.9998H14.4875C14.5338 18.5211 14.5587 18.0315 14.5587 17.5346C14.5587 15.6309 14.1956 13.8442 13.5619 12.3023C13.7506 11.915 13.9535 11.5459 14.1778 11.2134C14.6264 10.5521 15.1319 10.0113 15.6766 9.60938C16.4029 10.0332 17.2431 10.2744 18.1368 10.2744C19.0304 10.2744 19.8706 10.0296 20.5969 9.60938C21.1416 10.015 21.6472 10.5521 22.0958 11.2134C23.1674 12.7992 23.851 15.0317 23.851 17.5346C23.851 18.0352 23.8225 18.5248 23.7726 18.9998H25.2074C25.2537 18.5211 25.2786 18.0315 25.2786 17.5346C25.2786 14.7723 24.5238 12.2401 23.2706 10.3803H23.2635ZM9.80581 7.85919C9.28245 8.34515 8.62025 8.67034 7.88684 8.77265C7.73019 8.79457 7.57353 8.80919 7.41332 8.80919C7.25311 8.80919 7.09646 8.79457 6.93981 8.77265C6.2064 8.674 5.5442 8.34515 5.02084 7.85919C4.29455 7.18688 3.83528 6.21861 3.83528 5.13707C3.83528 3.10919 5.43739 1.46861 7.40976 1.46861C9.38214 1.46861 10.9842 3.11284 10.9842 5.13707C10.9842 6.21861 10.525 7.18688 9.80225 7.85919H9.80581ZM20.5221 7.85919C19.9988 8.34515 19.3366 8.67034 18.6032 8.77265C18.4465 8.79457 18.2899 8.80919 18.1296 8.80919C17.9694 8.80919 17.8128 8.79457 17.6561 8.77265C16.9227 8.674 16.2605 8.34515 15.7372 7.85919C15.0109 7.18688 14.5516 6.21861 14.5516 5.13707C14.5516 3.10919 16.1537 1.46861 18.1261 1.46861C20.0985 1.46861 21.7006 3.11284 21.7006 5.13707C21.7006 6.21861 21.2413 7.18688 20.5186 7.85919H20.5221Z" fill="#FA6E0C"/>
</svg>
