<svg width="226" height="164" viewBox="0 0 226 164" fill="none" xmlns="http://www.w3.org/2000/svg">
<path fill-rule="evenodd" clip-rule="evenodd" d="M36.4888 163.042C35.6685 163.709 34.6342 163.999 33.6154 163.848C32.5965 163.697 31.6772 163.117 31.0614 162.237C24.9763 153.54 16.3038 138.294 9.82543 120.524C3.36567 102.806 -1.07689 82.1309 1.79809 62.7676C4.67689 43.3785 13.0623 31.0926 22.6297 23.7594C32.0759 16.519 42.4719 14.2573 49.372 14.4448C50.2328 14.4682 51.0198 14.791 51.6485 15.3178C59.7944 10.5323 70.8574 5.03458 84.1174 2.43333C101.854 -1.04617 123.312 0.693096 146.817 15.602C163.343 26.0835 180.8 49.3304 194.972 72.964C209.221 96.7233 220.664 121.755 224.865 136.532C225.164 137.583 225.02 138.71 224.467 139.652C223.913 140.594 222.999 141.269 221.935 141.519C207.945 144.816 184.338 147.662 158.55 145.634C132.781 143.607 104.458 136.682 81.3874 120.097C78.7058 118.17 76.1836 116.199 73.8126 114.194C62.9947 134.555 46.3979 154.985 36.4888 163.042ZM74.683 104.242C75.0825 104.498 75.4241 104.822 75.7016 105.192C78.8244 108.065 82.2669 110.877 86.057 113.602C107.515 129.027 134.234 135.697 159.178 137.659C181.639 139.425 202.356 137.35 215.907 134.642C211.174 120.404 200.876 98.3639 188.112 77.0784C173.978 53.5109 157.332 31.7447 142.533 22.3577C120.857 8.6092 101.503 7.17522 85.6574 10.2837C72.9665 12.7733 62.3925 18.2 54.5235 22.9164L81.669 40.831L117.449 26.7451C119.504 25.9358 121.827 26.9462 122.636 29.0018C123.445 31.0574 122.435 33.3798 120.379 34.189L89.829 46.2161L119.468 65.776L152.95 52.5946C155.006 51.7853 157.328 52.7957 158.138 54.8513C158.947 56.9069 157.936 59.2293 155.881 60.0385L127.628 71.1612L155.376 89.4738L179.943 79.8025C181.998 78.9933 184.321 80.0036 185.13 82.0592C185.939 84.1148 184.929 86.4372 182.873 87.2464L163.536 94.859L191.13 113.069C192.974 114.286 193.482 116.767 192.265 118.611C191.048 120.455 188.567 120.963 186.723 119.746L158.859 101.357L164.634 126.614C165.127 128.768 163.78 130.913 161.627 131.405C159.473 131.898 157.328 130.551 156.836 128.398L149.317 95.5146C149.278 95.3449 149.251 95.1749 149.234 95.0055L123.759 78.1929L130.586 118.353C130.957 120.531 129.491 122.597 127.313 122.967C125.135 123.337 123.07 121.872 122.699 119.694L114.618 72.1608L85.9882 53.2665L89.0723 91.2518C89.2511 93.4537 87.611 95.3836 85.4091 95.5624C83.2072 95.7411 81.2773 94.1011 81.0985 91.8992L77.5074 47.6696L49.2256 29.0052C45.3049 45.8439 46.4672 77.5622 74.683 104.242ZM67.8206 108.749C58.5463 126.669 44.3263 144.827 34.8913 153.754C29.413 145.269 22.4209 132.305 17.0246 117.503C10.7975 100.423 6.85983 81.3429 9.42857 64.0421C11.9935 46.7671 19.2922 36.4717 27.1184 30.473C32.2856 26.5125 37.7739 24.3573 42.4606 23.3742C40.6045 29.4178 39.3191 37.6346 39.6444 47.0496L19.3937 55.022C17.3897 55.8109 16.3586 58.1865 17.0906 60.3281C17.8226 62.4696 20.0406 63.5661 22.0447 62.7772L40.3653 55.5647C40.6491 57.6686 41.017 59.8128 41.4788 61.9882C41.462 62.0807 41.448 62.1744 41.437 62.2693L40.1173 73.5958L15.1256 89.0247C13.2755 90.1669 12.6372 92.6946 13.6998 94.6704C14.7625 96.6463 17.1237 97.3222 18.9738 96.18L38.9208 83.8656L36.8284 101.824L20.0644 113.803C18.288 115.072 17.806 117.639 18.9877 119.535C20.1694 121.432 22.5674 121.941 24.3438 120.671L35.5668 112.652L33.1693 133.229C32.9054 135.494 34.4077 137.555 36.5248 137.831C38.642 138.107 40.5722 136.494 40.8362 134.229L43.0191 115.493L51.1158 124.516C52.5912 126.161 55.0366 126.21 56.5777 124.628C58.1189 123.045 58.1722 120.429 56.6967 118.785L44.2516 104.915L47.2064 79.5542C51.6041 89.3845 58.2181 99.3573 67.8206 108.749Z" fill="url(#paint0_linear)"/>
<defs>
<linearGradient id="paint0_linear" x1="-38" y1="85.3182" x2="134.266" y2="241.699" gradientUnits="userSpaceOnUse">
<stop stop-color="#FF54B1"/>
<stop offset="1" stop-color="#2E98EC"/>
</linearGradient>
</defs>
</svg>
