<svg width="88" height="122" viewBox="0 0 88 122" fill="none" xmlns="http://www.w3.org/2000/svg">
<path fill-rule="evenodd" clip-rule="evenodd" d="M0.744186 16.3821C0.415343 15.8984 0.304363 15.3147 0.43587 14.7602C0.567373 14.2058 0.93049 13.7265 1.44469 13.4287C6.52594 10.4859 15.339 6.42658 25.4395 3.69591C35.511 0.973103 47.1167 -0.498099 57.6534 2.00195C68.2041 4.50533 74.5794 9.70801 78.169 15.3281C81.7132 20.8769 82.4683 26.7139 82.0387 30.5082C81.9852 30.9813 81.7701 31.3997 81.4503 31.7213C83.7029 36.4374 86.2102 42.7952 87.0171 50.227C88.0963 60.1677 86.1233 71.9124 76.7946 84.1633C70.2361 92.7761 56.5976 101.299 42.9013 107.993C29.132 114.723 14.7942 119.847 6.45071 121.464C5.85738 121.579 5.24284 121.447 4.74982 121.097C4.25679 120.748 3.9282 120.212 3.84036 119.614C2.68464 111.746 2.23205 98.6002 4.56908 84.4828C6.90448 70.3752 12.0602 55.0917 22.2923 43.1595C23.4815 41.7727 24.6866 40.4757 25.9038 39.2637C15.1926 32.3385 4.71657 22.2248 0.744186 16.3821ZM31.3467 40.2152C31.1872 40.4221 30.9936 40.5943 30.7776 40.7293C29.0459 42.3149 27.3331 44.0798 25.6519 46.0404C16.1353 57.1382 11.1959 71.55 8.93527 85.2056C6.89963 97.5024 7.06428 109.019 7.91591 116.616C15.9873 114.68 28.6223 110.047 40.9579 104.017C54.6159 97.3416 67.3999 89.1956 73.2735 81.4821C81.8762 70.1848 83.5815 59.5854 82.6173 50.7046C81.845 43.5917 79.3537 37.5068 77.1261 32.9465L65.9683 47.0619L72.0406 67.4491C72.3895 68.6203 71.7228 69.8526 70.5516 70.2015C69.3803 70.5503 68.148 69.8837 67.7992 68.7124L62.6144 51.305L50.4322 66.7164L56.1148 85.7951C56.4636 86.9664 55.797 88.1986 54.6257 88.5475C53.4545 88.8964 52.2222 88.2297 51.8733 87.0584L47.0782 70.9595L35.6728 85.3882L39.842 99.386C40.1909 100.557 39.5242 101.79 38.353 102.138C37.1817 102.487 35.9494 101.821 35.6006 100.649L32.3188 89.6313L20.9768 103.98C20.219 104.939 18.8274 105.101 17.8687 104.344C16.9099 103.586 16.7471 102.194 17.5049 101.235L28.958 86.7464L14.764 88.7353C13.5538 88.9049 12.4352 88.0612 12.2656 86.851C12.096 85.6407 12.9396 84.5221 14.1499 84.3525L32.6298 81.763C32.7251 81.7496 32.82 81.7426 32.9141 81.7415L43.3849 68.4951L20.9275 70.3597C19.7096 70.4609 18.6403 69.5555 18.5392 68.3376C18.438 67.1197 19.3434 66.0504 20.5613 65.9493L47.1418 63.7424L58.9099 48.8548L37.8275 48.7589C36.6054 48.7533 35.6192 47.7581 35.6248 46.536C35.6304 45.3139 36.6256 44.3277 37.8476 44.3333L62.3957 44.445L74.0203 29.7389C64.924 26.7819 47.3861 25.9234 31.3467 40.2152ZM29.1887 36.2185C19.7494 30.2595 10.4135 21.5631 5.93889 15.9407C10.875 13.3223 18.3511 10.0813 26.7644 7.80679C36.4732 5.18205 47.1758 3.9137 56.5902 6.14745C65.9905 8.37788 71.3201 12.8875 74.2564 17.4847C76.195 20.5199 77.1235 23.6467 77.4437 26.2764C74.2002 24.9676 69.7317 23.8707 64.5266 23.6051L61.09 12.067C60.7499 10.9251 59.4893 10.2444 58.2743 10.5467C57.0593 10.8489 56.3501 12.0196 56.6902 13.1615L59.7993 23.6C58.6258 23.657 57.4261 23.7585 56.2048 23.9103C56.1553 23.8969 56.1051 23.885 56.054 23.8745L49.8733 22.6116L42.5508 8.10725C42.0087 7.03354 40.6457 6.56221 39.5064 7.05451C38.3671 7.54681 37.8829 8.81631 38.425 9.89002L44.2695 21.4666L34.4705 19.4644L28.6604 9.65762C28.0447 8.61851 26.6529 8.23147 25.5516 8.79314C24.4503 9.35481 24.0566 10.6525 24.6722 11.6916L28.5621 18.2572L17.3335 15.9629C16.0973 15.7103 14.8907 16.4409 14.6384 17.5948C14.3861 18.7486 15.1837 19.8888 16.4199 20.1414L26.6428 22.2302L21.2872 26.266C20.3112 27.0014 20.1682 28.3469 20.9677 29.2712C21.7672 30.1955 23.2066 30.3485 24.1826 29.613L32.4148 23.4096L46.2529 26.2371C40.6272 28.1963 34.8184 31.3702 29.1887 36.2185Z" fill="url(#paint0_linear)"/>
<defs>
<linearGradient id="paint0_linear" x1="2.79633" y1="170.748" x2="147.148" y2="93.432" gradientUnits="userSpaceOnUse">
<stop stop-color="#FF54B1"/>
<stop offset="1" stop-color="#2E98EC"/>
</linearGradient>
</defs>
</svg>
