<svg width="133" height="132" viewBox="0 0 133 132" fill="none" xmlns="http://www.w3.org/2000/svg">
<ellipse cx="66.7041" cy="65.5" rx="66" ry="65.5" fill="url(#paint0_linear_113_31529)"/>
<mask id="mask0_113_31529" style="mask-type:alpha" maskUnits="userSpaceOnUse" x="33" y="34" width="65" height="65">
<rect x="33.7858" y="34.1772" width="64" height="64" fill="#D9D9D9"/>
</mask>
<g mask="url(#mask0_113_31529)">
<path d="M75.703 91.8694L65.2928 81.4592L68.103 78.649L75.703 86.2491L90.8209 71.1311L93.6311 73.9412L75.703 91.8694ZM65.785 63.5105L86.7081 50.1772H44.862L65.785 63.5105ZM65.785 67.6642L44.4517 54.0232V81.3566C44.4517 81.5959 44.5286 81.7925 44.6825 81.9464C44.8364 82.1002 45.033 82.1772 45.2723 82.1772H58.5184L62.5183 86.1771H45.2723C43.9253 86.1771 42.7851 85.7105 41.8518 84.7771C40.9184 83.8438 40.4518 82.7036 40.4518 81.3566V50.9978C40.4518 49.6508 40.9184 48.5106 41.8518 47.5772C42.7851 46.6439 43.9253 46.1772 45.2723 46.1772H86.2978C87.6448 46.1772 88.785 46.6439 89.7183 47.5772C90.6517 48.5106 91.1183 49.6508 91.1183 50.9978V63.367L87.1184 67.3669V54.0232L65.785 67.6642Z" fill="white"/>
</g>
<path d="M125.746 68.1086C125.305 77.106 122.75 85.8886 118.289 93.7498C113.827 101.611 107.583 108.332 100.058 113.371C92.5327 118.41 83.937 121.627 74.9623 122.764C65.9875 123.9 56.8841 122.924 48.3844 119.914" stroke="white" stroke-width="2.17227"/>
<path d="M120.691 67.8954C120.288 76.1045 117.958 84.1176 113.887 91.2902C109.816 98.4627 104.119 104.594 97.2529 109.192C90.3871 113.79 82.5445 116.725 74.356 117.762C66.1675 118.799 57.8616 117.909 50.1065 115.162" stroke="white" stroke-width="2.37735"/>
<path d="M10.353 63.2478C10.7942 54.2504 13.3484 45.4679 17.81 37.6066C22.2716 29.7453 28.516 23.0248 36.0411 17.9856C43.5662 12.9464 52.1619 9.72914 61.1366 8.59266C70.1114 7.45618 79.2148 8.43219 87.7145 11.4422" stroke="white" stroke-width="2.17227"/>
<path d="M15.4084 63.461C15.811 55.2519 18.1414 47.2388 22.2121 40.0662C26.2828 32.8937 31.9802 26.762 38.846 22.1642C45.7118 17.5665 53.5544 14.6311 61.7429 13.5942C69.9314 12.5573 78.2373 13.4478 85.9923 16.1941" stroke="white" stroke-width="2.37735"/>
<defs>
<linearGradient id="paint0_linear_113_31529" x1="66.7041" y1="7.12359e-07" x2="72.6398" y2="35.1585" gradientUnits="userSpaceOnUse">
<stop stop-color="#EB5C24"/>
<stop offset="1" stop-color="#F07E23"/>
</linearGradient>
</defs>
</svg>
