<svg width="47" height="47" viewBox="0 0 47 47" fill="none" xmlns="http://www.w3.org/2000/svg">
<path fill-rule="evenodd" clip-rule="evenodd" d="M0.40155 23.5441C0.40155 36.1362 10.6095 46.3441 23.2015 46.3441C35.7936 46.3441 46.0015 36.1362 46.0015 23.5441C46.0015 10.952 35.7936 0.744141 23.2015 0.744141C10.6095 0.744141 0.40155 10.952 0.40155 23.5441ZM35.3645 18.899V30.0456C35.3645 31.6315 35.0782 31.9034 33.5405 31.9034H12.8685C11.3668 31.9034 11.0445 31.5938 11.0445 30.0456V18.899C11.0445 18.899 22.1648 26.7821 23.2228 27.1716C24.2989 26.7635 35.3645 18.899 35.3645 18.899ZM33.5405 15.1834C35.024 15.1834 35.3469 15.5859 35.3469 16.7136L35.3645 16.7935C35.3645 16.7935 24.4631 24.6023 23.2228 25.0915C22.0487 24.6705 11.0628 16.9669 11.0628 16.9669L11.0445 16.7935C11.0445 15.6664 11.3424 15.1834 12.8685 15.1834H33.5405Z" fill="#F07E23"/>
</svg>
