<?xml version="1.0" encoding="UTF-8" standalone="no"?>
<svg
   xmlns:dc="http://purl.org/dc/elements/1.1/"
   xmlns:cc="http://creativecommons.org/ns#"
   xmlns:rdf="http://www.w3.org/1999/02/22-rdf-syntax-ns#"
   xmlns:svg="http://www.w3.org/2000/svg"
   xmlns="http://www.w3.org/2000/svg"
   viewBox="0 0 794.8667 309.81332"
   height="309.81332"
   width="794.8667"
   xml:space="preserve"
   id="svg2"
   version="1.1"><metadata
     id="metadata8"><rdf:RDF><cc:Work
         rdf:about=""><dc:format>image/svg+xml</dc:format><dc:type
           rdf:resource="http://purl.org/dc/dcmitype/StillImage" /></cc:Work></rdf:RDF></metadata><defs
     id="defs6" /><g
     transform="matrix(1.3333333,0,0,-1.3333333,0,309.81333)"
     id="g10"><g
       transform="scale(0.1)"
       id="g12"><path
         id="path14"
         fill="#231f20"
         style="fill-opacity:1;fill-rule:evenodd;stroke:none"
         d="m 2839.24,50.0195 h 75.6 V 6.98047 l -366,-0.39063 V 50.0195 h 78.71 V 2281.7 h -78.71 v 41.49 l 290.4,-0.77 z M 4501.38,997.59 V 225.648 C 4501.38,100.809 4388.16,0 4275.34,0 H 4130.72 C 4017.89,0 3904.68,100.809 3904.68,225.648 V 997.59 c 0,124.85 113.21,226.03 226.04,226.03 h 144.62 c 112.82,0 226.04,-101.18 226.04,-226.03 z m -205.88,119.42 c 0,41.48 -31.02,75.22 -68.63,75.22 h -48.07 c -37.61,0 -67.85,-33.74 -67.85,-75.22 V 113.211 c 0,-41.8712 30.24,-75.6094 67.85,-75.6094 h 48.07 c 37.61,0 68.63,33.7382 68.63,75.6094 z M 5961.51,997.59 V 225.648 C 5961.51,100.809 5847.91,0 5735.48,0 H 5590.86 C 5477.65,0 5364.43,100.809 5364.43,225.648 V 997.59 c 0,124.85 113.22,226.03 226.43,226.03 h 144.62 c 112.43,0 226.03,-101.18 226.03,-226.03 z m -206.27,119.42 c 0,41.48 -30.62,75.22 -68.23,75.22 h -48.08 c -37.6,0 -67.85,-33.74 -67.85,-75.22 V 113.211 c 0,-41.8712 30.25,-75.6094 67.85,-75.6094 h 48.08 c 37.61,0 68.23,33.7382 68.23,75.6094 z M 515.664,578.859 c -1.168,-8.14 -3.105,-17.449 -9.699,-17.449 -5.43,0 -8.527,6.199 -10.469,20.172 L 288.848,1754.02 H 0 v -37.99 H 67.0742 V 48.0703 H 4.26172 V 11.25 H 179.512 V 48.0703 H 113.988 V 1224.41 c 0,28.69 1.938,33.34 7.754,33.73 2.715,0.39 8.918,0.39 13.571,-33.35 L 346.617,11.25 h 131.824 l 213.243,1223.24 c 3.879,31.79 8.14,38 14.347,37.22 2.715,0 10.078,-0.39 10.078,-40.32 V 48.4609 H 656.785 V 11.25 H 1014.26 V 48.4609 H 954.555 V 1716.03 h 62.805 v 37.99 H 720.762 Z M 1733.48,50.0195 h 62.42 V 6.58984 H 1526.44 V 56.6016 C 1503.94,30.2383 1467.11,6.58984 1407.02,6.58984 h -63.59 c -193.08,0 -186.49,168.64816 -186.49,168.64816 v 287.703 c 0,131.039 65.53,189.188 126.4,214.008 10.46,5.821 48.46,21.711 150.04,21.711 0,0 54.29,-1.539 93.44,-24.808 v 16.277 427.271 c 0,39.16 -41.09,74.83 -91.11,74.83 -51.18,0 -88.01,-31.41 -88.01,-70.18 l -1.17,-312.878 h -180.67 v 261.308 c 7.37,118.26 86.07,150.82 212.47,150.82 h 125.23 c 131.43,0 229.92,-12.79 229.92,-161.28 z M 1526.82,579.629 c 0,41.492 -35.67,75.609 -79.48,75.609 h -19.39 c -43.8,0 -79.47,-34.117 -79.47,-75.609 V 155.082 128.719 c 0,-41.4885 35.67,-75.219 79.47,-75.219 h 19.39 c 43.43,0 78.32,32.9609 79.1,74.051 l 0.38,34.129 z m 3532.09,641.281 -54.28,0.39 v -0.39 c 0,0 -73.28,4.66 -113.99,-47.68 v 48.07 l -258.22,0.78 v -41.48 h 58.16 l 1.17,-1134.4594 h -67.08 V 0.390625 h 352.82 V 46.1406 h -76.77 V 1132.52 c 2.33,23.26 24.82,39.16 52.73,39.16 h 22.88 c 27.53,0 48.46,-15.9 60.48,-39.16 5.43,-15.12 8.53,-36.45 8.53,-65.91 V 792.879 h 179.9 v 184.172 c 0,60.869 3.1,115.919 -11.25,155.469 -29.85,53.5 -81.8,88.39 -155.08,88.39 z m -2745.8,0 -54.28,0.39 v -0.39 c 0,0 -72.89,4.66 -113.6,-47.68 v 48.07 l -258.61,0.78 v -41.48 h 58.55 l 1.16,-1134.4594 h -67.46 V 0.390625 h 352.82 V 46.1406 h -76.38 V 1132.52 c 2.33,23.26 24.81,39.16 52.34,39.16 h 23.26 c 27.53,0 48.08,-15.9 60.49,-39.16 5.04,-15.12 8.53,-36.45 8.53,-65.91 V 792.879 h 179.51 v 184.172 c 0,60.869 3.49,115.919 -11.25,155.469 -29.46,53.5 -81.8,88.39 -155.08,88.39 z M 3715.48,1018.92 V 227.969 C 3715.48,105.852 3649.56,7.75 3523.16,7.75 h -94.6 l 1.17,0.39063 c 0,0 -75.61,-5.42969 -118.26,48.46097 V 7.37109 L 3043.95,6.58984 V 48.4609 h 60.48 V 2284.42 h -74.82 v 38.77 l 283.03,0.39 -1.17,-1093.74 v -49.24 c 42.65,53.5 118.26,48.46 118.26,48.46 l -1.17,0.38 94.6,-0.38 c 29.48,0 55.06,-5.82 77.94,-15.51 75.22,-28.69 114.38,-101.19 114.38,-194.63 z m -203.56,84.9 c 0,41.49 -32.95,75.22 -74.05,75.22 h -53.11 c -37.22,0 -67.86,-27.53 -73.67,-63.58 l -0.78,-982.48 c 0,-41.48 32.96,-75.2105 74.45,-75.2105 h 53.11 c 41.1,0 74.05,33.7305 74.05,75.2105 v 954.57 16.27" /></g></g></svg>