<?xml version="1.0" encoding="utf-8"?>
<!-- Generator: Adobe Illustrator 27.0.0, SVG Export Plug-In . SVG Version: 6.00 Build 0)  -->
<svg version="1.1" id="Layer_1" xmlns="http://www.w3.org/2000/svg" xmlns:xlink="http://www.w3.org/1999/xlink" x="0px" y="0px"
     viewBox="0 0 1485.8 407.89" style="enable-background:new 0 0 1485.8 407.89;" xml:space="preserve">
<g>
	<path d="M289.12,328.03L101.87,32.04C94.22,20.06,81.43,0,51.34,0C26.52,0,0,13.9,0,52.9v321.03
		c0,16.43,13.6,29.75,30.38,29.75h0c16.78,0,30.38-13.32,30.38-29.75l0-297.13l187.7,296.81c11.27,18.06,23.67,34.28,51.16,34.28
		c30.53,0,50.26-22.21,50.26-56.59V33.96c0-16.43-13.6-29.75-30.38-29.75l0,0c-16.78,0-30.38,13.32-30.38,29.75V328.03z"/>
    <path d="M471.71,345.83c-0.21-0.85-0.36-1.79-0.36-2.42v-115.5h166.45c15.89,0,28.77-12.61,28.77-28.17l0,0
		c0-15.56-12.88-28.17-28.77-28.17H471.35V68.69c0-3.63,0.3-5.52,0.59-6.5c2.06-0.76,6.05-1.64,8.8-1.64H685.5
		c15.89,0,28.76-12.61,28.76-28.17l0,0c0-15.56-12.88-28.17-28.76-28.17H476.44c-16.94,0-36.29,1.49-51.42,19.27
		c-9.3,10.93-14.43,26.98-14.43,45.21v268.4c0,13.03,0,34.85,16.47,50.98c15.9,15.57,35.41,15.61,47.11,15.61l213.47-0.01
		c15.89,0,28.76-12.61,28.76-28.17l0,0c0-15.56-12.88-28.17-28.76-28.17h-202.6C480.93,347.34,475.13,346.6,471.71,345.83z"/>
    <path d="M1047.95,4.21L1047.95,4.21c-9.32,0-18.09,4.31-23.66,11.63L918.58,154.78L812.86,15.84
		c-5.57-7.32-14.34-11.63-23.66-11.63h0c-24.42,0-38.27,27.39-23.46,46.41l117.3,150.68L761.47,357.26
		c-14.82,19.01-0.98,46.42,23.45,46.42l0,0c9.31,0,18.07-4.3,23.64-11.6L918.58,247.8l110.02,144.27c5.57,7.3,14.33,11.6,23.64,11.6
		l0,0c24.43,0,38.27-27.41,23.45-46.42L954.12,201.3l117.3-150.68C1086.22,31.6,1072.37,4.21,1047.95,4.21z"/>
    <path d="M1110.13,32.38L1110.13,32.38c0,15.56,12.88,28.17,28.76,28.17h128.69v313.38c0,16.43,13.6,29.75,30.38,29.75
		l0,0c16.78,0,30.38-13.32,30.38-29.75V60.55h128.7c15.89,0,28.76-12.61,28.76-28.17l0,0c0-15.56-12.88-28.17-28.76-28.17h-318.15
		C1123.01,4.21,1110.13,16.82,1110.13,32.38z"/>
</g>
</svg>