<?xml version="1.0" encoding="UTF-8" standalone="no"?>
<svg
   xmlns:dc="http://purl.org/dc/elements/1.1/"
   xmlns:cc="http://creativecommons.org/ns#"
   xmlns:rdf="http://www.w3.org/1999/02/22-rdf-syntax-ns#"
   xmlns:svg="http://www.w3.org/2000/svg"
   xmlns="http://www.w3.org/2000/svg"
   viewBox="0 0 357.57333 48.626667"
   height="48.626667"
   width="357.57333"
   xml:space="preserve"
   id="svg2"
   version="1.1"><metadata
     id="metadata8"><rdf:RDF><cc:Work
         rdf:about=""><dc:format>image/svg+xml</dc:format><dc:type
           rdf:resource="http://purl.org/dc/dcmitype/StillImage" /></cc:Work></rdf:RDF></metadata><defs
     id="defs6" /><g
     transform="matrix(1.3333333,0,0,-1.3333333,0,48.626667)"
     id="g10"><g
       transform="scale(0.1)"
       id="g12"><path
         id="path14"
         fill="#231f20"
         style="fill-opacity:1;fill-rule:evenodd;stroke:none"
         d="m 2108.92,46.9141 0.18,-1.5743 -7.72,-37.40621 h -173.3 c -3.33,0 -3.5,3.69531 -3.5,3.69531 V 309.039 c 0,0 0.53,4.215 3.86,4.215 h 158.88 v -38.102 c 0,-2.984 -1.22,-2.984 -2.45,-1.226 -11.41,12.816 -17.73,15.625 -40.03,15.625 l -78.47,1.226 V 186.488 l 94.27,0.18 h 0.53 l 0.53,-0.355 c 1.05,-0.344 2.62,-1.223 2.62,-3.333 v -22.648 c 0,-3.16 -1.05,-3.863 -3.68,-1.582 -5.09,4.566 -9.13,5.27 -19.49,5.621 h -74.78 V 32.5156 c 13.16,-2.2773 25.27,-2.9804 67.06,-2.9804 44.07,0 61.97,1.2226 72.51,17.0273 l 0.87,0.8789 h 1.41 z M 1146.99,11.6289 c 2.45,-2.46093 1.92,-3.69531 -1.41,-3.69531 h -42.13 c -2.82,0 -3.52,3.69531 -3.52,3.69531 l -1.05,297.4101 c 0,0 1.05,4.215 4.21,4.215 h 34.24 l 1.76,-0.527 c 1.58,-0.879 1.58,-3.688 1.58,-3.688 l 0.52,-273.7109 c 0,-13.8672 0.53,-17.9101 5.8,-23.6992 z m 132.37,110.9571 51.97,118.68 49.86,-118.68 z M 1463.71,35.3281 1345.73,311.672 c -2.11,4.562 -3.34,7.898 -4.39,9.129 l -0.7,0.879 h -0.88 c -1.58,-0.528 -2.81,-3.864 -5.45,-9.832 L 1213.88,35.3281 c -6.15,-15.0976 -10.54,-23.6992 -10.54,-23.6992 0,0 -2.45,-3.69531 1.41,-3.69531 h 35.64 c 4.39,0 4.39,1.23438 1.93,3.69531 -6.85,5.7891 -5.1,13.5117 -0.88,23.6992 l 29.67,68.8239 h 118.51 l 29.14,-68.8239 c 3.51,-8.6054 2.29,-19.3164 -5.79,-23.6992 -2.81,-2.28906 -2.28,-3.69531 1.93,-3.69531 h 59.17 c 4.21,0 1.93,3.69531 1.93,3.69531 0,0 -5.09,8.7774 -12.29,23.6992 z m 345.52,286.5269 54.6,-313.73391 -45.82,-0.53515 c 0,0 -34.77,194.00806 -33.89,212.61306 -7.55,-28.617 -90.94,-205.9373 -90.94,-205.9373 l -5.1,-11.76561 c -2.46,-5.61718 -4.38,0 -4.38,0 l -2.46,5.625 -96.56,208.04291 -36,-209.27337 h -25.63 c 0,0 53.9,309.69537 54.43,314.61337 0,1.578 0.35,2.281 1.05,2.633 h 0.88 l 0.53,-0.699 0.7,-0.532 L 1683,109.59 c 0.17,-0.176 9.65,-20.3595 14.04,-32.1252 0,0 6.49,11.7657 10.54,22.4727 l 98.66,221.5665 c 0.35,1.402 0.88,1.934 1.4,2.105 h 0.71 l 0.35,-0.527 c 0.35,-0.176 0.53,-1.227 0.53,-1.227 z m 872.57,-8.601 v -38.629 c 0,-0.875 -0.52,-1.578 -1.23,-2.105 h -0.7 l -0.88,0.878 c -6.14,7.727 -14.57,15.274 -33.88,15.801 l -67.6,1.578 V 35.3281 c 0,-13.8672 0.35,-17.9101 5.62,-23.6992 2.11,-2.46093 1.58,-3.69531 -1.75,-3.69531 h -41.62 c -2.97,0 -3.85,3.69531 -3.85,3.69531 l -0.36,279.1481 -115.7,0.18 V 285.336 8.12109 c 0,-6.85546 -0.35,-7.03125 -5.61,-0.53515 L 2186.17,273.926 V 35.3281 c 0,-13.8672 0.18,-17.9101 5.62,-23.6992 2.28,-2.46093 1.93,-3.69531 -1.93,-3.69531 h -24.58 c -2.99,0 -2.99,3.69531 -2.99,3.69531 L 2163,309.039 c 0,0 -0.18,4.215 3.51,4.215 h 41.96 L 2396.5,93.2617 V 309.039 c 0,0 0.18,4.215 3.87,4.215 h 23.35 z M 1042.17,46.5625 1042.7,45.8633 V 44.6328 L 1036.73,7.93359 H 863.969 c -2.985,0 -3.512,3.69531 -3.512,3.69531 V 309.039 c 0,0 -0.703,4.215 2.285,4.215 h 36.871 l 1.578,-0.527 c 1.754,-0.879 1.754,-3.688 1.754,-3.688 L 902.07,29.5352 h 97.793 c 23.177,0 29.317,2.9804 40.377,16.3281 0,0.5234 0.35,0.6992 0.88,0.6992 z M 240.004,260.23 c 0,-54.25 -51.094,-103.414 -130.098,-102.183 -7.199,0.18 -13.3435,0.703 -19.8396,1.758 -4.0391,0.527 -3.6875,3.511 0.3516,4.039 54.602,7.371 96.387,34.41 93.402,95.156 -2.285,38.453 -20.89,67.949 -53.547,80.234 -15.976,5.797 -36.5191,7.723 -56.5347,7.723 l -25.6328,0.711 V 33.5703 C 48.1055,19 66.543,10.7461 61.0977,7.75781 H 0 V 364.164 l 88.8359,0.527 H 100.949 C 178.73,362.23 240.004,333.441 240.004,260.23 Z M 811.297,8.63672 h -31.953 c -21.239,0 -30.723,5.62498 -54.422,43.19528 l -33.535,55.301 c -5.442,8.957 -10.008,15.801 -14.571,21.246 -10.886,14.394 -24.23,21.594 -37.75,26.508 -2.984,1.41 -2.457,4.039 0,4.566 18.789,3.16 28.793,6.496 33.711,8.43 29.145,11.41 44.77,40.203 44.77,66.719 0,37.918 -27.211,59.164 -75.145,59.164 -9.656,0 -18.785,-0.879 -25.281,-2.11 V 9.33984 c 0,0 -0.176,-3.5039 -3.683,-3.5039 h -34.766 c -3.16,0 -3.688,3.5039 -3.688,3.5039 l 0.704,302.15616 h 77.601 l 13.168,-0.699 c 60.047,-4.391 91.82,-38.629 91.82,-73.567 0,-41.082 -28.968,-71.281 -62.855,-79.707 12.816,-9.48 21.07,-18.261 35.641,-40.378 l 51.445,-80.938 c 9.828,-14.7461 19.84,-20.0117 30.371,-23.8789 3.16,-0.6992 1.934,-3.69138 -1.582,-3.69138 z M 317.953,122.586 369.57,241.266 419.961,122.586 Z M 502.648,35.3281 384.32,311.672 l -4.039,9.129 -1.406,0.879 h -0.527 c -1.403,-0.528 -2.985,-3.864 -5.442,-9.832 L 252.117,35.3281 C 246.32,20.2305 241.578,11.6289 241.578,11.6289 c 0,0 -2.101,-3.69531 2.113,-3.69531 h 35.637 c 4.215,0 4.215,1.23438 1.754,3.69531 -7.195,5.7891 -5.613,13.5117 -0.875,23.6992 l 29.316,68.8239 H 427.859 L 457.18,35.3281 c 3.863,-8.6054 2.457,-19.3164 -5.793,-23.6992 -2.633,-2.28906 -2.282,-3.69531 2.277,-3.69531 h 58.82 c 4.391,0 1.926,3.69531 1.926,3.69531 0,0 -5.086,8.7774 -11.762,23.6992" /></g></g></svg>