<svg width="579" height="60" xmlns="http://www.w3.org/2000/svg" viewBox="0 0 579 60">

 <g>
  <title>background</title>
  <rect fill="none" id="canvas_background" height="62" width="581" y="-1" x="-1"/>
 </g>
 <g>
  <title>Layer 1</title>
  <path id="svg_1" fill="#231f20" d="m0.411146,1.164765l18.12,0c3,0 5.8,0.36 8.4,1.1c2.61,0.72 4.89,1.78 6.82,3.15c1.93,1.39 3.46,3.09 4.59,5.11c1.11,2.03 1.68,4.35 1.68,6.96c0,2.6 -0.55,4.85 -1.64,6.78c-1.1,1.91 -2.52,3.51 -4.3,4.78c-1.76,1.26 -3.76,2.21 -6.01,2.83c-2.26,0.63 -4.55,0.94 -6.88,0.94c-0.98,0 -2.02,-0.03 -3.12,-0.09c-1.09,-0.06 -2.14,-0.13 -3.17,-0.21c-1.02,-0.08 -1.95,-0.19 -2.82,-0.3c-0.85,-0.12 -1.55,-0.24 -2.07,-0.35l0,26.46l-9.6,0l0,-57.16zm9.6,27.46c1.08,0.31 2.25,0.62 3.51,0.89c1.25,0.27 2.51,0.42 3.77,0.42c2.08,0 3.89,-0.31 5.43,-0.94c1.54,-0.63 2.83,-1.47 3.86,-2.56c1.04,-1.07 1.8,-2.33 2.32,-3.77c0.51,-1.45 0.76,-2.98 0.76,-4.61c0,-1.92 -0.33,-3.66 -1,-5.24c-0.67,-1.57 -1.58,-2.91 -2.74,-4.02c-1.13,-1.11 -2.5,-1.96 -4.07,-2.55c-1.57,-0.59 -3.26,-0.89 -5.03,-0.89l-6.81,0l0,23.27zm55.03,2.27l0,27.42l-9.61,0l0,-57.15l9.61,0l0,26.02l28.74,0l0,-26.02l9.61,0l0,57.15l-9.61,0l0,-27.42l-28.74,0zm56.94,-29.73l9.62,0l0,57.15l-9.62,0l0,-57.15zm28.2,0l9.61,0l0,53.44l28.77,0l0,3.71l-38.38,0l0,-57.15zm48.35,0l9.61,0l0,57.15l-9.61,0l0,-57.15zm28.21,0l18.11,0c3.01,0 5.81,0.36 8.42,1.1c2.6,0.72 4.86,1.78 6.8,3.15c1.95,1.39 3.46,3.09 4.59,5.11c1.11,2.03 1.68,4.35 1.68,6.96c0,2.6 -0.54,4.85 -1.63,6.78c-1.1,1.91 -2.52,3.51 -4.28,4.78c-1.77,1.26 -3.76,2.21 -6.02,2.83c-2.26,0.63 -4.56,0.94 -6.89,0.94c-0.99,0 -2.02,-0.03 -3.11,-0.09c-1.1,-0.06 -2.15,-0.13 -3.17,-0.21c-1.02,-0.08 -1.96,-0.19 -2.83,-0.3c-0.84,-0.12 -1.54,-0.24 -2.07,-0.35l0,26.46l-9.59,0l0,-57.16l-0.01,0zm9.6,27.46c1.09,0.31 2.24,0.62 3.51,0.89c1.24,0.27 2.5,0.42 3.78,0.42c2.08,0 3.87,-0.31 5.42,-0.94c1.54,-0.63 2.83,-1.47 3.86,-2.56c1.04,-1.07 1.8,-2.33 2.31,-3.77c0.51,-1.45 0.77,-2.98 0.77,-4.61c0,-1.92 -0.33,-3.66 -1.02,-5.24c-0.66,-1.57 -1.58,-2.91 -2.72,-4.02c-1.15,-1.11 -2.51,-1.96 -4.08,-2.55c-1.57,-0.59 -3.24,-0.89 -5.02,-0.89l-6.81,0l0,23.27zm56.57,-27.41l9.83,0l22.27,43.83l0.44,0l21.83,-43.83l9.66,0l0,57.15l-9.66,0l0,-46.85l-0.3,0l-23.44,46.85l-1.98,0l-23.74,-46.5l-0.64,0l0,46.5l-4.26,0l0,-57.15l-0.01,0zm103.52,58.5c-2.96,0 -5.78,-0.37 -8.47,-1.09c-2.72,-0.73 -5.24,-1.75 -7.58,-3.06c-2.34,-1.31 -4.46,-2.89 -6.37,-4.74c-1.92,-1.85 -3.54,-3.9 -4.87,-6.13c-1.33,-2.24 -2.39,-4.65 -3.12,-7.22c-0.74,-2.58 -1.12,-5.26 -1.12,-8.05c0,-4.11 0.81,-7.94 2.42,-11.53c1.62,-3.58 3.86,-6.7 6.69,-9.37c2.84,-2.66 6.17,-4.76 10.02,-6.31c3.84,-1.54 7.97,-2.31 12.41,-2.31c4.42,0 8.55,0.77 12.38,2.31c3.85,1.54 7.18,3.65 10.03,6.31c2.84,2.67 5.07,5.79 6.67,9.37c1.61,3.58 2.42,7.42 2.42,11.53c0,2.76 -0.36,5.44 -1.11,8.03c-0.73,2.59 -1.79,5 -3.11,7.24c-1.34,2.24 -2.95,4.28 -4.86,6.13c-1.93,1.85 -4.03,3.43 -6.37,4.74c-2.36,1.31 -4.87,2.33 -7.58,3.06c-2.72,0.72 -5.56,1.09 -8.48,1.09zm0,-2.88c3.23,0 6.14,-0.69 8.66,-2.05c2.51,-1.37 4.64,-3.27 6.32,-5.72c1.72,-2.45 3,-5.34 3.88,-8.69c0.88,-3.35 1.35,-7 1.35,-10.95c0,-3.93 -0.47,-7.53 -1.35,-10.81c-0.88,-3.28 -2.16,-6.1 -3.88,-8.45c-1.68,-2.36 -3.81,-4.19 -6.32,-5.49c-2.52,-1.31 -5.43,-1.97 -8.66,-1.97c-3.33,0 -6.26,0.66 -8.78,1.97c-2.53,1.31 -4.65,3.14 -6.37,5.49c-1.7,2.35 -2.97,5.18 -3.84,8.45c-0.87,3.27 -1.28,6.87 -1.28,10.81c0,3.96 0.42,7.61 1.28,10.95c0.86,3.35 2.14,6.25 3.84,8.69c1.72,2.45 3.84,4.35 6.37,5.72c2.52,1.36 5.45,2.05 8.78,2.05zm122.81,-55.62l9.61,0l0,57.15l-9.61,0l0,-57.15zm39.64,54.83c1.42,0 2.83,-0.2 4.2,-0.59c1.37,-0.39 2.6,-0.97 3.66,-1.73c1.09,-0.76 1.96,-1.68 2.62,-2.8c0.67,-1.1 1.01,-2.38 1.01,-3.85c0,-1.74 -0.46,-3.29 -1.36,-4.64c-0.9,-1.35 -2.09,-2.61 -3.56,-3.75c-1.46,-1.15 -3.14,-2.22 -5.03,-3.21c-1.86,-0.99 -3.79,-1.99 -5.75,-3.01c-1.97,-1.01 -3.89,-2.08 -5.77,-3.18c-1.86,-1.11 -3.54,-2.34 -5.01,-3.7c-1.48,-1.35 -2.65,-2.87 -3.55,-4.56c-0.92,-1.69 -1.36,-3.62 -1.36,-5.81c0,-2.18 0.41,-4.2 1.23,-6.07c0.81,-1.86 2.01,-3.48 3.61,-4.87c1.58,-1.37 3.53,-2.46 5.85,-3.23c2.3,-0.77 4.96,-1.15 7.97,-1.15c2.7,0 5.12,0.29 7.25,0.87c2.12,0.58 3.98,1.42 5.58,2.52c1.6,1.11 2.97,2.49 4.09,4.15c1.13,1.66 2.03,3.55 2.73,5.67l-4.94,2.27c-0.57,-1.77 -1.32,-3.38 -2.19,-4.82c-0.89,-1.44 -1.95,-2.67 -3.19,-3.71c-1.24,-1.03 -2.65,-1.83 -4.28,-2.4c-1.61,-0.57 -3.44,-0.85 -5.48,-0.85c-1.8,0 -3.38,0.25 -4.73,0.76c-1.37,0.51 -2.47,1.17 -3.36,1.97c-0.89,0.8 -1.55,1.72 -2.02,2.74c-0.44,1.03 -0.66,2.08 -0.66,3.12c0,1.51 0.45,2.9 1.38,4.15c0.94,1.25 2.17,2.43 3.68,3.54c1.52,1.1 3.24,2.17 5.17,3.21c1.93,1.04 3.91,2.08 5.91,3.14c2.01,1.06 3.99,2.17 5.92,3.32c1.94,1.15 3.66,2.41 5.17,3.78c1.53,1.37 2.74,2.86 3.66,4.49c0.96,1.63 1.4,3.45 1.4,5.46c0,2.27 -0.43,4.4 -1.28,6.4c-0.87,1.99 -2.15,3.73 -3.86,5.22c-1.71,1.48 -3.86,2.65 -6.41,3.51c-2.57,0.85 -5.55,1.29 -8.96,1.29c-2.74,0 -5.19,-0.3 -7.35,-0.92c-2.17,-0.62 -4.09,-1.5 -5.74,-2.65c-1.66,-1.15 -3.1,-2.55 -4.26,-4.21c-1.19,-1.66 -2.16,-3.53 -2.92,-5.62l5.21,-2.14c0.58,1.86 1.38,3.53 2.4,4.99c1.02,1.47 2.2,2.72 3.56,3.74c1.34,1.02 2.86,1.79 4.51,2.33c1.63,0.57 3.4,0.83 5.25,0.83zm-106.06,-25.41c2.11,-0.49 4.01,-1.2 5.73,-2.11c1.72,-0.92 3.18,-2 4.41,-3.23c1.22,-1.24 2.17,-2.63 2.84,-4.2c0.67,-1.55 1,-3.21 1,-4.99c0,-2.19 -0.45,-4.18 -1.3,-6c-0.88,-1.82 -2.2,-3.38 -3.92,-4.69c-1.73,-1.31 -3.88,-2.34 -6.48,-3.08c-2.56,-0.74 -5.56,-1.11 -9.01,-1.11l-19.81,0l0,3.53l16.39,0l0,0l1.69,0c1.77,0 3.39,0.29 4.85,0.87c1.48,0.58 2.75,1.39 3.81,2.41c1.06,1.01 1.9,2.24 2.49,3.68c0.59,1.44 0.89,3 0.89,4.69c0,1.87 -0.36,3.55 -1.12,5.07c-0.77,1.5 -1.81,2.79 -3.14,3.85c-1.3,1.07 -2.89,1.89 -4.73,2.45c-1.46,0.45 -3.05,0.72 -4.73,0.81l0,2.91l19.84,26.87l11.09,0l-20.79,-27.73zm41.37,0c2.12,-0.49 4.02,-1.2 5.74,-2.11c1.72,-0.92 3.19,-2 4.42,-3.23c1.2,-1.24 2.16,-2.63 2.83,-4.2c0.67,-1.55 1,-3.21 1,-4.99c0,-2.19 -0.42,-4.18 -1.3,-6c-0.88,-1.82 -2.19,-3.38 -3.91,-4.69c-1.74,-1.31 -3.89,-2.34 -6.47,-3.08c-2.57,-0.74 -5.59,-1.11 -9.01,-1.11l-19.83,0l0,3.53l16.4,0l0,0l1.69,0c1.77,0 3.38,0.29 4.86,0.87c1.47,0.58 2.72,1.39 3.79,2.41c1.08,1.01 1.89,2.24 2.49,3.68c0.6,1.44 0.89,3 0.89,4.69c0,1.87 -0.38,3.55 -1.12,5.07c-0.76,1.5 -1.81,2.79 -3.13,3.85c-1.33,1.07 -2.92,1.89 -4.74,2.45c-1.47,0.45 -3.04,0.72 -4.73,0.81l0,2.91l19.85,26.87l11.07,0l-20.79,-27.73z"/>
 </g>
</svg>