<svg width="133" height="132" viewBox="0 0 133 132" fill="none" xmlns="http://www.w3.org/2000/svg">
<ellipse cx="66.0469" cy="65.5376" rx="66" ry="65.5" fill="url(#paint0_linear_113_31555)"/>
<path d="M78.6313 121.896C69.8263 123.798 60.682 123.604 51.9338 121.329C43.1857 119.055 35.078 114.762 28.2628 108.798C21.4477 102.833 16.1153 95.3634 12.6948 86.9885C9.27415 78.6137 7.86077 69.5679 8.5683 60.5787" stroke="white" stroke-width="2.17227"/>
<path d="M77.5289 116.958C69.4953 118.693 61.1521 118.516 53.1704 116.441C45.1886 114.365 37.7912 110.449 31.5732 105.007C25.3551 99.5652 20.4899 92.7496 17.369 85.1084C14.2481 77.4673 12.9585 69.214 13.6041 61.0124" stroke="white" stroke-width="2.37735"/>
<path d="M53.46 9.17726C62.265 7.2748 71.4094 7.46883 80.1575 9.74375C88.9056 12.0187 97.0133 16.311 103.828 22.2754C110.644 28.2398 115.976 35.7099 119.397 44.0847C122.817 52.4595 124.231 61.5053 123.523 70.4945" stroke="white" stroke-width="2.17227"/>
<path d="M54.5643 14.1156C62.598 12.3798 70.9412 12.5568 78.9229 14.6324C86.9046 16.708 94.302 20.6243 100.52 26.0662C106.738 31.5081 111.603 38.3237 114.724 45.9648C117.845 53.6059 119.135 61.8592 118.489 70.0609" stroke="white" stroke-width="2.37735"/>
<path d="M36.7099 46.077C36.6563 46.1574 35.8392 46.3449 34.2585 46.6396C32.7045 46.9343 31.6329 47.1353 31.0435 47.2424V43.9872C34.312 43.2103 36.5491 42.0314 37.7548 40.4507H41.0099V73.0026H36.7099V46.077Z" fill="white"/>
<path d="M56.1801 73.3642C53.5009 73.3642 51.4781 72.4935 50.1118 70.7521C48.7722 69.0106 48.1024 66.6797 48.1024 63.7594V49.734C48.1024 46.7602 48.7588 44.4293 50.0716 42.7414C51.4111 41.0268 53.4473 40.1694 56.1801 40.1694C58.886 40.1694 60.8954 41.0268 62.2082 42.7414C63.5478 44.4293 64.2175 46.7602 64.2175 49.734V63.7594C64.2175 66.7065 63.5478 69.0508 62.2082 70.7922C60.8686 72.5069 58.8592 73.3642 56.1801 73.3642ZM56.1801 69.8277C58.6449 69.8277 59.8773 67.8184 59.8773 63.7996V49.6939C59.8773 47.8452 59.6094 46.3851 59.0736 45.3134C58.5645 44.215 57.6 43.6657 56.1801 43.6657C54.7601 43.6657 53.7822 44.215 53.2464 45.3134C52.7105 46.3851 52.4426 47.8452 52.4426 49.6939V63.7996C52.4426 67.8184 53.6884 69.8277 56.1801 69.8277Z" fill="white"/>
<path d="M76.9409 73.3642C74.2618 73.3642 72.239 72.4935 70.8726 70.7521C69.5331 69.0106 68.8633 66.6797 68.8633 63.7594V49.734C68.8633 46.7602 69.5197 44.4293 70.8324 42.7414C72.172 41.0268 74.2082 40.1694 76.9409 40.1694C79.6469 40.1694 81.6563 41.0268 82.969 42.7414C84.3086 44.4293 84.9784 46.7602 84.9784 49.734V63.7594C84.9784 66.7065 84.3086 69.0508 82.969 70.7922C81.6295 72.5069 79.6201 73.3642 76.9409 73.3642ZM76.9409 69.8277C79.4058 69.8277 80.6382 67.8184 80.6382 63.7996V49.6939C80.6382 47.8452 80.3703 46.3851 79.8344 45.3134C79.3254 44.215 78.3609 43.6657 76.9409 43.6657C75.521 43.6657 74.5431 44.215 74.0073 45.3134C73.4714 46.3851 73.2035 47.8452 73.2035 49.6939V63.7996C73.2035 67.8184 74.4493 69.8277 76.9409 69.8277Z" fill="white"/>
<path d="M93.7022 62.3644V65.6176H100.664V67.5696H93.7022V73.0026H90.026V67.5696H88.2042V65.6176H90.026V46.6511H96.5651C98.8424 46.6511 100.491 47.3451 101.51 48.7332C102.551 50.0996 103.072 52.1057 103.072 54.7517C103.072 57.1375 102.519 59.0027 101.412 60.3473C100.306 61.692 98.7014 62.3644 96.5976 62.3644H93.7022ZM93.7022 59.7292H95.3939C96.4783 59.7292 97.3133 59.5882 97.8989 59.3063C98.5062 59.0243 98.94 58.5364 99.2002 57.8423C99.4605 57.1266 99.5906 56.1073 99.5906 54.7843C99.5906 53.2227 99.493 52.0732 99.2978 51.3358C99.1026 50.5767 98.7122 50.0453 98.1267 49.7417C97.5628 49.4381 96.6627 49.2862 95.4264 49.2862H93.7022V59.7292Z" fill="white"/>
<path d="M36.4365 80.4004H38.1622V85.898H38.8036L41.0179 80.4004H42.7436L40.3002 86.2798L43.049 92.7701H41.3233L38.8188 86.7379H38.1622V92.7701H36.4365V80.4004Z" fill="white"/>
<path d="M46.1462 80.4004H47.8108L50.4527 92.7701H48.8187L48.2536 89.6548H45.7339L45.1383 92.7701H43.5195L46.1462 80.4004ZM48.0246 88.4178L46.9861 82.8438L45.9629 88.4178H48.0246Z" fill="white"/>
<path d="M53.6778 86.4478L51.097 80.4004H52.7615L55.0828 86.3714H55.1744V80.4004H56.6404V86.3714H56.7473L59.0533 80.4004H60.7331L58.137 86.4478L61.0233 92.7701H59.3282L56.7626 86.5852H56.6404V92.7701H55.1744V86.5852H55.0675L52.4866 92.7701H50.8068L53.6778 86.4478Z" fill="white"/>
<path d="M61.2338 91.5331H61.7988C62.1551 91.2379 62.4504 90.8663 62.6845 90.4183C62.9289 89.9704 63.1427 89.2475 63.3259 88.2498C63.5194 87.2419 63.6568 85.8471 63.7382 84.0655L63.9368 80.4004H69.1137V91.5331H70.3049V95.015H68.9763L68.8389 92.7701H62.6998L62.5624 95.015H61.2338V91.5331ZM67.4034 91.5331V81.6831H65.4028L65.2806 84.4778C65.2094 86.1984 65.0872 87.5219 64.9141 88.4483C64.7411 89.3748 64.5425 90.0314 64.3186 90.4183C64.0946 90.795 63.7892 91.1666 63.4023 91.5331H67.4034Z" fill="white"/>
<path d="M74.7634 92.9075C73.5519 92.9075 72.6814 92.5665 72.152 91.8844C71.6328 91.1921 71.3732 90.1943 71.3732 88.8912V84.2029C71.3732 82.9201 71.6379 81.9478 72.1673 81.2861C72.6967 80.6243 73.5621 80.2935 74.7634 80.2935C75.9647 80.2935 76.825 80.6294 77.3443 81.3014C77.8737 81.9631 78.1384 82.9303 78.1384 84.2029V88.9065C78.1384 90.1893 77.8737 91.1768 77.3443 91.8691C76.8148 92.5614 75.9546 92.9075 74.7634 92.9075ZM74.7634 91.5484C75.4048 91.5484 75.8375 91.3601 76.0615 90.9834C76.2854 90.6067 76.3974 90.0365 76.3974 89.273V83.8517C76.3974 83.0983 76.2854 82.5434 76.0615 82.1871C75.8375 81.8206 75.4048 81.6373 74.7634 81.6373C74.1118 81.6373 73.6741 81.8206 73.4501 82.1871C73.2261 82.5434 73.1141 83.0983 73.1141 83.8517V89.273C73.1141 90.0365 73.2261 90.6067 73.4501 90.9834C73.6741 91.3601 74.1118 91.5484 74.7634 91.5484Z" fill="white"/>
<path d="M80.033 80.4004H81.7281L83.9119 90.4336L86.1109 80.4004H87.7908L88.0198 92.7701H86.6301L86.4927 83.7906L84.4005 92.7701H83.4232L81.3463 83.7906L81.2088 92.7701H79.8039L80.033 80.4004Z" fill="white"/>
<path d="M89.7631 93.3199C90.038 93.3504 90.2773 93.3657 90.4809 93.3657C90.9798 93.3657 91.3208 93.2842 91.5041 93.1213C91.6975 92.9584 91.7942 92.6988 91.7942 92.3425C91.7942 92.1389 91.7586 91.8233 91.6873 91.3957L89.2439 80.4004H90.878L91.9164 85.669L92.5425 89.5937L93.0923 85.6995L94.0238 80.4004H95.6731L93.4588 91.4262L93.3366 92.1134C93.2043 92.8363 93.0719 93.3606 92.9396 93.6864C92.8174 94.0122 92.5782 94.2565 92.2218 94.4194C91.8655 94.5925 91.3157 94.679 90.5725 94.679C90.4402 94.679 90.1704 94.6688 89.7631 94.6485V93.3199Z" fill="white"/>
<path d="M96.6283 83.1246L97.3522 82.1075L96.271 81.6952L96.5092 81.0721L97.5446 81.6219L97.4347 80.3574H98.1768L98.0577 81.6219L99.1023 81.0721L99.3314 81.6952L98.2501 82.1167L98.9832 83.1246L98.3876 83.4728L97.8012 82.3274L97.2056 83.4728L96.6283 83.1246Z" fill="white"/>
<path d="M100.554 83.1246L101.278 82.1075L100.197 81.6952L100.435 81.0721L101.47 81.6219L101.36 80.3574H102.103L101.983 81.6219L103.028 81.0721L103.257 81.6952L102.176 82.1167L102.909 83.1246L102.313 83.4728L101.727 82.3274L101.131 83.4728L100.554 83.1246Z" fill="white"/>
<defs>
<linearGradient id="paint0_linear_113_31555" x1="66.0469" y1="0.0375984" x2="71.9825" y2="35.1961" gradientUnits="userSpaceOnUse">
<stop stop-color="#EB5C24"/>
<stop offset="1" stop-color="#F07E23"/>
</linearGradient>
</defs>
</svg>
