<svg width="755" height="462" viewBox="0 0 755 462" fill="none" xmlns="http://www.w3.org/2000/svg">
<rect width="550.67" height="67.52" transform="matrix(0.962455 -0.271441 0 1 0 312.964)" fill="url(#paint0_linear)"/>
<rect width="310.664" height="68.52" transform="matrix(0.962455 -0.271441 0 1 0 386.964)" fill="url(#paint1_linear)"/>
<rect width="262.483" height="22.8421" transform="matrix(0.962455 -0.271441 0 1 482 388.964)" fill="url(#paint2_linear)"/>
<path d="M311.346 351.396C314.292 350.746 316.371 350.249 317.583 349.907C317.849 349.833 318.057 349.696 318.207 349.498C318.369 349.284 318.449 349.039 318.449 348.763V348.043C318.449 347.323 318.103 347.061 317.41 347.256L313.252 348.429V345.909L317.063 344.834C317.756 344.639 318.103 344.181 318.103 343.461V343.101C318.103 342.381 317.756 342.119 317.063 342.314L311.52 343.878V341.358L317.93 339.55C319.062 339.231 319.893 339.266 320.424 339.656C320.956 340.034 321.221 340.769 321.221 341.861C321.221 342.581 321.06 343.215 320.736 343.762C320.424 344.294 320.009 344.723 319.489 345.05C320.424 345.05 321.06 345.519 321.395 346.457C321.51 346.796 321.568 347.212 321.568 347.704V347.884C321.568 349.06 321.302 349.999 320.771 350.7C320.24 351.402 319.408 351.913 318.276 352.232C316.347 352.776 314.038 353.307 311.346 353.826V351.396ZM332.303 345.396C332.303 346.296 332.054 347.074 331.558 347.73C331.073 348.371 330.397 348.814 329.531 349.058L325.546 350.182C324.68 350.426 323.999 350.366 323.502 350.002C323.017 349.623 322.774 348.983 322.774 348.083V343.943C322.774 343.043 323.017 342.273 323.502 341.632C323.999 340.976 324.68 340.526 325.546 340.282L329.531 339.158C330.397 338.914 331.073 338.981 331.558 339.36C332.054 339.724 332.303 340.356 332.303 341.256V345.396ZM329.271 342.381C329.271 341.901 329.04 341.726 328.578 341.857L326.499 342.443C326.037 342.573 325.806 342.878 325.806 343.358V346.958C325.806 347.438 326.037 347.613 326.499 347.483L328.578 346.897C329.04 346.766 329.271 346.461 329.271 345.981V342.381ZM340.443 345.8L333.86 347.657V338.117L339.923 336.407C340.697 336.189 341.321 336.253 341.794 336.599C342.279 336.93 342.522 337.39 342.522 337.978C342.522 338.566 342.401 339.08 342.158 339.521C341.916 339.961 341.575 340.309 341.136 340.565C341.656 340.514 342.1 340.653 342.47 340.981C342.851 341.305 343.042 341.827 343.042 342.547C343.042 343.267 342.799 343.936 342.314 344.553C341.84 345.166 341.217 345.582 340.443 345.8ZM340.01 342.862C340.01 342.682 339.952 342.549 339.837 342.461C339.721 342.374 339.577 342.355 339.404 342.403L336.892 343.112V344.642L339.404 343.933C339.577 343.885 339.721 343.784 339.837 343.631C339.952 343.479 340.01 343.312 340.01 343.132V342.862ZM339.49 339.319C339.49 339.139 339.432 339.005 339.317 338.918C339.201 338.83 339.057 338.811 338.884 338.86L336.892 339.422V341.042L338.884 340.48C339.057 340.431 339.201 340.33 339.317 340.178C339.432 340.025 339.49 339.859 339.49 339.679V339.319ZM350.224 333.502L353.429 332.598V342.138L350.398 342.993V337.773L347.453 343.823L344.248 344.727V335.187L347.279 334.332V339.552L350.224 333.502ZM364.425 334.537C364.367 335.393 364.136 336.148 363.732 336.802L366.764 335.947V331.267L364.598 331.878L364.425 334.537ZM369.795 327.982V335.092L371.095 334.726V339.316L368.219 340.127L368.046 338.016L362.71 339.52L362.537 341.729L359.661 342.54V337.95L360.787 337.633C361.249 336.939 361.509 336.235 361.566 335.523L361.913 330.205L369.795 327.982ZM377.425 328.26C376.813 328.433 376.12 328.748 375.347 329.207V333.527L377.945 332.794C378.407 332.663 378.638 332.358 378.638 331.878V328.548C378.638 328.368 378.58 328.234 378.465 328.147C378.349 328.06 378.205 328.04 378.032 328.089L377.425 328.26ZM375.347 335.957V339.017L372.315 339.872V327.272L375 326.514L375.173 327.365C375.716 326.84 376.27 326.414 376.836 326.086C377.414 325.743 377.899 325.517 378.292 325.406L379.071 325.186C379.857 324.965 380.486 325.033 380.96 325.391C381.433 325.75 381.67 326.337 381.67 327.153V331.293C381.67 332.193 381.422 332.971 380.925 333.627C380.44 334.268 379.764 334.711 378.898 334.955L375.347 335.957ZM385.483 336.338C384.871 336.51 384.12 336.662 383.231 336.793V334.453L384.79 334.013C385.229 333.889 385.512 333.684 385.639 333.396C385.778 333.105 385.755 332.757 385.57 332.353L382.018 324.535L385.223 323.631L387.389 329.14L389.208 322.507L392.413 321.603L388.948 332.481C388.613 333.523 388.18 334.359 387.649 334.989C387.117 335.631 386.396 336.08 385.483 336.338ZM392.418 328.802C394.624 328.36 396.357 327.961 397.616 327.606C397.789 327.557 397.933 327.456 398.049 327.304C398.164 327.151 398.222 326.985 398.222 326.805V326.535C398.222 326.355 398.164 326.221 398.049 326.134C397.933 326.046 397.789 326.027 397.616 326.076L393.804 327.151V324.901L397.269 323.924C397.442 323.875 397.587 323.774 397.702 323.622C397.818 323.469 397.875 323.303 397.875 323.123V322.943C397.875 322.763 397.818 322.629 397.702 322.542C397.587 322.454 397.442 322.435 397.269 322.484L392.592 323.803V321.553L398.309 319.941C399.082 319.722 399.706 319.786 400.18 320.133C400.665 320.464 400.907 320.924 400.907 321.512C400.907 322.712 400.387 323.59 399.348 324.147C399.868 324.097 400.312 324.235 400.682 324.563C401.063 324.888 401.254 325.434 401.254 326.202C401.254 326.97 401.017 327.667 400.543 328.292C400.07 328.918 399.44 329.341 398.655 329.563C396.726 330.107 394.647 330.573 392.418 330.962V328.802ZM406.014 319.837C405.552 319.968 405.321 320.273 405.321 320.753V321.743L408.267 320.912V319.922C408.267 319.442 408.036 319.267 407.574 319.398L406.014 319.837ZM410.952 325.735C408.723 326.603 406.702 327.293 404.888 327.805C404.103 328.026 403.474 327.958 403 327.599C402.526 327.241 402.29 326.654 402.29 325.838V321.518C402.29 320.618 402.532 319.847 403.017 319.207C403.514 318.55 404.195 318.1 405.062 317.856L408.526 316.879C409.393 316.635 410.068 316.702 410.553 317.081C411.05 317.445 411.298 318.077 411.298 318.977V322.307L405.321 323.993V324.713C405.321 324.893 405.379 325.026 405.495 325.114C405.61 325.201 405.755 325.221 405.928 325.172C407.071 324.849 408.746 324.287 410.952 323.485V325.735ZM416.489 313.913C414.987 314.337 414.237 313.768 414.237 312.208V311.668L416.489 311.033V311.483C416.489 311.663 416.547 311.797 416.662 311.884C416.778 311.972 416.922 311.991 417.095 311.942L417.615 311.796C417.788 311.747 417.932 311.646 418.048 311.493C418.163 311.341 418.221 311.175 418.221 310.995V310.545L420.473 309.909V310.449C420.473 312.009 419.723 313.001 418.221 313.425L416.489 313.913ZM418.828 314.154L422.033 313.25V322.79L419.001 323.645V318.425L416.056 324.475L412.851 325.379V315.839L415.882 314.984V320.204L418.828 314.154ZM428.267 314.461V316.711L426.102 317.322V315.072L424.109 316.804L423.07 315.297L425.149 313.451L423.07 312.777L424.109 310.684L426.102 311.292V309.042L428.267 308.431V310.681L430.259 308.949L431.299 310.456L429.22 312.303L431.299 312.976L430.259 315.069L428.267 314.461ZM443.684 310.653V307.143L446.716 306.288V315.828L443.684 316.683V313.083L440.566 313.963V317.563L437.534 318.418V308.878L440.566 308.023V311.533L443.684 310.653ZM452.085 311.974C452.697 311.802 453.39 311.486 454.163 311.028V309.948L451.651 310.656C451.478 310.705 451.334 310.806 451.218 310.958C451.103 311.111 451.045 311.277 451.045 311.457V311.637C451.045 311.817 451.103 311.951 451.218 312.038C451.334 312.126 451.478 312.145 451.651 312.096L452.085 311.974ZM448.88 305.858C450.993 305.022 452.899 304.365 454.597 303.886C455.382 303.664 456.011 303.733 456.485 304.091C456.958 304.45 457.195 305.037 457.195 305.853V312.873L454.51 313.63L454.337 312.779C453.794 313.304 453.234 313.738 452.656 314.081C452.09 314.409 451.611 314.628 451.218 314.738L450.612 314.909C449.827 315.131 449.197 315.062 448.724 314.704C448.25 314.346 448.013 313.758 448.013 312.942V312.132C448.013 311.316 448.25 310.596 448.724 309.97C449.197 309.344 449.827 308.921 450.612 308.699L454.163 307.698V306.978C454.163 306.798 454.106 306.664 453.99 306.577C453.875 306.489 453.73 306.47 453.557 306.519C452.806 306.731 451.975 307.001 451.062 307.33C450.162 307.656 449.434 307.916 448.88 308.108V305.858ZM472.086 308.493C469.926 309.342 468.021 310 466.369 310.466C465.584 310.687 464.954 310.619 464.481 310.26C464.007 309.902 463.77 309.314 463.77 308.498V304.358C463.77 303.458 464.013 302.688 464.498 302.047C464.995 301.391 465.676 300.941 466.542 300.697L472.086 299.133V301.563L467.495 302.858C467.033 302.988 466.802 303.293 466.802 303.773V307.283C466.802 307.463 466.86 307.597 466.975 307.685C467.091 307.772 467.235 307.791 467.408 307.742C468.448 307.449 470.007 306.92 472.086 306.153V308.493ZM477.107 304.917C477.719 304.745 478.412 304.429 479.185 303.971V302.891L476.673 303.599C476.5 303.648 476.356 303.749 476.24 303.902C476.125 304.054 476.067 304.22 476.067 304.4V304.58C476.067 304.76 476.125 304.894 476.24 304.982C476.356 305.069 476.5 305.088 476.673 305.039L477.107 304.917ZM473.902 298.801C476.015 297.965 477.921 297.308 479.619 296.829C480.404 296.607 481.033 296.676 481.507 297.034C481.98 297.393 482.217 297.98 482.217 298.796V305.816L479.532 306.573L479.359 305.722C478.816 306.247 478.256 306.681 477.678 307.024C477.112 307.352 476.633 307.571 476.24 307.682L475.634 307.853C474.849 308.074 474.219 308.006 473.746 307.647C473.272 307.289 473.035 306.701 473.035 305.885V305.075C473.035 304.259 473.272 303.539 473.746 302.913C474.219 302.288 474.849 301.864 475.634 301.643L479.185 300.641V299.921C479.185 299.741 479.128 299.607 479.012 299.52C478.897 299.432 478.752 299.413 478.579 299.462C477.828 299.674 476.997 299.944 476.084 300.274C475.184 300.6 474.456 300.859 473.902 301.051V298.801ZM487.41 293.911C485.908 294.335 485.158 293.767 485.158 292.207V291.667L487.41 291.031V291.481C487.41 291.661 487.467 291.795 487.583 291.883C487.698 291.97 487.843 291.989 488.016 291.94L488.536 291.794C488.709 291.745 488.853 291.644 488.969 291.492C489.084 291.339 489.142 291.173 489.142 290.993V290.543L491.394 289.908V290.448C491.394 292.008 490.644 292.999 489.142 293.423L487.41 293.911ZM489.748 294.152L492.953 293.248V302.788L489.922 303.643V298.423L486.977 304.474L483.772 305.377V295.837L486.803 294.982V300.202L489.748 294.152ZM499.881 293.724V300.834L496.849 301.689V294.579L493.991 295.385V292.955L502.74 290.488V292.918L499.881 293.724ZM503.439 297.131L506.558 296.251V298.951L503.439 299.831V297.131ZM503.439 290.291L506.558 289.411V292.111L503.439 292.991V290.291ZM512.622 294.901C514.828 294.459 516.56 294.06 517.819 293.705C517.992 293.656 518.137 293.556 518.252 293.403C518.368 293.25 518.425 293.084 518.425 292.904V292.634C518.425 292.454 518.368 292.32 518.252 292.233C518.137 292.146 517.992 292.126 517.819 292.175L514.008 293.25V291L517.473 290.023C517.646 289.974 517.79 289.873 517.906 289.721C518.021 289.568 518.079 289.402 518.079 289.222V289.042C518.079 288.862 518.021 288.728 517.906 288.641C517.79 288.553 517.646 288.534 517.473 288.583L512.795 289.902V287.652L518.512 286.04C519.286 285.821 519.91 285.886 520.383 286.232C520.868 286.563 521.111 287.023 521.111 287.611C521.111 288.811 520.591 289.689 519.552 290.247C520.071 290.196 520.516 290.335 520.885 290.662C521.267 290.987 521.457 291.533 521.457 292.301C521.457 293.069 521.22 293.766 520.747 294.391C520.273 295.017 519.644 295.44 518.859 295.662C516.93 296.206 514.851 296.672 512.622 297.061V294.901ZM526.568 288.808C526.511 289.664 526.28 290.419 525.876 291.073L528.907 290.218V285.538L526.742 286.149L526.568 288.808ZM531.939 282.253V289.363L533.238 288.996V293.586L530.362 294.398L530.189 292.286L524.853 293.791L524.68 296L521.804 296.811V292.221L522.93 291.904C523.392 291.209 523.652 290.506 523.71 289.794L524.056 284.476L531.939 282.253ZM538.01 282.611C537.548 282.741 537.317 283.046 537.317 283.526V284.516L540.262 283.686V282.696C540.262 282.216 540.031 282.041 539.569 282.171L538.01 282.611ZM542.947 288.508C540.718 289.377 538.697 290.067 536.884 290.578C536.098 290.8 535.469 290.731 534.995 290.373C534.522 290.014 534.285 289.427 534.285 288.611V284.291C534.285 283.391 534.528 282.621 535.013 281.98C535.509 281.324 536.191 280.874 537.057 280.629L540.522 279.652C541.388 279.408 542.064 279.475 542.549 279.855C543.045 280.219 543.294 280.851 543.294 281.751V285.081L537.317 286.766V287.486C537.317 287.666 537.375 287.8 537.49 287.887C537.606 287.975 537.75 287.994 537.923 287.945C539.067 287.623 540.741 287.06 542.947 286.258V288.508ZM552.989 285.676C550.829 286.525 548.923 287.183 547.272 287.649C546.486 287.87 545.857 287.802 545.383 287.443C544.91 287.085 544.673 286.498 544.673 285.682V281.542C544.673 280.642 544.915 279.871 545.401 279.23C545.897 278.574 546.579 278.124 547.445 277.88L552.989 276.316V278.746L548.398 280.041C547.936 280.171 547.705 280.477 547.705 280.957V284.467C547.705 284.647 547.762 284.78 547.878 284.868C547.993 284.955 548.138 284.974 548.311 284.925C549.35 284.632 550.91 284.103 552.989 283.336V285.676ZM554.371 285.466V275.926L557.403 275.071V278.041L560.954 277.04C561.74 276.818 562.369 276.887 562.843 277.245C563.316 277.604 563.553 278.191 563.553 279.007V280.177C563.553 280.993 563.316 281.714 562.843 282.339C562.369 282.965 561.74 283.388 560.954 283.61L554.371 285.466ZM559.915 281.653C560.088 281.604 560.232 281.503 560.348 281.351C560.463 281.198 560.521 281.032 560.521 280.852V280.042C560.521 279.862 560.463 279.728 560.348 279.641C560.232 279.553 560.088 279.534 559.915 279.583L557.403 280.291V282.361L559.915 281.653ZM575.93 269.846L579.135 268.942V278.482L576.103 279.337V274.117L573.158 280.168L569.953 281.072V271.532L572.984 270.677V275.897L575.93 269.846ZM586.582 266.842L589.96 265.889L587.015 271.49L590.047 275.405L586.669 276.358L584.936 273.966L583.204 277.335L579.825 278.287L582.857 272.662L579.912 268.723L583.29 267.77L584.936 270.186L586.582 266.842ZM598.364 273.059L595.073 273.987L597.671 268.484L596.805 266.929C596.62 266.621 596.332 266.522 595.939 266.633L595.333 266.804V264.374L595.766 264.162C596.078 264.014 596.395 263.894 596.719 263.803C597.042 263.712 597.331 263.679 597.585 263.703C597.85 263.724 598.087 263.783 598.295 263.881C598.699 264.067 599.011 264.375 599.231 264.805L600.183 266.516L601.136 266.247V262.737L604.168 261.882V265.392L605.121 265.123L606.074 262.875C606.42 262.009 606.969 261.332 607.719 260.845C607.974 260.677 608.228 260.557 608.482 260.486C608.874 260.375 609.227 260.305 609.539 260.278L609.972 260.245V262.675L609.365 262.846C608.973 262.957 608.684 263.219 608.499 263.631L607.633 265.675L610.231 269.712L606.94 270.64L605.034 267.578L604.168 267.822V271.422L601.136 272.277V268.677L600.27 268.922L598.364 273.059ZM615.169 263.82C615.111 264.676 614.88 265.431 614.476 266.085L617.508 265.23V260.55L615.342 261.161L615.169 263.82ZM620.539 257.265V264.375L621.839 264.009V268.599L618.963 269.41L618.79 267.298L613.454 268.803L613.281 271.012L610.405 271.823V267.233L611.531 266.916C611.993 266.221 612.253 265.518 612.31 264.806L612.657 259.488L620.539 257.265ZM623.925 252.71L626.87 251.88V254.4L623.925 255.23V252.71ZM627.91 251.586L630.855 250.756V253.276L627.91 254.106V251.586ZM626.61 257.623C626.148 257.753 625.917 258.058 625.917 258.538V259.528L628.862 258.698V257.708C628.862 257.228 628.631 257.053 628.169 257.183L626.61 257.623ZM631.548 263.52C629.319 264.389 627.297 265.079 625.484 265.59C624.699 265.812 624.069 265.743 623.596 265.385C623.122 265.027 622.886 264.439 622.886 263.623V259.303C622.886 258.403 623.128 257.633 623.613 256.992C624.11 256.336 624.791 255.886 625.657 255.642L629.122 254.664C629.989 254.42 630.664 254.488 631.149 254.867C631.646 255.231 631.894 255.863 631.894 256.763V260.093L625.917 261.778V262.498C625.917 262.678 625.975 262.812 626.091 262.899C626.206 262.987 626.35 263.006 626.524 262.957C627.667 262.635 629.342 262.072 631.548 261.27V263.52ZM638.644 254.589V261.699L635.612 262.554V255.444L632.754 256.25V253.82L641.502 251.353V253.783L638.644 254.589ZM650.601 250.407C651.721 249.851 652.703 249.454 653.546 249.216L654.326 248.996C655.111 248.775 655.74 248.843 656.214 249.202C656.687 249.56 656.924 250.147 656.924 250.963V253.843C656.924 254.743 656.676 255.521 656.179 256.177C655.694 256.818 655.019 257.261 654.152 257.505L650.341 258.58C649.475 258.824 648.793 258.765 648.297 258.401C647.812 258.021 647.569 257.382 647.569 256.482V250.092C647.569 249.228 647.846 248.424 648.401 247.679C648.967 246.932 649.729 246.363 650.688 245.972L656.578 243.591L656.838 246.038L651.467 248.182C650.89 248.417 650.601 248.799 650.601 249.327V250.407ZM653.2 255.344C653.662 255.214 653.893 254.908 653.893 254.428V252.178C653.893 251.998 653.835 251.865 653.719 251.777C653.604 251.69 653.459 251.671 653.286 251.719L652.68 251.89C652.229 252.017 651.825 252.155 651.467 252.304C651.109 252.453 650.82 252.571 650.601 252.657V255.357C650.601 255.837 650.832 256.012 651.294 255.881L653.2 255.344ZM667.671 250.812C667.671 251.712 667.423 252.49 666.926 253.146C666.441 253.787 665.766 254.23 664.899 254.474L660.915 255.598C660.049 255.842 659.367 255.782 658.871 255.418C658.386 255.039 658.143 254.4 658.143 253.5V249.36C658.143 248.46 658.386 247.689 658.871 247.048C659.367 246.392 660.049 245.942 660.915 245.698L664.899 244.574C665.766 244.33 666.441 244.397 666.926 244.776C667.423 245.14 667.671 245.772 667.671 246.672V250.812ZM664.64 247.797C664.64 247.317 664.409 247.143 663.947 247.273L661.868 247.859C661.406 247.989 661.175 248.295 661.175 248.775V252.375C661.175 252.855 661.406 253.029 661.868 252.899L663.947 252.313C664.409 252.183 664.64 251.877 664.64 251.397V247.797ZM670.268 252.96C669.771 253.1 669.194 253.203 668.536 253.269V250.929L669.228 250.733C669.667 250.609 669.898 250.304 669.921 249.818L670.268 243.24L678.584 240.895V250.435L675.552 251.29V244.18L673.126 244.864L672.867 249.527C672.82 250.356 672.561 251.084 672.087 251.709C671.613 252.335 671.007 252.752 670.268 252.96ZM680.31 249.948V240.408L683.342 239.553V242.523L686.893 241.521C687.678 241.3 688.308 241.368 688.781 241.727C689.255 242.085 689.492 242.672 689.492 243.488V244.658C689.492 245.474 689.255 246.195 688.781 246.821C688.308 247.446 687.678 247.87 686.893 248.091L680.31 249.948ZM685.854 246.134C686.027 246.086 686.171 245.985 686.287 245.832C686.402 245.68 686.46 245.513 686.46 245.333V244.523C686.46 244.343 686.402 244.21 686.287 244.122C686.171 244.035 686.027 244.016 685.854 244.064L683.342 244.773V246.843L685.854 246.134ZM690.698 247.018V237.478L693.729 236.623V243.733L695.722 243.171V236.061L698.753 235.206V242.316L700.746 241.754V234.644L703.777 233.789V243.329L690.698 247.018ZM709.069 234.367C708.607 234.497 708.376 234.802 708.376 235.282V236.272L711.322 235.442V234.452C711.322 233.972 711.091 233.797 710.629 233.927L709.069 234.367ZM714.007 240.264C711.778 241.133 709.757 241.823 707.943 242.335C707.158 242.556 706.529 242.488 706.055 242.129C705.581 241.771 705.345 241.183 705.345 240.367V236.047C705.345 235.147 705.587 234.377 706.072 233.736C706.569 233.08 707.25 232.63 708.117 232.386L711.581 231.408C712.448 231.164 713.123 231.232 713.608 231.611C714.105 231.975 714.353 232.607 714.353 233.507V236.837L708.376 238.522V239.242C708.376 239.422 708.434 239.556 708.55 239.644C708.665 239.731 708.81 239.75 708.983 239.701C710.126 239.379 711.801 238.817 714.007 238.014V240.264ZM317.843 367.634L321.048 366.73V376.27L318.016 377.125V371.905L315.071 377.956L311.866 378.86V369.32L314.898 368.465V373.685L317.843 367.634ZM328.929 368.018V364.508L331.96 363.653V373.193L328.929 374.048V370.448L325.81 371.327V374.927L322.778 375.782V366.242L325.81 365.387V368.897L328.929 368.018ZM345.904 366.38C345.904 367.28 345.656 368.058 345.159 368.714C344.674 369.355 343.999 369.798 343.132 370.042L341.227 370.579V373.639L338.195 374.494V371.434L336.289 371.972C335.423 372.216 334.742 372.156 334.245 371.792C333.76 371.413 333.517 370.774 333.517 369.874V366.094C333.517 365.194 333.76 364.423 334.245 363.782C334.742 363.126 335.423 362.676 336.289 362.432L338.195 361.894V358.834L341.227 357.979V361.039L343.132 360.502C343.999 360.258 344.674 360.325 345.159 360.704C345.656 361.068 345.904 361.7 345.904 362.6V366.38ZM336.549 368.749C336.549 369.229 336.78 369.403 337.242 369.273L338.455 368.931V364.251L337.242 364.593C336.78 364.723 336.549 365.029 336.549 365.509V368.749ZM342.872 363.725C342.872 363.245 342.641 363.07 342.179 363.201L341.14 363.494V368.174L342.179 367.881C342.641 367.75 342.872 367.445 342.872 366.965V363.725ZM356.817 363.482C356.817 364.382 356.569 365.16 356.072 365.816C355.587 366.457 354.911 366.9 354.045 367.144L350.061 368.268C349.194 368.512 348.513 368.452 348.016 368.088C347.531 367.709 347.289 367.07 347.289 366.17V362.03C347.289 361.13 347.531 360.359 348.016 359.718C348.513 359.062 349.194 358.612 350.061 358.368L354.045 357.244C354.911 357 355.587 357.067 356.072 357.446C356.569 357.81 356.817 358.442 356.817 359.342V363.482ZM353.785 360.467C353.785 359.987 353.554 359.813 353.092 359.943L351.013 360.529C350.551 360.659 350.321 360.965 350.321 361.445V365.045C350.321 365.525 350.551 365.699 351.013 365.569L353.092 364.983C353.554 364.853 353.785 364.547 353.785 364.067V360.467ZM363.485 357.192C362.873 357.364 362.18 357.68 361.406 358.138V362.458L364.005 361.725C364.467 361.595 364.698 361.29 364.698 360.81V357.48C364.698 357.3 364.64 357.166 364.524 357.079C364.409 356.991 364.264 356.972 364.091 357.021L363.485 357.192ZM361.406 364.888V367.948L358.374 368.803V356.203L361.059 355.446L361.233 356.297C361.776 355.772 362.33 355.346 362.896 355.018C363.473 354.675 363.958 354.448 364.351 354.338L365.131 354.118C365.916 353.896 366.545 353.965 367.019 354.323C367.493 354.682 367.729 355.269 367.729 356.085V360.225C367.729 361.125 367.481 361.903 366.984 362.559C366.499 363.2 365.824 363.642 364.957 363.887L361.406 364.888ZM376.303 359.067L374.051 359.702L372.318 356.951V361.811L369.286 362.666V353.126L372.491 352.222L375.177 356.504L377.862 350.707L381.067 349.803V359.343L378.035 360.198V355.338L376.303 359.067ZM386.442 355.487C387.054 355.315 387.747 354.999 388.521 354.541V353.461L386.009 354.169C385.836 354.218 385.691 354.319 385.576 354.472C385.46 354.624 385.403 354.79 385.403 354.97V355.15C385.403 355.33 385.46 355.464 385.576 355.552C385.691 355.639 385.836 355.658 386.009 355.609L386.442 355.487ZM383.237 349.371C385.351 348.535 387.256 347.878 388.954 347.399C389.74 347.177 390.369 347.246 390.842 347.604C391.316 347.963 391.553 348.55 391.553 349.366V356.386L388.868 357.143L388.694 356.292C388.151 356.817 387.591 357.251 387.014 357.594C386.448 357.922 385.969 358.141 385.576 358.252L384.97 358.423C384.184 358.644 383.555 358.576 383.081 358.217C382.608 357.859 382.371 357.271 382.371 356.455V355.645C382.371 354.829 382.608 354.109 383.081 353.483C383.555 352.858 384.184 352.434 384.97 352.213L388.521 351.211V350.491C388.521 350.311 388.463 350.177 388.348 350.09C388.232 350.002 388.088 349.983 387.915 350.032C387.164 350.244 386.332 350.514 385.42 350.844C384.519 351.17 383.792 351.429 383.237 351.621V349.371ZM400.557 353.847L393.107 355.947V346.407L396.139 345.552V352.662L399.257 351.783V344.673L402.289 343.818V350.928L403.588 350.562V355.152L400.73 355.958L400.557 353.847ZM410.775 341.425L413.979 340.521V350.061L410.948 350.916V345.696L408.003 351.747L404.798 352.65V343.11L407.829 342.255V347.475L410.775 341.425ZM421.687 338.347L424.892 337.443V346.983L421.86 347.838V342.618L418.915 348.669L415.71 349.573V340.033L418.742 339.178V344.398L421.687 338.347ZM441.171 339.692C441.171 340.592 440.923 341.37 440.426 342.026C439.941 342.667 439.265 343.11 438.399 343.354L434.415 344.478C433.548 344.722 432.867 344.662 432.37 344.298C431.885 343.919 431.643 343.279 431.643 342.379V338.239C431.643 337.339 431.885 336.569 432.37 335.928C432.867 335.272 433.548 334.822 434.415 334.578L438.399 333.454C439.265 333.21 439.941 333.277 440.426 333.656C440.923 334.02 441.171 334.652 441.171 335.552V339.692ZM438.139 336.677C438.139 336.197 437.908 336.022 437.446 336.153L435.367 336.739C434.905 336.869 434.674 337.174 434.674 337.654V341.254C434.674 341.734 434.905 341.909 435.367 341.779L437.446 341.193C437.908 341.062 438.139 340.757 438.139 340.277V336.677ZM454.072 332.724V329.214L457.104 328.359V337.899L454.072 338.754V335.154L450.954 336.033V339.633L447.922 340.488V330.948L450.954 330.093V333.603L454.072 332.724ZM462.472 334.045C463.084 333.872 463.777 333.556 464.551 333.098V332.018L462.039 332.727C461.866 332.776 461.722 332.876 461.606 333.029C461.491 333.181 461.433 333.348 461.433 333.528V333.708C461.433 333.888 461.491 334.021 461.606 334.109C461.722 334.196 461.866 334.216 462.039 334.167L462.472 334.045ZM459.267 327.928C461.381 327.092 463.287 326.435 464.984 325.956C465.77 325.735 466.399 325.803 466.873 326.161C467.346 326.52 467.583 327.107 467.583 327.923V334.943L464.898 335.7L464.724 334.849C464.182 335.374 463.622 335.808 463.044 336.151C462.478 336.479 461.999 336.698 461.606 336.809L461 336.98C460.214 337.201 459.585 337.133 459.111 336.774C458.638 336.416 458.401 335.829 458.401 335.013V334.203C458.401 333.387 458.638 332.666 459.111 332.04C459.585 331.415 460.214 330.991 461 330.77L464.551 329.768V329.048C464.551 328.868 464.493 328.734 464.378 328.647C464.263 328.56 464.118 328.54 463.945 328.589C463.194 328.801 462.363 329.071 461.45 329.401C460.549 329.727 459.822 329.986 459.267 330.178V327.928ZM469.137 334.505V324.965L472.169 324.11V331.22L474.161 330.658V323.548L477.193 322.693V329.803L479.185 329.241V322.131L482.217 321.276V330.816L469.137 334.505ZM489.935 319.099L493.14 318.195V327.735L490.108 328.59V323.37L487.163 329.421L483.958 330.325V320.785L486.989 319.93V325.15L489.935 319.099ZM500.587 316.095L503.965 315.142L501.02 320.743L504.052 324.658L500.674 325.611L498.941 323.219L497.209 326.588L493.83 327.541L496.862 321.916L493.917 317.976L497.295 317.023L498.941 319.439L500.587 316.095ZM519.126 310.867V320.407L516.094 321.262V314.152L512.976 315.031V322.141L509.944 322.996V313.456L519.126 310.867ZM525.967 311.367C525.355 311.54 524.662 311.855 523.888 312.314V316.634L526.487 315.901C526.949 315.77 527.18 315.465 527.18 314.985V311.655C527.18 311.475 527.122 311.341 527.006 311.254C526.891 311.167 526.746 311.147 526.573 311.196L525.967 311.367ZM523.888 319.064V322.124L520.856 322.979V310.379L523.541 309.621L523.715 310.472C524.258 309.947 524.812 309.521 525.378 309.193C525.955 308.85 526.44 308.624 526.833 308.513L527.613 308.293C528.398 308.072 529.027 308.14 529.501 308.498C529.975 308.857 530.211 309.444 530.211 310.26V314.4C530.211 315.3 529.963 316.078 529.466 316.734C528.981 317.375 528.306 317.818 527.439 318.062L523.888 319.064ZM541.124 311.503C541.124 312.403 540.875 313.181 540.379 313.837C539.893 314.477 539.218 314.92 538.352 315.164L534.367 316.288C533.501 316.532 532.819 316.473 532.323 316.109C531.838 315.729 531.595 315.09 531.595 314.19V310.05C531.595 309.15 531.838 308.379 532.323 307.739C532.819 307.083 533.501 306.632 534.367 306.388L538.352 305.264C539.218 305.02 539.893 305.087 540.379 305.467C540.875 305.831 541.124 306.463 541.124 307.363V311.503ZM538.092 308.488C538.092 308.008 537.861 307.833 537.399 307.963L535.32 308.549C534.858 308.68 534.627 308.985 534.627 309.465V313.065C534.627 313.545 534.858 313.72 535.32 313.589L537.399 313.003C537.861 312.873 538.092 312.568 538.092 312.088V308.488ZM546.752 308.115C546.694 308.972 546.463 309.727 546.059 310.381L549.091 309.526V304.846L546.925 305.456L546.752 308.115ZM552.122 301.561V308.671L553.422 308.304V312.894L550.546 313.705L550.373 311.594L545.037 313.099L544.864 315.308L541.988 316.119V311.529L543.114 311.211C543.576 310.517 543.836 309.814 543.893 309.101L544.24 303.784L552.122 301.561ZM556.898 312.994C556.286 313.166 555.535 313.318 554.646 313.449V311.109L556.205 310.669C556.644 310.545 556.927 310.34 557.054 310.052C557.193 309.761 557.169 309.413 556.985 309.009L553.433 301.191L556.638 300.287L558.804 305.796L560.623 299.163L563.828 298.259L560.363 309.137C560.028 310.179 559.595 311.015 559.064 311.645C558.532 312.287 557.81 312.736 556.898 312.994ZM568.684 302.83L567.385 303.196V306.796L564.353 307.651V298.111L567.385 297.256V300.766L568.77 300.375L569.723 298.127C570.07 297.261 570.613 296.586 571.352 296.101C571.617 295.93 571.872 295.811 572.114 295.742C572.507 295.632 572.865 295.561 573.188 295.529L573.621 295.497V297.927L573.015 298.098C572.622 298.209 572.333 298.47 572.149 298.883L571.282 300.927L573.881 304.964L570.59 305.892L568.684 302.83ZM579.938 296.146V303.256L576.906 304.111V297.001L574.048 297.807V295.377L582.796 292.91V295.34L579.938 296.146ZM587.142 298.884C587.754 298.711 588.447 298.396 589.221 297.938V296.858L586.709 297.566C586.536 297.615 586.392 297.716 586.276 297.868C586.161 298.021 586.103 298.187 586.103 298.367V298.547C586.103 298.727 586.161 298.861 586.276 298.948C586.392 299.036 586.536 299.055 586.709 299.006L587.142 298.884ZM583.937 292.768C586.051 291.932 587.956 291.274 589.654 290.795C590.44 290.574 591.069 290.642 591.543 291.001C592.016 291.359 592.253 291.947 592.253 292.763V299.783L589.568 300.54L589.394 299.689C588.852 300.214 588.291 300.648 587.714 300.991C587.148 301.318 586.669 301.538 586.276 301.648L585.67 301.819C584.884 302.041 584.255 301.972 583.781 301.614C583.308 301.255 583.071 300.668 583.071 299.852V299.042C583.071 298.226 583.308 297.505 583.781 296.88C584.255 296.254 584.884 295.831 585.67 295.609L589.221 294.608V293.888C589.221 293.708 589.163 293.574 589.048 293.486C588.932 293.399 588.788 293.38 588.615 293.429C587.864 293.64 587.033 293.911 586.12 294.24C585.219 294.566 584.492 294.825 583.937 295.018V292.768ZM599.524 288.192L602.903 287.239L599.957 292.84L602.989 296.755L599.611 297.707L597.879 295.316L596.146 298.685L592.768 299.637L595.8 294.012L592.855 290.073L596.233 289.12L597.879 291.536L599.524 288.192ZM603.341 293.955L606.459 293.076V295.596L605.247 297.918L603.688 298.358L604.381 296.362L603.341 296.655V293.955ZM619.193 286.155V282.645L622.225 281.79V291.33L619.193 292.185V288.585L616.075 289.464V293.064L613.043 293.919V284.379L616.075 283.524V287.034L619.193 286.155ZM633.311 285.503C633.311 286.403 633.062 287.181 632.566 287.837C632.081 288.478 631.405 288.921 630.539 289.165L626.554 290.289C625.688 290.533 625.006 290.473 624.51 290.109C624.025 289.73 623.782 289.09 623.782 288.19V284.05C623.782 283.15 624.025 282.38 624.51 281.739C625.006 281.083 625.688 280.633 626.554 280.389L630.539 279.265C631.405 279.021 632.081 279.088 632.566 279.467C633.062 279.831 633.311 280.463 633.311 281.363V285.503ZM630.279 282.488C630.279 282.008 630.048 281.833 629.586 281.964L627.507 282.55C627.045 282.68 626.814 282.985 626.814 283.465V287.065C626.814 287.545 627.045 287.72 627.507 287.59L629.586 287.004C630.048 286.873 630.279 286.568 630.279 286.088V282.488ZM641.451 285.907L634.868 287.764V278.224L640.931 276.514C641.705 276.296 642.329 276.36 642.802 276.706C643.287 277.037 643.53 277.497 643.53 278.085C643.53 278.673 643.409 279.187 643.166 279.628C642.923 280.068 642.583 280.416 642.144 280.672C642.664 280.621 643.108 280.76 643.478 281.088C643.859 281.412 644.05 281.934 644.05 282.654C644.05 283.374 643.807 284.043 643.322 284.66C642.848 285.273 642.225 285.689 641.451 285.907ZM641.018 282.969C641.018 282.789 640.96 282.656 640.845 282.568C640.729 282.481 640.585 282.462 640.411 282.51L637.899 283.219V284.749L640.411 284.04C640.585 283.992 640.729 283.891 640.845 283.738C640.96 283.586 641.018 283.419 641.018 283.239V282.969ZM640.498 279.426C640.498 279.246 640.44 279.112 640.325 279.025C640.209 278.937 640.065 278.918 639.892 278.967L637.899 279.529V281.149L639.892 280.587C640.065 280.538 640.209 280.437 640.325 280.285C640.44 280.132 640.498 279.966 640.498 279.786V279.426ZM645.255 284.834V275.294L648.287 274.439V277.409L651.665 276.457C652.451 276.235 653.08 276.304 653.554 276.662C654.027 277.02 654.264 277.608 654.264 278.424V279.594C654.264 280.41 654.027 281.13 653.554 281.756C653.08 282.382 652.451 282.805 651.665 283.027L645.255 284.834ZM650.626 281.07C650.799 281.021 650.944 280.92 651.059 280.768C651.175 280.615 651.232 280.449 651.232 280.269V279.477C651.232 279.297 651.175 279.163 651.059 279.076C650.944 278.988 650.799 278.969 650.626 279.018L648.287 279.677V281.729L650.626 281.07ZM658.422 281.121L655.39 281.976V272.436L658.422 271.581V281.121ZM663.712 272.159C663.25 272.289 663.019 272.595 663.019 273.075V274.065L665.964 273.234V272.244C665.964 271.764 665.733 271.589 665.271 271.719L663.712 272.159ZM668.649 278.057C666.42 278.925 664.399 279.615 662.586 280.127C661.8 280.348 661.171 280.28 660.697 279.921C660.224 279.563 659.987 278.976 659.987 278.16V273.84C659.987 272.94 660.23 272.169 660.715 271.528C661.211 270.872 661.893 270.422 662.759 270.178L666.224 269.201C667.09 268.956 667.766 269.024 668.251 269.403C668.747 269.767 668.996 270.399 668.996 271.299V274.629L663.019 276.315V277.035C663.019 277.215 663.077 277.348 663.192 277.436C663.308 277.523 663.452 277.542 663.625 277.494C664.769 277.171 666.443 276.609 668.649 275.807V278.057ZM320.009 401.383C317.849 402.233 315.943 402.89 314.292 403.356C313.506 403.577 312.877 403.509 312.403 403.15C311.93 402.792 311.693 402.205 311.693 401.389V397.249C311.693 396.349 311.936 395.578 312.421 394.937C312.917 394.281 313.599 393.831 314.465 393.587L320.009 392.023V394.453L315.418 395.748C314.956 395.879 314.725 396.184 314.725 396.664V400.174C314.725 400.354 314.782 400.487 314.898 400.575C315.013 400.662 315.158 400.682 315.331 400.633C316.371 400.339 317.93 399.81 320.009 399.043V401.383ZM330.573 389.044V398.584L327.541 399.439V392.329L324.423 393.208V400.318L321.391 401.174V391.634L330.573 389.044ZM335.855 389.624C335.393 389.755 335.162 390.06 335.162 390.54V391.53L338.107 390.699V389.709C338.107 389.229 337.876 389.054 337.414 389.185L335.855 389.624ZM340.792 395.522C338.563 396.391 336.542 397.081 334.729 397.592C333.943 397.813 333.314 397.745 332.84 397.386C332.367 397.028 332.13 396.441 332.13 395.625V391.305C332.13 390.405 332.373 389.634 332.858 388.994C333.354 388.338 334.036 387.887 334.902 387.643L338.367 386.666C339.233 386.422 339.909 386.489 340.394 386.868C340.89 387.232 341.139 387.864 341.139 388.764V392.094L335.162 393.78V394.5C335.162 394.68 335.22 394.813 335.335 394.901C335.451 394.988 335.595 395.008 335.768 394.959C336.912 394.636 338.586 394.074 340.792 393.272V395.522ZM350.14 393.065L342.691 395.166V385.626L345.723 384.771V391.881L348.841 391.002V383.892L351.873 383.037V390.147L353.172 389.78V394.37L350.314 395.177L350.14 393.065ZM363.563 379.74V389.28L360.532 390.135V383.025L357.413 383.904V391.014L354.382 391.869V382.329L363.563 379.74ZM370.404 380.24C369.792 380.413 369.099 380.728 368.325 381.187V385.507L370.924 384.774C371.386 384.643 371.617 384.338 371.617 383.858V380.528C371.617 380.348 371.559 380.215 371.444 380.127C371.328 380.04 371.184 380.02 371.011 380.069L370.404 380.24ZM368.325 387.937V390.997L365.294 391.852V379.252L367.979 378.494L368.152 379.346C368.695 378.82 369.249 378.394 369.815 378.066C370.393 377.724 370.878 377.497 371.271 377.386L372.05 377.166C372.836 376.945 373.465 377.013 373.939 377.372C374.412 377.73 374.649 378.317 374.649 379.133V383.273C374.649 384.173 374.401 384.951 373.904 385.607C373.419 386.248 372.743 386.691 371.877 386.935L368.325 387.937ZM385.561 380.376C385.561 381.276 385.313 382.054 384.816 382.71C384.331 383.351 383.655 383.793 382.789 384.037L378.805 385.161C377.938 385.406 377.257 385.346 376.76 384.982C376.275 384.603 376.033 383.963 376.033 383.063V378.923C376.033 378.023 376.275 377.253 376.76 376.612C377.257 375.956 377.938 375.506 378.805 375.261L382.789 374.137C383.655 373.893 384.331 373.961 384.816 374.34C385.313 374.704 385.561 375.336 385.561 376.236V380.376ZM382.529 377.361C382.529 376.881 382.298 376.706 381.836 376.836L379.757 377.423C379.295 377.553 379.064 377.858 379.064 378.338V381.938C379.064 382.418 379.295 382.593 379.757 382.463L381.836 381.876C382.298 381.746 382.529 381.441 382.529 380.961V377.361ZM390.67 374.165C390.208 374.295 389.977 374.6 389.977 375.08V376.07L392.922 375.24V374.25C392.922 373.77 392.691 373.595 392.229 373.725L390.67 374.165ZM395.607 380.062C393.378 380.931 391.357 381.621 389.544 382.133C388.758 382.354 388.129 382.286 387.655 381.927C387.182 381.569 386.945 380.981 386.945 380.165V375.845C386.945 374.945 387.187 374.175 387.673 373.534C388.169 372.878 388.851 372.428 389.717 372.184L393.182 371.207C394.048 370.962 394.724 371.03 395.209 371.409C395.705 371.773 395.954 372.405 395.954 373.305V376.635L389.977 378.32V379.04C389.977 379.22 390.034 379.354 390.15 379.442C390.265 379.529 390.41 379.548 390.583 379.499C391.726 379.177 393.401 378.615 395.607 377.812V380.062ZM401.837 374.885L400.538 375.252V378.852L397.506 379.707V370.167L400.538 369.312V372.822L401.924 372.431L402.876 370.182C403.223 369.317 403.766 368.641 404.505 368.157C404.771 367.986 405.025 367.866 405.267 367.798C405.66 367.687 406.018 367.616 406.341 367.585L406.774 367.553V369.983L406.168 370.154C405.775 370.265 405.487 370.526 405.302 370.938L404.436 372.983L407.034 377.02L403.743 377.948L401.837 374.885ZM413.091 368.202V375.312L410.059 376.167V369.057L407.201 369.863V367.433L415.949 364.965V367.395L413.091 368.202ZM416.996 374.21V364.67L420.027 363.815V366.785L423.406 365.832C424.191 365.611 424.82 365.679 425.294 366.038C425.767 366.396 426.004 366.984 426.004 367.8V368.97C426.004 369.786 425.767 370.506 425.294 371.132C424.82 371.757 424.191 372.181 423.406 372.402L416.996 374.21ZM422.366 370.446C422.539 370.397 422.684 370.296 422.799 370.143C422.915 369.991 422.972 369.825 422.972 369.645V368.853C422.972 368.673 422.915 368.539 422.799 368.451C422.684 368.364 422.539 368.345 422.366 368.394L420.027 369.053V371.105L422.366 370.446ZM430.162 370.497L427.13 371.352V361.812L430.162 360.957V370.497ZM443.071 357.316L446.276 356.412V365.952L443.245 366.807V361.587L440.299 367.638L437.094 368.542V359.002L440.126 358.147V363.367L443.071 357.316ZM460.65 361.898L453.201 363.999V354.459L456.232 353.604V360.714L459.351 359.835V352.725L462.382 351.87V358.98L463.682 358.613V363.203L460.823 364.01L460.65 361.898ZM468.442 352.231C467.98 352.361 467.749 352.666 467.749 353.146V354.136L470.695 353.306V352.316C470.695 351.836 470.464 351.661 470.002 351.791L468.442 352.231ZM473.38 358.128C471.151 358.997 469.13 359.687 467.316 360.198C466.531 360.42 465.902 360.351 465.428 359.993C464.954 359.634 464.718 359.047 464.718 358.231V353.911C464.718 353.011 464.96 352.241 465.445 351.6C465.942 350.944 466.623 350.494 467.49 350.249L470.954 349.272C471.821 349.028 472.496 349.095 472.981 349.475C473.478 349.839 473.726 350.471 473.726 351.371V354.701L467.749 356.386V357.106C467.749 357.286 467.807 357.42 467.923 357.507C468.038 357.595 468.183 357.614 468.356 357.565C469.499 357.243 471.174 356.68 473.38 355.878V358.128ZM481.429 350.008V346.498L484.461 345.643V355.183L481.429 356.038V352.438L478.31 353.318V356.918L475.279 357.773V348.233L478.31 347.378V350.888L481.429 350.008ZM492.341 346.931V343.421L495.373 342.566V352.106L492.341 352.961V349.361L489.223 350.24V353.84L486.191 354.695V345.155L489.223 344.3V347.81L492.341 346.931ZM497.103 351.618V342.078L500.135 341.223V344.193L503.513 343.24C504.298 343.018 504.928 343.087 505.401 343.445C505.875 343.804 506.112 344.391 506.112 345.207V346.377C506.112 347.193 505.875 347.914 505.401 348.539C504.928 349.165 504.298 349.588 503.513 349.81L497.103 351.618ZM502.474 347.853C502.647 347.804 502.791 347.703 502.907 347.551C503.022 347.398 503.08 347.232 503.08 347.052V346.26C503.08 346.08 503.022 345.946 502.907 345.859C502.791 345.771 502.647 345.752 502.474 345.801L500.135 346.461V348.513L502.474 347.853ZM510.27 347.904L507.238 348.759V339.219L510.27 338.364V347.904ZM515.559 338.942C515.098 339.073 514.867 339.378 514.867 339.858V340.848L517.812 340.017V339.027C517.812 338.547 517.581 338.372 517.119 338.503L515.559 338.942ZM520.497 344.84C518.268 345.709 516.247 346.399 514.433 346.91C513.648 347.131 513.019 347.063 512.545 346.705C512.072 346.346 511.835 345.759 511.835 344.943V340.623C511.835 339.723 512.077 338.952 512.562 338.312C513.059 337.656 513.74 337.205 514.607 336.961L518.072 335.984C518.938 335.74 519.613 335.807 520.098 336.186C520.595 336.55 520.843 337.182 520.843 338.082V341.412L514.867 343.098V343.818C514.867 343.998 514.924 344.132 515.04 344.219C515.155 344.306 515.3 344.326 515.473 344.277C516.616 343.954 518.291 343.392 520.497 342.59V344.84ZM536.771 330.89V340.43L533.74 341.285V334.175L530.621 335.054V342.164L527.59 343.02V333.48L536.771 330.89ZM543.613 331.391C543 331.563 542.307 331.879 541.534 332.337V336.657L544.132 335.924C544.594 335.794 544.825 335.489 544.825 335.009V331.679C544.825 331.499 544.767 331.365 544.652 331.277C544.536 331.19 544.392 331.171 544.219 331.22L543.613 331.391ZM541.534 339.087V342.147L538.502 343.002V330.402L541.187 329.645L541.36 330.496C541.903 329.971 542.458 329.544 543.023 329.217C543.601 328.874 544.086 328.647 544.479 328.536L545.258 328.316C546.044 328.095 546.673 328.163 547.147 328.522C547.62 328.88 547.857 329.468 547.857 330.284V334.424C547.857 335.324 547.609 336.102 547.112 336.758C546.627 337.398 545.951 337.841 545.085 338.085L541.534 339.087ZM555.391 325.639L558.596 324.735V334.275L555.564 335.13V329.91L552.619 335.961L549.414 336.864V327.324L552.446 326.469V331.689L555.391 325.639ZM559.807 331.593C562.013 331.151 563.745 330.753 565.004 330.398C565.177 330.349 565.321 330.248 565.437 330.095C565.552 329.943 565.61 329.777 565.61 329.597V329.327C565.61 329.147 565.552 329.013 565.437 328.925C565.321 328.838 565.177 328.819 565.004 328.868L561.193 329.943V327.693L564.657 326.715C564.831 326.666 564.975 326.566 565.09 326.413C565.206 326.261 565.264 326.094 565.264 325.914V325.734C565.264 325.554 565.206 325.421 565.09 325.333C564.975 325.246 564.831 325.226 564.657 325.275L559.98 326.595V324.345L565.697 322.732C566.471 322.514 567.094 322.578 567.568 322.925C568.053 323.256 568.295 323.715 568.295 324.303C568.295 325.503 567.776 326.382 566.736 326.939C567.256 326.888 567.701 327.027 568.07 327.355C568.451 327.679 568.642 328.226 568.642 328.994C568.642 329.762 568.405 330.458 567.932 331.084C567.458 331.709 566.829 332.133 566.043 332.354C564.115 332.898 562.036 333.365 559.807 333.753V331.593ZM569.851 331.101V321.561L572.883 320.705V323.675L576.261 322.723C577.047 322.501 577.676 322.57 578.15 322.928C578.623 323.287 578.86 323.874 578.86 324.69V325.86C578.86 326.676 578.623 327.397 578.15 328.022C577.676 328.648 577.047 329.071 576.261 329.293L569.851 331.101ZM575.222 327.336C575.395 327.287 575.539 327.186 575.655 327.034C575.77 326.881 575.828 326.715 575.828 326.535V325.743C575.828 325.563 575.77 325.429 575.655 325.342C575.539 325.254 575.395 325.235 575.222 325.284L572.883 325.943V327.995L575.222 327.336ZM583.018 327.387L579.986 328.242V318.702L583.018 317.847V327.387ZM584.41 324.295L587.528 323.415V326.115L584.41 326.995V324.295ZM322.607 425.831L319.489 426.71V416.63L315.158 417.852V427.932L312.039 428.811V416.211L322.607 413.231V425.831ZM328.072 416.819C327.61 416.949 327.379 417.255 327.379 417.735V418.725L330.325 417.894V416.904C330.325 416.424 330.094 416.249 329.632 416.379L328.072 416.819ZM333.01 422.717C330.781 423.585 328.76 424.275 326.946 424.787C326.161 425.008 325.532 424.94 325.058 424.581C324.585 424.223 324.348 423.636 324.348 422.82V418.5C324.348 417.6 324.59 416.829 325.075 416.188C325.572 415.532 326.253 415.082 327.12 414.838L330.584 413.861C331.451 413.616 332.126 413.684 332.611 414.063C333.108 414.427 333.356 415.059 333.356 415.959V419.289L327.379 420.975V421.695C327.379 421.875 327.437 422.008 327.553 422.096C327.668 422.183 327.813 422.202 327.986 422.154C329.129 421.831 330.804 421.269 333.01 420.467V422.717ZM340.019 413.81C339.407 413.982 338.714 414.298 337.94 414.756V419.076L340.539 418.343C341.001 418.213 341.232 417.908 341.232 417.428V414.098C341.232 413.918 341.174 413.784 341.059 413.697C340.943 413.609 340.799 413.59 340.626 413.639L340.019 413.81ZM337.94 421.506V424.566L334.909 425.421V412.821L337.594 412.064L337.767 412.915C338.31 412.39 338.864 411.964 339.43 411.636C340.008 411.293 340.493 411.066 340.886 410.956L341.665 410.736C342.451 410.514 343.08 410.583 343.554 410.941C344.027 411.3 344.264 411.887 344.264 412.703V416.843C344.264 417.743 344.015 418.521 343.519 419.177C343.034 419.818 342.358 420.26 341.492 420.505L337.94 421.506ZM352.404 417.427L345.821 419.284V409.744L351.884 408.034C352.658 407.815 353.282 407.879 353.755 408.226C354.241 408.557 354.483 409.017 354.483 409.605C354.483 410.193 354.362 410.707 354.119 411.147C353.877 411.588 353.536 411.936 353.097 412.192C353.617 412.141 354.061 412.28 354.431 412.607C354.812 412.932 355.003 413.454 355.003 414.174C355.003 414.894 354.76 415.562 354.275 416.179C353.802 416.793 353.178 417.209 352.404 417.427ZM351.971 414.489C351.971 414.309 351.913 414.175 351.798 414.088C351.682 414.001 351.538 413.981 351.365 414.03L348.853 414.739V416.269L351.365 415.56C351.538 415.511 351.682 415.411 351.798 415.258C351.913 415.105 351.971 414.939 351.971 414.759V414.489ZM351.451 410.946C351.451 410.766 351.394 410.632 351.278 410.545C351.163 410.457 351.018 410.438 350.845 410.487L348.853 411.049V412.669L350.845 412.107C351.018 412.058 351.163 411.957 351.278 411.805C351.394 411.652 351.451 411.486 351.451 411.306V410.946ZM356.209 416.354V406.814L359.24 405.959V408.929L362.619 407.976C363.404 407.755 364.033 407.823 364.507 408.182C364.981 408.54 365.217 409.127 365.217 409.943V411.113C365.217 411.929 364.981 412.65 364.507 413.276C364.033 413.901 363.404 414.325 362.619 414.546L356.209 416.354ZM361.579 412.589C361.752 412.54 361.897 412.44 362.012 412.287C362.128 412.135 362.186 411.968 362.186 411.788V410.996C362.186 410.816 362.128 410.683 362.012 410.595C361.897 410.508 361.752 410.488 361.579 410.537L359.24 411.197V413.249L361.579 412.589ZM369.375 412.641L366.343 413.496V403.956L369.375 403.101V412.641ZM374.752 400.684C373.25 401.108 372.5 400.539 372.5 398.979V398.439L374.752 397.804V398.254C374.752 398.434 374.809 398.568 374.925 398.655C375.04 398.743 375.185 398.762 375.358 398.713L375.878 398.567C376.051 398.518 376.195 398.417 376.311 398.265C376.426 398.112 376.484 397.946 376.484 397.766V397.316L378.736 396.681V397.221C378.736 398.781 377.986 399.772 376.484 400.196L374.752 400.684ZM377.09 400.925L380.295 400.021V409.561L377.264 410.416V405.196L374.319 411.246L371.114 412.15V402.61L374.145 401.755V406.975L377.09 400.925ZM396.402 395.478V405.018L393.37 405.873V398.763L390.251 399.643V406.753L387.22 407.608V398.068L396.402 395.478ZM403.243 395.979C402.63 396.152 401.937 396.467 401.164 396.925V401.245L403.762 400.512C404.224 400.382 404.455 400.077 404.455 399.597V396.267C404.455 396.087 404.397 395.953 404.282 395.866C404.166 395.778 404.022 395.759 403.849 395.808L403.243 395.979ZM401.164 403.675V406.735L398.132 407.59V394.99L400.817 394.233L400.99 395.084C401.533 394.559 402.088 394.133 402.654 393.805C403.231 393.462 403.716 393.235 404.109 393.125L404.888 392.905C405.674 392.683 406.303 392.752 406.777 393.11C407.25 393.469 407.487 394.056 407.487 394.872V399.012C407.487 399.912 407.239 400.69 406.742 401.346C406.257 401.987 405.581 402.429 404.715 402.674L401.164 403.675ZM415.021 390.227L418.226 389.323V398.863L415.194 399.718V394.498L412.249 400.549L409.044 401.453V391.913L412.076 391.058V396.278L415.021 390.227ZM419.437 396.182C421.643 395.74 423.375 395.341 424.634 394.986C424.807 394.937 424.951 394.836 425.067 394.684C425.182 394.531 425.24 394.365 425.24 394.185V393.915C425.24 393.735 425.182 393.601 425.067 393.514C424.951 393.426 424.807 393.407 424.634 393.456L420.823 394.531V392.281L424.287 391.304C424.461 391.255 424.605 391.154 424.72 391.002C424.836 390.849 424.894 390.683 424.894 390.503V390.323C424.894 390.143 424.836 390.009 424.72 389.922C424.605 389.834 424.461 389.815 424.287 389.864L419.61 391.183V388.933L425.327 387.321C426.101 387.102 426.724 387.166 427.198 387.513C427.683 387.844 427.925 388.304 427.925 388.892C427.925 390.092 427.406 390.97 426.366 391.527C426.886 391.477 427.331 391.615 427.7 391.943C428.081 392.268 428.272 392.814 428.272 393.582C428.272 394.35 428.035 395.047 427.562 395.672C427.088 396.298 426.459 396.721 425.673 396.943C423.745 397.487 421.666 397.953 419.437 398.342V396.182ZM437.101 396.78C436.488 396.953 435.738 397.104 434.848 397.235V394.895L436.408 394.456C436.846 394.332 437.129 394.126 437.256 393.838C437.395 393.547 437.372 393.2 437.187 392.796L433.636 384.977L436.841 384.073L439.006 389.583L440.825 382.95L444.03 382.046L440.565 392.923C440.23 393.965 439.797 394.802 439.266 395.431C438.735 396.073 438.013 396.523 437.101 396.78ZM446.981 390.754L443.689 391.682L446.288 386.179L445.422 384.623C445.237 384.315 444.948 384.217 444.555 384.328L443.949 384.499V382.069L444.382 381.856C444.694 381.709 445.012 381.589 445.335 381.498C445.658 381.407 445.947 381.373 446.201 381.397C446.467 381.419 446.704 381.478 446.911 381.575C447.316 381.761 447.627 382.069 447.847 382.499L448.8 384.211L449.753 383.942V380.432L452.784 379.577V383.087L453.737 382.818L454.69 380.569C455.036 379.704 455.585 379.027 456.336 378.539C456.59 378.372 456.844 378.252 457.098 378.18C457.491 378.069 457.843 378 458.155 377.972L458.588 377.94V380.37L457.982 380.541C457.589 380.652 457.3 380.913 457.115 381.325L456.249 383.37L458.848 387.407L455.556 388.335L453.651 385.273L452.784 385.517V389.117L449.753 389.972V386.372L448.886 386.616L446.981 390.754ZM463.265 378.691C462.803 378.821 462.572 379.126 462.572 379.606V380.596L465.518 379.766V378.776C465.518 378.296 465.287 378.121 464.825 378.251L463.265 378.691ZM468.203 384.588C465.974 385.457 463.953 386.147 462.139 386.658C461.354 386.88 460.725 386.811 460.251 386.453C459.778 386.095 459.541 385.507 459.541 384.691V380.371C459.541 379.471 459.783 378.701 460.268 378.06C460.765 377.404 461.446 376.954 462.313 376.71L465.777 375.732C466.644 375.488 467.319 375.556 467.804 375.935C468.301 376.299 468.549 376.931 468.549 377.831V381.161L462.572 382.846V383.566C462.572 383.746 462.63 383.88 462.746 383.967C462.861 384.055 463.006 384.074 463.179 384.025C464.322 383.703 465.997 383.14 468.203 382.338V384.588ZM484.477 370.638V380.178L481.446 381.033V373.923L478.327 374.803V381.913L475.296 382.768V373.228L484.477 370.638ZM491.318 371.139C490.706 371.312 490.013 371.627 489.24 372.085V376.405L491.838 375.672C492.3 375.542 492.531 375.237 492.531 374.757V371.427C492.531 371.247 492.473 371.113 492.358 371.026C492.242 370.938 492.098 370.919 491.925 370.968L491.318 371.139ZM489.24 378.835V381.895L486.208 382.75V370.15L488.893 369.393L489.066 370.244C489.609 369.719 490.164 369.293 490.729 368.965C491.307 368.622 491.792 368.396 492.185 368.285L492.964 368.065C493.75 367.843 494.379 367.912 494.853 368.27C495.326 368.629 495.563 369.216 495.563 370.032V374.172C495.563 375.072 495.315 375.85 494.818 376.506C494.333 377.147 493.657 377.589 492.791 377.834L489.24 378.835ZM503.097 365.387L506.302 364.483V374.023L503.27 374.878V369.658L500.325 375.709L497.12 376.613V367.073L500.152 366.218V371.438L503.097 365.387ZM518.337 363.519C517.725 363.692 517.032 364.007 516.258 364.465V368.785L518.857 368.053C519.318 367.922 519.549 367.617 519.549 367.137V363.807C519.549 363.627 519.492 363.493 519.376 363.406C519.261 363.319 519.116 363.299 518.943 363.348L518.337 363.519ZM516.258 371.215V374.275L513.226 375.13V362.53L515.911 361.773L516.085 362.624C516.627 362.099 517.182 361.673 517.748 361.345C518.325 361.002 518.81 360.776 519.203 360.665L519.983 360.445C520.768 360.223 521.397 360.292 521.871 360.65C522.344 361.009 522.581 361.596 522.581 362.412V366.552C522.581 367.452 522.333 368.23 521.836 368.886C521.351 369.527 520.676 369.97 519.809 370.214L516.258 371.215ZM527.69 360.521C527.228 360.652 526.997 360.957 526.997 361.437V362.427L529.942 361.596V360.606C529.942 360.126 529.711 359.951 529.249 360.082L527.69 360.521ZM532.627 366.419C530.398 367.287 528.377 367.977 526.564 368.489C525.778 368.71 525.149 368.642 524.675 368.283C524.202 367.925 523.965 367.338 523.965 366.522V362.202C523.965 361.302 524.208 360.531 524.693 359.891C525.189 359.234 525.871 358.784 526.737 358.54L530.202 357.563C531.068 357.319 531.744 357.386 532.229 357.765C532.725 358.129 532.974 358.761 532.974 359.661V362.991L526.997 364.677V365.397C526.997 365.577 527.055 365.71 527.17 365.798C527.286 365.885 527.43 365.905 527.603 365.856C528.747 365.533 530.421 364.971 532.627 364.169V366.419ZM541.976 354.422V356.852L537.558 358.098V365.208L534.526 366.063V356.523L541.976 354.422ZM548.996 352.442L552.201 351.538V361.078L549.169 361.933V356.713L546.224 362.764L543.019 363.668V354.128L546.051 353.273V358.493L548.996 352.442ZM562.074 358.114C559.914 358.963 558.008 359.621 556.357 360.086C555.571 360.308 554.942 360.239 554.468 359.881C553.995 359.523 553.758 358.935 553.758 358.119V353.979C553.758 353.079 554.001 352.309 554.486 351.668C554.982 351.012 555.664 350.562 556.53 350.318L562.074 348.754V351.184L557.483 352.479C557.021 352.609 556.79 352.914 556.79 353.394V356.904C556.79 357.084 556.847 357.218 556.963 357.305C557.078 357.393 557.223 357.412 557.396 357.363C558.436 357.07 559.995 356.54 562.074 355.774V358.114ZM568.653 349.328V356.438L565.622 357.293V350.183L562.763 350.99V348.56L571.512 346.092V348.522L568.653 349.328ZM577.669 346.786C577.057 346.958 576.364 347.274 575.59 347.732V352.052L578.188 351.319C578.65 351.189 578.881 350.884 578.881 350.404V347.074C578.881 346.894 578.824 346.76 578.708 346.673C578.593 346.585 578.448 346.566 578.275 346.615L577.669 346.786ZM575.59 354.482V357.542L572.558 358.397V345.797L575.243 345.04L575.417 345.891C575.959 345.366 576.514 344.939 577.08 344.612C577.657 344.269 578.142 344.042 578.535 343.931L579.315 343.712C580.1 343.49 580.729 343.559 581.203 343.917C581.676 344.275 581.913 344.863 581.913 345.679V349.819C581.913 350.719 581.665 351.497 581.168 352.153C580.683 352.794 580.008 353.236 579.141 353.48L575.59 354.482ZM587.108 348.893C587.721 348.721 588.414 348.405 589.187 347.947V346.867L586.675 347.576C586.502 347.625 586.358 347.725 586.242 347.878C586.127 348.03 586.069 348.197 586.069 348.377V348.557C586.069 348.737 586.127 348.87 586.242 348.958C586.358 349.045 586.502 349.065 586.675 349.016L587.108 348.893ZM583.903 342.777C586.017 341.941 587.923 341.284 589.62 340.805C590.406 340.584 591.035 340.652 591.509 341.01C591.982 341.369 592.219 341.956 592.219 342.772V349.792L589.534 350.549L589.361 349.698C588.818 350.223 588.258 350.657 587.68 351C587.114 351.328 586.635 351.547 586.242 351.658L585.636 351.829C584.85 352.05 584.221 351.982 583.748 351.623C583.274 351.265 583.037 350.678 583.037 349.862V349.052C583.037 348.236 583.274 347.515 583.748 346.889C584.221 346.264 584.85 345.84 585.636 345.619L589.187 344.617V343.897C589.187 343.717 589.13 343.583 589.014 343.496C588.899 343.409 588.754 343.389 588.581 343.438C587.83 343.65 586.999 343.92 586.086 344.25C585.185 344.576 584.458 344.835 583.903 345.027V342.777ZM601.223 347.253L593.773 349.354V339.814L596.805 338.959V346.069L599.924 345.189V338.079L602.955 337.224V344.334L604.255 343.968V348.558L601.396 349.364L601.223 347.253ZM611.441 334.831L614.646 333.927V343.467L611.614 344.322V339.102L608.669 345.153L605.464 346.057V336.517L608.496 335.662V340.882L611.441 334.831ZM622.353 331.753L625.558 330.85V340.39L622.526 341.245V336.025L619.581 342.075L616.376 342.979V333.439L619.408 332.584V337.804L622.353 331.753ZM626.942 337.299L630.06 336.42V339.12L626.942 339.999V337.299ZM626.942 330.459L630.06 329.58V332.28L626.942 333.159V330.459ZM642.621 326.037L645.826 325.133V334.673L642.794 335.528V330.308L639.849 336.359L636.644 337.263V327.723L639.676 326.868V332.088L642.621 326.037ZM657.947 324.145V331.255L654.916 332.11V325L652.057 325.806V323.376L660.806 320.909V323.339L657.947 324.145ZM661.852 330.154V320.614L664.884 319.759V322.729L668.262 321.776C669.047 321.554 669.677 321.623 670.15 321.981C670.624 322.34 670.861 322.927 670.861 323.743V324.913C670.861 325.729 670.624 326.45 670.15 327.075C669.677 327.701 669.047 328.124 668.262 328.346L661.852 330.154ZM667.223 326.389C667.396 326.34 667.54 326.239 667.656 326.087C667.771 325.934 667.829 325.768 667.829 325.588V324.796C667.829 324.616 667.771 324.482 667.656 324.395C667.54 324.307 667.396 324.288 667.223 324.337L664.884 324.997V327.049L667.223 326.389ZM675.019 326.44L671.987 327.295V317.755L675.019 316.9V326.44ZM676.411 323.348L679.529 322.468V324.988L678.316 327.31L676.757 327.75L677.45 325.755L676.411 326.048V323.348ZM692.09 312.086L695.295 311.182V320.722L692.263 321.577V316.357L689.318 322.407L686.113 323.311V313.771L689.145 312.916V318.136L692.09 312.086ZM707.416 310.193V317.303L704.384 318.158V311.048L701.526 311.854V309.424L710.275 306.957V309.387L707.416 310.193ZM717.904 314.345L711.321 316.202V306.662L717.384 304.952C718.158 304.734 718.782 304.798 719.255 305.144C719.74 305.475 719.983 305.935 719.983 306.523C719.983 307.111 719.862 307.625 719.619 308.066C719.377 308.506 719.036 308.854 718.597 309.11C719.117 309.059 719.561 309.198 719.931 309.526C720.312 309.85 720.503 310.372 720.503 311.092C720.503 311.812 720.26 312.481 719.775 313.098C719.302 313.711 718.678 314.127 717.904 314.345ZM717.471 311.407C717.471 311.227 717.413 311.094 717.298 311.006C717.182 310.919 717.038 310.9 716.865 310.948L714.353 311.657V313.187L716.865 312.478C717.038 312.43 717.182 312.329 717.298 312.176C717.413 312.024 717.471 311.857 717.471 311.677V311.407ZM716.951 307.864C716.951 307.684 716.893 307.55 716.778 307.463C716.662 307.375 716.518 307.356 716.345 307.405L714.353 307.967V309.587L716.345 309.025C716.518 308.976 716.662 308.875 716.778 308.723C716.893 308.57 716.951 308.404 716.951 308.224V307.864ZM731.064 307.934C731.064 308.834 730.815 309.612 730.319 310.268C729.834 310.909 729.158 311.351 728.292 311.596L724.307 312.719C723.441 312.964 722.76 312.904 722.263 312.54C721.778 312.161 721.535 311.521 721.535 310.621V306.481C721.535 305.581 721.778 304.811 722.263 304.17C722.76 303.514 723.441 303.064 724.307 302.819L728.292 301.696C729.158 301.451 729.834 301.519 730.319 301.898C730.815 302.262 731.064 302.894 731.064 303.794V307.934ZM728.032 304.919C728.032 304.439 727.801 304.264 727.339 304.394L725.26 304.981C724.798 305.111 724.567 305.416 724.567 305.896V309.496C724.567 309.976 724.798 310.151 725.26 310.021L727.339 309.434C727.801 309.304 728.032 308.999 728.032 308.519V304.919ZM736.259 298.729C734.757 299.152 734.007 298.584 734.007 297.024V296.484L736.259 295.849V296.299C736.259 296.479 736.317 296.612 736.432 296.7C736.548 296.787 736.692 296.807 736.865 296.758L737.385 296.611C737.558 296.562 737.703 296.462 737.818 296.309C737.934 296.156 737.991 295.99 737.991 295.81V295.36L740.243 294.725V295.265C740.243 296.825 739.493 297.817 737.991 298.24L736.259 298.729ZM738.598 298.969L741.803 298.065V307.605L738.771 308.46V303.24L735.826 309.291L732.621 310.195V300.655L735.653 299.8V305.02L738.598 298.969ZM315.937 448.212C315.88 449.068 315.649 449.823 315.244 450.477L318.276 449.622V444.942L316.111 445.553L315.937 448.212ZM321.308 441.657V448.767L322.607 448.401V452.991L319.731 453.802L319.558 451.69L314.222 453.195L314.049 455.404L311.173 456.215V451.625L312.299 451.308C312.761 450.613 313.021 449.91 313.079 449.198L313.425 443.88L321.308 441.657ZM328.938 441.935C328.326 442.108 327.633 442.423 326.859 442.881V447.201L329.458 446.469C329.92 446.338 330.151 446.033 330.151 445.553V442.223C330.151 442.043 330.093 441.909 329.977 441.822C329.862 441.735 329.718 441.715 329.544 441.764L328.938 441.935ZM326.859 449.631V452.691L323.827 453.546V440.946L326.513 440.189L326.686 441.04C327.229 440.515 327.783 440.089 328.349 439.761C328.926 439.418 329.412 439.192 329.804 439.081L330.584 438.861C331.369 438.639 331.999 438.708 332.472 439.066C332.946 439.425 333.182 440.012 333.182 440.828V444.968C333.182 445.868 332.934 446.646 332.437 447.302C331.952 447.943 331.277 448.385 330.411 448.63L326.859 449.631ZM336.996 450.013C336.384 450.185 335.633 450.337 334.744 450.468V448.128L336.303 447.688C336.742 447.564 337.025 447.358 337.152 447.071C337.29 446.78 337.267 446.432 337.082 446.028L333.531 438.21L336.736 437.306L338.901 442.815L340.72 436.182L343.925 435.278L340.461 446.155C340.126 447.198 339.693 448.034 339.161 448.664C338.63 449.306 337.908 449.755 336.996 450.013ZM351.9 433.029V435.459L347.482 436.705V443.815L344.451 444.67V435.13L351.9 433.029ZM357.448 434.434V436.684L355.282 437.295V435.045L353.29 436.777L352.251 435.27L354.329 433.424L352.251 432.75L353.29 430.657L355.282 431.265V429.015L357.448 428.404V430.654L359.44 428.923L360.48 430.429L358.401 432.276L360.48 432.949L359.44 435.043L357.448 434.434ZM375.897 426.261V435.801L372.865 436.656V429.546L369.747 430.426V437.536L366.715 438.391V428.851L375.897 426.261ZM386.982 429.975C386.982 430.875 386.734 431.653 386.237 432.309C385.752 432.95 385.076 433.392 384.21 433.637L380.226 434.76C379.36 435.005 378.678 434.945 378.181 434.581C377.696 434.202 377.454 433.562 377.454 432.662V428.522C377.454 427.622 377.696 426.852 378.181 426.211C378.678 425.555 379.36 425.105 380.226 424.86L384.21 423.737C385.076 423.492 385.752 423.56 386.237 423.939C386.734 424.303 386.982 424.935 386.982 425.835V429.975ZM383.95 426.96C383.95 426.48 383.719 426.305 383.257 426.435L381.179 427.022C380.717 427.152 380.486 427.457 380.486 427.937V431.537C380.486 432.017 380.717 432.192 381.179 432.062L383.257 431.475C383.719 431.345 383.95 431.04 383.95 430.56V426.96ZM389.579 432.123C389.082 432.263 388.505 432.366 387.846 432.431V430.091L388.539 429.896C388.978 429.772 389.209 429.467 389.232 428.98L389.579 422.403L397.894 420.057V429.597L394.863 430.452V423.342L392.437 424.026L392.177 428.69C392.131 429.519 391.871 430.246 391.398 430.872C390.924 431.497 390.318 431.914 389.579 432.123ZM402.046 431.666C401.434 431.839 400.683 431.991 399.794 432.122V429.782L401.353 429.342C401.792 429.218 402.075 429.012 402.202 428.724C402.341 428.433 402.318 428.086 402.133 427.682L398.581 419.864L401.786 418.96L403.952 424.469L405.771 417.836L408.976 416.932L405.511 427.809C405.176 428.852 404.743 429.688 404.212 430.318C403.68 430.96 402.958 431.409 402.046 431.666ZM412.966 420.217C413.947 419.94 414.756 419.682 415.391 419.443V415.123L418.423 414.268V423.808L415.391 424.663V421.783C414.155 422.251 413 422.637 411.926 422.94C411.141 423.161 410.511 423.093 410.038 422.735C409.564 422.376 409.328 421.789 409.328 420.973V416.833L412.359 415.978V419.758C412.359 419.938 412.417 420.072 412.533 420.159C412.648 420.246 412.793 420.266 412.966 420.217ZM426.136 412.092L429.341 411.188V420.728L426.309 421.583V416.363L423.364 422.414L420.159 423.318V413.778L423.191 412.923V418.143L426.136 412.092ZM436.269 411.665V418.775L433.237 419.63V412.52L430.379 413.326V410.896L439.127 408.428V410.858L436.269 411.665ZM443.725 409.202C443.263 409.332 443.032 409.637 443.032 410.117V411.107L445.977 410.277V409.287C445.977 408.807 445.746 408.632 445.284 408.762L443.725 409.202ZM448.662 415.099C446.433 415.968 444.412 416.658 442.599 417.169C441.814 417.391 441.184 417.322 440.711 416.964C440.237 416.606 440 416.018 440 415.202V410.882C440 409.982 440.243 409.212 440.728 408.571C441.225 407.915 441.906 407.465 442.772 407.221L446.237 406.243C447.103 405.999 447.779 406.066 448.264 406.446C448.761 406.81 449.009 407.442 449.009 408.342V411.672L443.032 413.357V414.077C443.032 414.257 443.09 414.391 443.205 414.478C443.321 414.566 443.465 414.585 443.638 414.536C444.782 414.214 446.456 413.651 448.662 412.849V415.099ZM464.937 401.149V410.689L461.905 411.544V404.434L458.787 405.314V412.424L455.755 413.279V403.739L464.937 401.149ZM476.022 404.863C476.022 405.763 475.774 406.541 475.277 407.197C474.792 407.838 474.117 408.28 473.251 408.525L469.266 409.648C468.4 409.893 467.718 409.833 467.222 409.469C466.737 409.09 466.494 408.45 466.494 407.55V403.41C466.494 402.51 466.737 401.74 467.222 401.099C467.718 400.443 468.4 399.993 469.266 399.748L473.251 398.625C474.117 398.38 474.792 398.448 475.277 398.827C475.774 399.191 476.022 399.823 476.022 400.723V404.863ZM472.991 401.848C472.991 401.368 472.76 401.193 472.298 401.323L470.219 401.91C469.757 402.04 469.526 402.345 469.526 402.825V406.425C469.526 406.905 469.757 407.08 470.219 406.95L472.298 406.363C472.76 406.233 472.991 405.928 472.991 405.448V401.848ZM489.96 403.632V393.822L487.967 395.104L487.101 393.278L490.306 390.935L493.078 390.153V402.753L489.96 403.632ZM501.918 391.08C501.918 390.36 501.572 390.097 500.879 390.293L498.973 390.83C498.28 391.026 497.933 391.483 497.933 392.203V397.963C497.933 398.683 498.28 398.946 498.973 398.75L500.879 398.213C501.572 398.017 501.918 397.56 501.918 396.84V391.08ZM505.036 395.96C505.036 397.22 504.759 398.216 504.205 398.949C503.662 399.666 502.784 400.195 501.572 400.537L498.28 401.466C497.067 401.808 496.184 401.775 495.629 401.367C495.087 400.944 494.815 400.103 494.815 398.843V393.083C494.815 391.823 495.087 390.834 495.629 390.117C496.184 389.385 497.067 388.848 498.28 388.506L501.572 387.577C502.784 387.235 503.662 387.276 504.205 387.699C504.759 388.106 505.036 388.94 505.036 390.2V395.96ZM513.524 387.806C513.524 387.086 513.177 386.824 512.484 387.02L510.579 387.557C509.886 387.753 509.539 388.21 509.539 388.93V394.69C509.539 395.41 509.886 395.673 510.579 395.477L512.484 394.94C513.177 394.744 513.524 394.286 513.524 393.566V387.806ZM516.642 392.687C516.642 393.947 516.365 394.943 515.811 395.676C515.268 396.393 514.39 396.922 513.177 397.264L509.886 398.193C508.673 398.535 507.79 398.502 507.235 398.094C506.692 397.671 506.421 396.83 506.421 395.57V389.81C506.421 388.55 506.692 387.561 507.235 386.844C507.79 386.112 508.673 385.575 509.886 385.233L513.177 384.304C514.39 383.962 515.268 384.003 515.811 384.426C516.365 384.833 516.642 385.667 516.642 386.927V392.687ZM528.505 385.651C527.892 385.824 527.2 386.14 526.426 386.598V390.918L529.024 390.185C529.486 390.055 529.717 389.749 529.717 389.269V385.939C529.717 385.759 529.66 385.626 529.544 385.538C529.429 385.451 529.284 385.432 529.111 385.48L528.505 385.651ZM526.426 393.348V396.408L523.394 397.263V384.663L526.079 383.906L526.252 384.757C526.795 384.232 527.35 383.805 527.916 383.478C528.493 383.135 528.978 382.908 529.371 382.797L530.15 382.577C530.936 382.356 531.565 382.424 532.039 382.783C532.512 383.141 532.749 383.728 532.749 384.544V388.684C532.749 389.584 532.501 390.362 532.004 391.019C531.519 391.659 530.843 392.102 529.977 392.346L526.426 393.348ZM536.562 393.729C535.95 393.902 535.2 394.053 534.31 394.184V391.844L535.869 391.404C536.308 391.281 536.591 391.075 536.718 390.787C536.857 390.496 536.834 390.148 536.649 389.745L533.098 381.926L536.303 381.022L538.468 386.532L540.287 379.898L543.492 378.995L540.027 389.872C539.692 390.914 539.259 391.75 538.728 392.38C538.197 393.022 537.475 393.472 536.562 393.729ZM546.876 379.66C547.996 379.104 548.978 378.707 549.821 378.47L550.6 378.25C551.386 378.028 552.015 378.097 552.489 378.455C552.962 378.814 553.199 379.401 553.199 380.217V383.097C553.199 383.997 552.951 384.775 552.454 385.431C551.969 386.072 551.293 386.514 550.427 386.759L546.616 387.834C545.75 388.078 545.068 388.018 544.572 387.654C544.086 387.275 543.844 386.635 543.844 385.735V379.345C543.844 378.481 544.121 377.677 544.676 376.933C545.241 376.185 546.004 375.616 546.962 375.226L552.853 372.845L553.112 375.291L547.742 377.436C547.164 377.671 546.876 378.052 546.876 378.58V379.66ZM549.474 384.597C549.936 384.467 550.167 384.162 550.167 383.682V381.432C550.167 381.252 550.11 381.118 549.994 381.031C549.879 380.943 549.734 380.924 549.561 380.973L548.955 381.144C548.504 381.271 548.1 381.409 547.742 381.558C547.384 381.707 547.095 381.824 546.876 381.91V384.61C546.876 385.09 547.107 385.265 547.569 385.135L549.474 384.597ZM555.63 385.291C555.134 385.431 554.556 385.534 553.898 385.6V383.26L554.591 383.064C555.03 382.941 555.261 382.635 555.284 382.149L555.63 375.571L563.946 373.226V382.766L560.914 383.621V376.511L558.489 377.195L558.229 381.858C558.183 382.687 557.923 383.415 557.45 384.04C556.976 384.666 556.37 385.083 555.63 385.291ZM569.224 373.807C568.762 373.938 568.531 374.243 568.531 374.723V375.713L571.476 374.882V373.892C571.476 373.412 571.245 373.237 570.783 373.368L569.224 373.807ZM574.161 379.705C571.932 380.574 569.911 381.264 568.098 381.775C567.312 381.997 566.683 381.928 566.209 381.57C565.736 381.211 565.499 380.624 565.499 379.808V375.488C565.499 374.588 565.742 373.818 566.227 373.177C566.723 372.521 567.405 372.07 568.271 371.826L571.736 370.849C572.602 370.605 573.278 370.672 573.763 371.051C574.259 371.415 574.508 372.047 574.508 372.947V376.277L568.531 377.963V378.683C568.531 378.863 568.589 378.997 568.704 379.084C568.82 379.171 568.964 379.191 569.137 379.142C570.281 378.819 571.955 378.257 574.161 377.455V379.705ZM579.698 367.883C578.197 368.307 577.446 367.739 577.446 366.179V365.639L579.698 365.003V365.453C579.698 365.633 579.756 365.767 579.872 365.855C579.987 365.942 580.131 365.961 580.305 365.912L580.824 365.766C580.998 365.717 581.142 365.616 581.257 365.464C581.373 365.311 581.431 365.145 581.431 364.965V364.515L583.683 363.88V364.42C583.683 365.98 582.932 366.971 581.431 367.395L579.698 367.883ZM582.037 368.124L585.242 367.22V376.76L582.21 377.615V372.395L579.265 378.446L576.06 379.349V369.809L579.092 368.954V374.174L582.037 368.124ZM598.316 367.043V363.533L601.348 362.677V372.217L598.316 373.073V369.473L595.198 370.352V373.952L592.166 374.807V365.267L595.198 364.412V367.922L598.316 367.043ZM606.717 368.363C607.329 368.191 608.022 367.875 608.795 367.417V366.337L606.283 367.046C606.11 367.094 605.966 367.195 605.85 367.348C605.735 367.5 605.677 367.667 605.677 367.847V368.027C605.677 368.207 605.735 368.34 605.85 368.428C605.966 368.515 606.11 368.534 606.283 368.486L606.717 368.363ZM603.512 362.247C605.625 361.411 607.531 360.754 609.229 360.275C610.014 360.053 610.643 360.122 611.117 360.48C611.59 360.839 611.827 361.426 611.827 362.242V369.262L609.142 370.019L608.969 369.168C608.426 369.693 607.866 370.127 607.288 370.47C606.722 370.798 606.243 371.017 605.85 371.128L605.244 371.299C604.459 371.52 603.829 371.452 603.356 371.093C602.882 370.735 602.645 370.148 602.645 369.332V368.522C602.645 367.706 602.882 366.985 603.356 366.359C603.829 365.734 604.459 365.31 605.244 365.089L608.795 364.087V363.367C608.795 363.187 608.738 363.053 608.622 362.966C608.507 362.879 608.362 362.859 608.189 362.908C607.438 363.12 606.607 363.39 605.694 363.72C604.794 364.046 604.066 364.305 603.512 364.497V362.247ZM625.592 363.76L623.34 364.395L621.607 361.644V366.504L618.576 367.359V357.819L621.78 356.915L624.466 361.198L627.151 355.4L630.356 354.496V364.036L627.324 364.891V360.031L625.592 363.76ZM641.448 358.208C641.448 359.108 641.2 359.886 640.703 360.542C640.218 361.183 639.543 361.626 638.676 361.87L634.692 362.994C633.826 363.238 633.144 363.178 632.647 362.814C632.162 362.435 631.92 361.795 631.92 360.895V356.755C631.92 355.855 632.162 355.085 632.647 354.444C633.144 353.788 633.826 353.338 634.692 353.094L638.676 351.97C639.543 351.726 640.218 351.793 640.703 352.172C641.2 352.536 641.448 353.168 641.448 354.068V358.208ZM638.416 355.193C638.416 354.713 638.185 354.538 637.723 354.669L635.645 355.255C635.183 355.385 634.952 355.69 634.952 356.17V359.77C634.952 360.25 635.183 360.425 635.645 360.295L637.723 359.709C638.185 359.578 638.416 359.273 638.416 358.793V355.193ZM645.864 351.743C646.984 351.187 647.966 350.79 648.809 350.552L649.589 350.332C650.374 350.111 651.003 350.179 651.477 350.538C651.95 350.896 652.187 351.483 652.187 352.299V355.179C652.187 356.079 651.939 356.857 651.442 357.513C650.957 358.154 650.281 358.597 649.415 358.841L645.604 359.916C644.738 360.16 644.056 360.101 643.56 359.737C643.075 359.357 642.832 358.718 642.832 357.818V351.428C642.832 350.564 643.109 349.76 643.664 349.015C644.23 348.268 644.992 347.699 645.95 347.308L651.841 344.927L652.101 347.374L646.73 349.518C646.153 349.753 645.864 350.135 645.864 350.663V351.743ZM648.462 356.68C648.924 356.55 649.155 356.244 649.155 355.764V353.514C649.155 353.334 649.098 353.201 648.982 353.113C648.867 353.026 648.722 353.007 648.549 353.055L647.943 353.226C647.492 353.353 647.088 353.491 646.73 353.64C646.372 353.789 646.083 353.907 645.864 353.993V356.693C645.864 357.173 646.095 357.348 646.557 357.217L648.462 356.68ZM659.556 346.261L662.761 345.357V354.897L659.729 355.752V350.532L656.784 356.583L653.579 357.487V347.947L656.611 347.092V352.312L659.556 346.261ZM665.531 354.296C665.034 354.436 664.457 354.539 663.798 354.605V352.265L664.491 352.069C664.93 351.945 665.161 351.64 665.184 351.154L665.531 344.576L673.846 342.231V351.771L670.815 352.626V345.516L668.389 346.2L668.129 350.863C668.083 351.692 667.823 352.42 667.35 353.045C666.876 353.671 666.27 354.088 665.531 354.296ZM675.573 351.284V341.744L678.605 340.889V343.859L682.156 342.857C682.941 342.636 683.571 342.704 684.044 343.063C684.518 343.421 684.755 344.008 684.755 344.824V345.994C684.755 346.81 684.518 347.531 684.044 348.157C683.571 348.782 682.941 349.206 682.156 349.427L675.573 351.284ZM681.117 347.47C681.29 347.422 681.434 347.321 681.55 347.168C681.665 347.016 681.723 346.849 681.723 346.669V345.859C681.723 345.679 681.665 345.546 681.55 345.458C681.434 345.371 681.29 345.352 681.117 345.4L678.605 346.109V348.179L681.117 347.47ZM692.111 340.59V337.08L695.142 336.225V345.765L692.111 346.62V343.02L688.992 343.899V347.499L685.961 348.354V338.814L688.992 337.959V341.469L692.111 340.59ZM696.873 345.277V335.737L699.904 334.882V337.852L703.283 336.899C704.068 336.677 704.698 336.746 705.171 337.104C705.645 337.463 705.881 338.05 705.881 338.866V340.036C705.881 340.852 705.645 341.573 705.171 342.198C704.698 342.824 704.068 343.247 703.283 343.469L696.873 345.277ZM702.243 341.512C702.416 341.463 702.561 341.363 702.676 341.21C702.792 341.057 702.85 340.891 702.85 340.711V339.919C702.85 339.739 702.792 339.605 702.676 339.518C702.561 339.431 702.416 339.411 702.243 339.46L699.904 340.12V342.172L702.243 341.512ZM710.039 341.563L707.007 342.418V332.878L710.039 332.023V341.563ZM715.416 329.607C713.914 330.031 713.164 329.462 713.164 327.902V327.362L715.416 326.727V327.177C715.416 327.357 715.473 327.491 715.589 327.578C715.704 327.666 715.849 327.685 716.022 327.636L716.542 327.49C716.715 327.441 716.859 327.34 716.975 327.187C717.09 327.035 717.148 326.868 717.148 326.688V326.238L719.4 325.603V326.143C719.4 327.703 718.65 328.695 717.148 329.118L715.416 329.607ZM717.755 329.847L720.959 328.944V338.484L717.928 339.339V334.119L714.983 340.169L711.778 341.073V331.533L714.809 330.678V335.898L717.755 329.847ZM722.69 335.296L725.808 334.416V337.116L722.69 337.996V335.296ZM723.036 334.118L722.69 330.436V325.396L725.808 324.516V329.556L725.462 333.434L723.036 334.118Z" fill="white"/>
<path d="M48.9149 216.484L37.6542 219.66V183.26L22.0143 187.671V224.071L10.7536 227.247V181.747L48.9149 170.984V216.484ZM56.4514 168.859L82.7264 161.448C87.1056 160.213 90.2753 160.359 92.2355 161.886C94.2374 163.358 95.2384 166.37 95.2384 170.92V177.42C95.2384 181.97 94.2374 185.567 92.2355 188.211C90.2753 190.801 87.1056 192.713 82.7264 193.948L67.7121 198.183V211.183L56.4514 214.359V168.859ZM83.9776 174.095C83.9776 171.495 82.7264 170.548 80.2241 171.254L67.7121 174.783V189.083L80.2241 185.554C82.7264 184.848 83.9776 183.195 83.9776 180.595V174.095ZM139.028 191.07L127.767 194.246V166.296L112.753 198.48L100.866 201.832V156.332L112.127 153.156V181.106L127.141 148.922L139.028 145.57V191.07ZM157.825 185.768L146.564 188.944V143.444L180.659 133.828V142.928L157.825 149.368V185.768ZM195.075 165.838C194.866 169.017 193.907 171.757 192.197 174.059C190.487 176.318 188.381 177.801 185.878 178.506C183.376 179.212 181.02 179.66 178.809 179.85V171.075L181.624 170.281C182.417 170.058 183.063 169.594 183.564 168.889C184.106 168.173 184.398 167.397 184.44 166.562L186.316 132.233L221.037 122.441V167.941L209.776 171.117V134.717L196.639 138.422L195.075 165.838ZM236.371 163.616L224.172 167.056L240.75 116.881L253.262 113.352L269.841 154.177L257.642 157.617L254.826 150.286L239.187 154.697L236.371 163.616ZM242.002 145.453L252.011 142.63L247.006 128.766L242.002 145.453ZM328.019 137.769L272.966 153.295V107.795L284.227 104.619V141.019L294.862 138.02V101.62L306.123 98.4439V134.844L316.758 131.845V95.4445L328.019 92.2687V137.769ZM343.346 133.446L331.147 136.886L347.725 86.7109L360.237 83.1822L376.815 124.007L364.616 127.447L361.801 120.116L346.161 124.527L343.346 133.446ZM348.976 115.283L358.986 112.46L353.981 98.5966L348.976 115.283ZM406.841 115.538V87.5884L391.827 119.773L379.941 123.125V77.6251L391.201 74.4493V102.399L406.216 70.2148L418.102 66.8625V112.363L406.841 115.538ZM395.581 69.9642C390.159 71.4933 387.448 69.4412 387.448 63.8079V61.8579L395.581 59.5642V61.1892C395.581 61.8392 395.789 62.3221 396.206 62.6378C396.623 62.9535 397.145 63.0231 397.77 62.8467L399.647 62.3174C400.273 62.141 400.794 61.7773 401.211 61.2263C401.628 60.6753 401.837 60.0749 401.837 59.4249V57.7999L409.969 55.5062V57.4562C409.969 63.0895 407.258 66.6707 401.837 68.1999L395.581 69.9642ZM17.0095 244.982L49.8533 235.719V272.119L54.5453 270.796V288.346L43.9102 291.346L43.2846 283.072L18.8863 289.953L18.2607 298.579L7.6256 301.579V284.029L11.692 282.882C12.9015 281.111 13.7981 279.255 14.382 277.313C15.0076 275.317 15.3621 273.57 15.4455 272.073L17.0095 244.982ZM38.5926 275.295V247.995L27.0191 251.259L26.0807 267.774C25.9556 270.453 25.33 273.294 24.2039 276.298C23.7451 277.554 23.2238 278.72 22.6399 279.794L38.5926 275.295ZM59.5672 232.98L85.8422 225.569C90.2214 224.334 93.3911 224.48 95.3513 226.008C97.3532 227.48 98.3541 230.491 98.3541 235.041V241.541C98.3541 246.091 97.3532 249.688 95.3513 252.333C93.3911 254.922 90.2214 256.834 85.8422 258.069L70.8279 262.304V275.304L59.5672 278.48V232.98ZM87.0934 238.217C87.0934 235.617 85.8422 234.669 83.3398 235.375L70.8279 238.904V253.204L83.3398 249.675C85.8422 248.969 87.0934 247.317 87.0934 244.717V238.217ZM113.27 263.984C111.185 264.572 109.037 264.961 106.827 265.151V256.376L112.457 254.788C113.666 254.447 114.501 253.714 114.959 252.588C115.168 252.095 115.272 251.611 115.272 251.134C115.272 250.614 115.168 250.189 114.959 249.858L97.7554 222.21L110.267 218.681L121.528 238.58L130.912 212.858L143.424 209.33L127.471 249.579C126.011 253.414 124.26 256.465 122.216 258.731C119.964 261.186 116.982 262.937 113.27 263.984ZM143.451 245.397C154.086 243.048 161.593 241.256 165.972 240.02C166.931 239.75 167.682 239.257 168.224 238.54C168.808 237.769 169.1 236.885 169.1 235.888V233.288C169.1 230.688 167.849 229.741 165.347 230.447L150.332 234.681V225.581L164.095 221.7C166.598 220.994 167.849 219.341 167.849 216.741V215.441C167.849 212.841 166.598 211.894 164.095 212.6L144.076 218.246V209.146L167.223 202.618C171.311 201.465 174.314 201.593 176.232 203.002C178.151 204.368 179.11 207.022 179.11 210.965C179.11 213.565 178.526 215.853 177.358 217.829C176.232 219.75 174.731 221.3 172.854 222.48C176.232 222.48 178.526 224.173 179.735 227.559C180.152 228.785 180.361 230.286 180.361 232.062V232.712C180.361 236.959 179.402 240.35 177.483 242.884C175.565 245.418 172.562 247.262 168.475 248.415C161.51 250.379 153.168 252.298 143.451 254.172V245.397ZM220.69 233.039L185.969 242.831V197.331L220.69 187.539V196.639L197.23 203.255V212.03L215.685 206.825V215.925L197.23 221.13V230.555L220.69 223.939V233.039ZM252.581 224.044V196.094L237.566 228.279L225.68 231.631V186.131L236.941 182.955V210.905L251.955 178.721L263.841 175.369V220.869L252.581 224.044ZM241.32 178.47C235.898 179.999 233.187 177.947 233.187 172.314V170.364L241.32 168.07V169.695C241.32 170.345 241.528 170.828 241.945 171.144C242.363 171.46 242.884 171.529 243.509 171.353L245.386 170.823C246.012 170.647 246.533 170.283 246.95 169.732C247.367 169.181 247.576 168.581 247.576 167.931V166.306L255.709 164.012V165.962C255.709 171.596 252.998 175.177 247.576 176.706L241.32 178.47ZM328.295 202.691L317.034 205.867V177.917L302.02 210.101L290.133 213.453V167.953L301.394 164.778V192.728L316.409 160.543L328.295 157.191V202.691ZM354.587 149.776L379.611 142.718C383.698 141.565 386.701 141.694 388.619 143.102C390.538 144.468 391.497 147.123 391.497 151.066C391.497 153.666 390.955 155.942 389.871 157.895C388.786 159.804 387.452 161.307 385.867 162.404C389.245 162.404 391.539 164.097 392.748 167.483C393.165 168.709 393.374 170.21 393.374 171.987C393.374 176.233 392.415 179.624 390.496 182.158C388.578 184.693 385.575 186.536 381.488 187.689L354.587 195.276V149.776ZM382.113 173.212C382.113 170.612 380.862 169.665 378.36 170.371L365.848 173.9V183L378.36 179.471C380.862 178.765 382.113 177.112 382.113 174.512V173.212ZM380.236 155.542C380.236 152.942 378.985 151.995 376.483 152.7L365.848 155.7V164.8L376.483 161.8C378.985 161.095 380.236 159.442 380.236 156.842V155.542ZM436.538 146.813L427.779 165.533L419.021 168.003L410.263 154.223V179.573L399.002 182.749V137.249L410.888 133.897L423.4 154.418L435.912 126.84L447.798 123.487V168.987L436.538 172.163V146.813ZM490.05 157.071L455.33 166.863V121.363L490.05 111.571V120.671L466.591 127.287V136.062L485.046 130.857V139.957L466.591 145.162V154.587L490.05 147.971V157.071ZM528.823 145.486C519.522 148.976 511.807 151.585 505.676 153.314C501.588 154.467 498.586 154.317 496.667 152.865C494.749 151.413 493.789 148.563 493.789 144.316V123.516C493.789 118.966 494.769 115.397 496.73 112.807C498.732 110.163 501.922 108.223 506.301 106.988L528.823 100.636V109.736L508.804 115.382C506.301 116.088 505.05 117.741 505.05 120.341V141.141C505.05 142.137 505.321 142.863 505.863 143.316C506.447 143.715 507.177 143.791 508.053 143.544C508.929 143.297 509.888 143.026 510.931 142.732C511.973 142.395 513.058 142.046 514.184 141.685C515.31 141.324 516.436 140.963 517.562 140.602C518.73 140.229 520.21 139.725 522.004 139.089C523.839 138.442 526.112 137.649 528.823 136.711V145.486ZM555.105 138.724L543.844 141.9V105.5L530.707 109.205V100.105L568.243 89.5185V98.6185L555.105 102.324V138.724ZM607.35 123.989L572.629 133.781V88.2814L607.35 78.4892V87.5892L583.89 94.2055V102.981L602.345 97.7756V106.876L583.89 112.081V121.506L607.35 114.889V123.989ZM10.7536 320.747L35.7774 313.689C39.8646 312.537 42.8675 312.665 44.786 314.074C46.7045 315.439 47.6637 318.094 47.6637 322.037C47.6637 324.637 47.1216 326.913 46.0372 328.866C44.9528 330.775 43.6182 332.278 42.0334 333.375C45.4116 333.375 47.7054 335.069 48.9149 338.454C49.332 339.68 49.5405 341.181 49.5405 342.958C49.5405 347.204 48.5813 350.595 46.6628 353.129C44.7443 355.664 41.7414 357.507 37.6542 358.66L10.7536 366.247V320.747ZM38.2798 344.183C38.2798 341.583 37.0286 340.636 34.5262 341.342L22.0143 344.871V353.971L34.5262 350.442C37.0286 349.736 38.2798 348.083 38.2798 345.483V344.183ZM36.403 326.513C36.403 323.913 35.1518 322.966 32.6494 323.671L22.0143 326.671V335.771L32.6494 332.771C35.1518 332.066 36.403 330.413 36.403 327.813V326.513ZM66.4292 320.645L80.8179 316.587C85.197 315.351 88.3667 315.498 90.3269 317.025C92.3288 318.497 93.3298 321.508 93.3298 326.058V329.958C93.3298 334.508 92.3288 338.105 90.3269 340.75C88.3667 343.339 85.197 345.251 80.8179 346.487L55.1684 353.72V308.22L66.4292 305.045V320.645ZM109.595 338.37L98.3346 341.546V296.046L109.595 292.87V338.37ZM82.0691 329.234C82.0691 326.634 80.8179 325.687 78.3155 326.392L66.4292 329.745V341.445L78.3155 338.092C80.8179 337.387 82.0691 335.734 82.0691 333.134V329.234ZM155.278 325.486L144.018 328.662V300.712L129.003 332.897L117.117 336.249V290.749L128.378 287.573V315.523L143.392 283.339L155.278 279.986V325.486ZM174.076 320.185L162.815 323.361V277.861L196.91 268.245V277.345L174.076 283.785V320.185ZM201.304 267.006L227.579 259.596C231.958 258.361 235.128 258.507 237.088 260.034C239.09 261.506 240.091 264.517 240.091 269.067V275.567C240.091 280.117 239.09 283.714 237.088 286.359C235.128 288.948 231.958 290.861 227.579 292.096L212.564 296.33V309.33L201.304 312.506V267.006ZM228.83 272.243C228.83 269.643 227.579 268.696 225.076 269.401L212.564 272.93V287.23L225.076 283.701C227.579 282.996 228.83 281.343 228.83 278.743V272.243ZM256.979 266.904L271.368 262.846C275.747 261.611 278.917 261.757 280.877 263.284C282.879 264.756 283.88 267.767 283.88 272.317V276.217C283.88 280.767 282.879 284.364 280.877 287.009C278.917 289.598 275.747 291.511 271.368 292.746L245.719 299.98V254.48L256.979 251.304V266.904ZM300.145 284.63L288.885 287.806V242.306L300.145 239.13V284.63ZM272.619 275.493C272.619 272.893 271.368 271.946 268.866 272.652L256.979 276.004V287.704L268.866 284.352C271.368 283.646 272.619 281.993 272.619 279.393V275.493ZM307.667 237.008L332.691 229.951C336.778 228.798 339.781 228.926 341.7 230.335C343.618 231.701 344.577 234.355 344.577 238.299C344.577 240.899 344.035 243.175 342.951 245.127C341.867 247.036 340.532 248.54 338.947 249.637C342.325 249.637 344.619 251.33 345.829 254.716C346.246 255.941 346.454 257.443 346.454 259.219C346.454 263.466 345.495 266.857 343.576 269.391C341.658 271.925 338.655 273.769 334.568 274.922L307.667 282.508V237.008ZM335.193 260.445C335.193 257.845 333.942 256.898 331.44 257.604L318.928 261.132V270.232L331.44 266.704C333.942 265.998 335.193 264.345 335.193 261.745V260.445ZM333.317 242.774C333.317 240.174 332.066 239.227 329.563 239.933L318.928 242.932V252.032L329.563 249.033C332.066 248.327 333.317 246.674 333.317 244.074V242.774ZM359.902 267.777L347.703 271.217L364.281 221.042L376.793 217.513L393.371 258.337L381.172 261.778L378.357 254.447L362.717 258.858L359.902 267.777ZM365.532 249.614L375.542 246.791L370.537 232.927L365.532 249.614ZM423.398 249.869V221.919L408.383 254.103L396.497 257.456V211.956L407.758 208.78V236.73L422.772 204.545L434.658 201.193V246.693L423.398 249.869ZM412.137 204.295C406.715 205.824 404.004 203.772 404.004 198.139V196.189L412.137 193.895V195.52C412.137 196.17 412.345 196.653 412.762 196.968C413.18 197.284 413.701 197.354 414.326 197.177L416.203 196.648C416.829 196.472 417.35 196.108 417.767 195.557C418.184 195.006 418.393 194.406 418.393 193.756V192.131L426.526 189.837V191.787C426.526 197.42 423.815 201.001 418.393 202.531L412.137 204.295ZM463.465 238.569L452.204 241.745V205.345L439.067 209.05V199.95L476.603 189.364V198.464L463.465 202.169V238.569ZM515.71 223.834L480.989 233.627V188.127L515.71 178.334V187.434L492.25 194.051V202.826L510.705 197.621V206.721L492.25 211.926V221.351L515.71 214.734V223.834ZM48.9149 429.484L37.6542 432.66V396.26L22.0143 400.671V437.071L10.7536 440.247V394.747L48.9149 383.984V429.484ZM56.4514 381.859L82.7264 374.448C87.1056 373.213 90.2753 373.359 92.2355 374.886C94.2374 376.358 95.2384 379.37 95.2384 383.92V390.42C95.2384 394.97 94.2374 398.567 92.2355 401.211C90.2753 403.801 87.1056 405.713 82.7264 406.948L67.7121 411.183V424.183L56.4514 427.359V381.859ZM83.9776 387.095C83.9776 384.495 82.7264 383.548 80.2241 384.254L67.7121 387.783V402.083L80.2241 398.554C82.7264 397.848 83.9776 396.195 83.9776 393.595V387.095ZM139.028 404.07L127.767 407.246V379.296L112.753 411.48L100.866 414.832V369.332L112.127 366.156V394.106L127.141 361.922L139.028 358.57V404.07ZM144.062 393.225C154.697 390.875 162.204 389.083 166.583 387.848C167.542 387.578 168.293 387.084 168.835 386.368C169.419 385.597 169.711 384.713 169.711 383.716V381.116C169.711 378.516 168.46 377.569 165.958 378.275L150.943 382.509V373.409L164.706 369.527C167.209 368.822 168.46 367.169 168.46 364.569V363.269C168.46 360.669 167.209 359.722 164.706 360.427L144.687 366.073V356.973L167.834 350.445C171.922 349.293 174.924 349.421 176.843 350.83C178.761 352.195 179.721 354.85 179.721 358.793C179.721 361.393 179.137 363.681 177.969 365.657C176.843 367.578 175.342 369.128 173.465 370.307C176.843 370.308 179.137 372.001 180.346 375.387C180.763 376.612 180.972 378.113 180.972 379.89V380.54C180.972 384.787 180.013 388.177 178.094 390.712C176.176 393.246 173.173 395.09 169.086 396.242C162.121 398.207 153.779 400.126 144.062 402V393.225ZM197.841 357.583L212.23 353.525C216.609 352.289 219.779 352.436 221.739 353.963C223.741 355.435 224.742 358.446 224.742 362.996V366.896C224.742 371.446 223.741 375.043 221.739 377.688C219.779 380.277 216.609 382.189 212.23 383.425L186.58 390.658V345.158L197.841 341.983V357.583ZM241.007 375.308L229.746 378.484V332.984L241.007 329.808V375.308ZM213.481 366.172C213.481 363.572 212.23 362.625 209.727 363.33L197.841 366.683V378.383L209.727 375.03C212.23 374.325 213.481 372.672 213.481 370.072V366.172ZM247.903 363.614L259.164 360.438V370.188L247.903 373.364V363.614ZM249.154 359.361L247.903 346.064V327.864L259.164 324.688V342.888L257.913 356.891L249.154 359.361Z" fill="white"/>
<path d="M276.951 175.613V179.363L273.342 180.381V176.631L270.021 179.518L268.289 177.006L271.754 173.929L268.289 172.806L270.021 169.318L273.342 170.331V166.581L276.951 165.563V169.313L280.271 166.427L282.004 168.938L278.539 172.016L282.004 173.138L280.271 176.627L276.951 175.613Z" fill="white"/>
<path d="M273.949 328.883V332.633L270.34 333.651V329.901L267.019 332.788L265.287 330.276L268.752 327.199L265.287 326.076L267.019 322.588L270.34 323.601V319.851L273.949 318.833V322.583L277.269 319.697L279.002 322.208L275.537 325.285L279.002 326.408L277.269 329.897L273.949 328.883Z" fill="white"/>
<path d="M289.949 324.807V328.557L286.34 329.575V325.825L283.019 328.711L281.287 326.2L284.752 323.123L281.287 322L283.019 318.511L286.34 319.525V315.775L289.949 314.757V318.507L293.269 315.62L295.002 318.132L291.537 321.209L295.002 322.332L293.269 325.82L289.949 324.807Z" fill="white"/>
<defs>
<linearGradient id="paint0_linear" x1="0" y1="0" x2="538.141" y2="127.635" gradientUnits="userSpaceOnUse">
<stop stop-color="#FF54B1"/>
<stop offset="1" stop-color="#2E98EC"/>
</linearGradient>
<linearGradient id="paint1_linear" x1="0" y1="0" x2="315.194" y2="41.5592" gradientUnits="userSpaceOnUse">
<stop stop-color="#FF54B1"/>
<stop offset="1" stop-color="#2E98EC"/>
</linearGradient>
<linearGradient id="paint2_linear" x1="271.327" y1="2.38142" x2="11.8269" y2="-53.3772" gradientUnits="userSpaceOnUse">
<stop stop-color="#FF2DA0"/>
<stop offset="1" stop-color="#2E98EC"/>
</linearGradient>
</defs>
</svg>
