<svg width="328" height="327" viewBox="0 0 328 327" fill="none" xmlns="http://www.w3.org/2000/svg">
<path d="M0 139.04L286.224 58.3168V94.781L0 175.505V139.04Z" fill="url(#paint0_linear)"/>
<path d="M0 179.004L164 132.751V169.756L0 216.009V179.004Z" fill="url(#paint1_linear)"/>
<path d="M26.4175 86.9363L20.3361 88.6514V68.9935L11.8898 71.3756V91.0335L5.80841 92.7486V68.1763L26.4175 62.3639V86.9363Z" fill="white"/>
<path d="M30.4876 61.2161L44.6774 57.2141C47.0424 56.5471 48.7542 56.626 49.8128 57.4507C50.8939 58.2457 51.4345 59.8718 51.4345 62.3291V65.8394C51.4345 68.2966 50.8939 70.2394 49.8128 71.6676C48.7542 73.066 47.0424 74.0988 44.6774 74.7658L36.5689 77.0526V84.0733L30.4876 85.7884V61.2161ZM45.3531 64.0442C45.3531 62.6401 44.6774 62.1286 43.326 62.5097L36.5689 64.4154V72.1381L43.326 70.2324C44.6774 69.8513 45.3531 68.9587 45.3531 67.5545V64.0442Z" fill="white"/>
<path d="M75.0829 73.2112L69.0016 74.9263V59.8319L60.8931 77.2131L54.4739 79.0236V54.4512L60.5552 52.7361V67.8305L68.6637 50.4493L75.0829 48.6389V73.2112Z" fill="white"/>
<path d="M85.2344 70.3482L79.153 72.0633V47.491L97.566 42.298V47.2124L85.2344 50.6903V70.3482Z" fill="white"/>
<path d="M105.351 59.5847C105.239 61.3014 104.721 62.7814 103.797 64.0248C102.874 65.2447 101.736 66.0452 100.385 66.4264C99.0333 66.8075 97.7607 67.0494 96.567 67.1521V62.4131L98.0873 61.9843C98.5153 61.8636 98.8644 61.6131 99.1347 61.2326C99.4275 60.8458 99.5852 60.4269 99.6077 59.9759L100.621 41.4363L119.372 36.148V60.7203L113.291 62.4355V42.7776L106.196 44.7786L105.351 59.5847Z" fill="white"/>
<path d="M127.653 58.3848L121.065 60.2428L130.018 33.1454L136.776 31.2397L145.729 53.287L139.141 55.1451L137.62 51.1859L129.174 53.5681L127.653 58.3848ZM130.694 48.5758L136.1 47.0513L133.397 39.5643L130.694 48.5758Z" fill="white"/>
<path d="M177.148 44.4259L147.417 52.811V28.2387L153.498 26.5235V46.1814L159.242 44.5616V24.9037L165.323 23.1886V42.8464L171.066 41.2266V21.5687L177.148 19.8536V44.4259Z" fill="white"/>
<path d="M185.425 42.0915L178.837 43.9495L187.79 16.8521L194.547 14.9464L203.5 36.9937L196.912 38.8518L195.392 34.8926L186.946 37.2748L185.425 42.0915ZM188.466 32.2826L193.872 30.758L191.169 23.271L188.466 32.2826Z" fill="white"/>
<path d="M219.716 32.4204V17.326L211.607 34.7073L205.188 36.5177V11.9454L211.27 10.2302V25.3247L219.378 7.9434L225.797 6.133V30.7053L219.716 32.4204ZM213.635 7.80808C210.707 8.63388 209.243 7.52563 209.243 4.48334V3.43024L213.635 2.19155V3.06913C213.635 3.42016 213.747 3.68093 213.972 3.85143C214.198 4.02193 214.479 4.05954 214.817 3.96425L215.831 3.6784C216.169 3.58311 216.45 3.3867 216.675 3.08915C216.901 2.7916 217.013 2.46732 217.013 2.11628V1.2387L221.405 0V1.0531C221.405 4.09539 219.941 6.02943 217.013 6.85523L213.635 7.80808Z" fill="white"/>
<path d="M9.18695 102.327L26.9243 97.3243V116.982L29.4582 116.268V125.745L23.7147 127.365L23.3768 122.897L10.2005 126.613L9.86265 131.272L4.11914 132.892V123.414L6.31519 122.795C6.96837 121.838 7.45263 120.836 7.76796 119.787C8.10581 118.709 8.29727 117.766 8.34231 116.957L9.18695 102.327ZM20.8429 118.697V103.954L14.5926 105.717L14.0858 114.635C14.0183 116.082 13.6804 117.617 13.0723 119.239C12.8245 119.917 12.543 120.547 12.2276 121.127L20.8429 118.697Z" fill="white"/>
<path d="M32.1702 95.8448L46.3601 91.8429C48.7251 91.1759 50.4369 91.2548 51.4955 92.0795C52.5766 92.8745 53.1172 94.5006 53.1172 96.9578V100.468C53.1172 102.925 52.5766 104.868 51.4955 106.296C50.4369 107.695 48.7251 108.728 46.3601 109.395L38.2516 111.681V118.702L32.1702 120.417V95.8448ZM47.0358 98.673C47.0358 97.2688 46.3601 96.7573 45.0087 97.1385L38.2516 99.0442V106.767L45.0087 104.861C46.3601 104.48 47.0358 103.587 47.0358 102.183V98.673Z" fill="white"/>
<path d="M61.1726 112.589C60.0464 112.906 58.8865 113.116 57.6927 113.219V108.48L60.7334 107.623C61.3866 107.438 61.837 107.042 62.0848 106.434C62.1974 106.168 62.2537 105.907 62.2537 105.649C62.2537 105.368 62.1974 105.139 62.0848 104.96L52.7938 90.0284L59.5509 88.1227L65.6323 98.8692L70.7001 84.9783L77.4572 83.0726L68.8419 104.809C68.0536 106.88 67.1076 108.528 66.0039 109.752C64.7876 111.078 63.1772 112.023 61.1726 112.589Z" fill="white"/>
<path d="M77.4717 102.551C83.2152 101.282 87.2694 100.314 89.6344 99.6471C90.1524 99.501 90.5579 99.2346 90.8507 98.8478C91.166 98.4312 91.3237 97.9538 91.3237 97.4156V96.0114C91.3237 94.6073 90.648 94.0958 89.2965 94.4769L81.1881 96.7638V91.8493L88.6208 89.753C89.9723 89.3719 90.648 88.4792 90.648 87.0751V86.3731C90.648 84.9689 89.9723 84.4574 88.6208 84.8386L77.8095 87.8877V82.9732L90.3101 79.4477C92.5174 78.8251 94.1391 78.8943 95.1752 79.6552C96.2113 80.3927 96.7293 81.8263 96.7293 83.9559C96.7293 85.36 96.414 86.5956 95.7833 87.6628C95.1752 88.7002 94.3644 89.5373 93.3508 90.1742C95.1752 90.1745 96.414 91.0889 97.0672 92.9172C97.2924 93.5792 97.405 94.3899 97.405 95.3494V95.7004C97.405 97.9938 96.887 99.8249 95.8509 101.194C94.8148 102.562 93.1931 103.558 90.9858 104.18C87.2244 105.241 82.7197 106.278 77.4717 107.29V102.551Z" fill="white"/>
<path d="M119.185 95.8765L100.434 101.165V76.5925L119.185 71.3042V76.2187L106.515 79.7918V84.5308L116.482 81.7199V86.6343L106.515 89.4452V94.5352L119.185 90.9621V95.8765Z" fill="white"/>
<path d="M136.407 91.0192V75.9248L128.299 93.3061L121.88 95.1165V70.5442L127.961 68.829V83.9234L136.069 66.5422L142.489 64.7318V89.3041L136.407 91.0192ZM130.326 66.4069C127.398 67.2327 125.934 66.1244 125.934 63.0821V62.029L130.326 60.7903V61.6679C130.326 62.019 130.439 62.2797 130.664 62.4502C130.889 62.6207 131.171 62.6583 131.508 62.563L132.522 62.2772C132.86 62.1819 133.141 61.9855 133.367 61.6879C133.592 61.3904 133.705 61.0661 133.705 60.7151V59.8375L138.097 58.5988V59.6519C138.097 62.6942 136.633 64.6282 133.705 65.454L130.326 66.4069Z" fill="white"/>
<path d="M177.297 79.4872L171.216 81.2023V66.1079L163.107 83.4891L156.688 85.2996V60.7272L162.769 59.0121V74.1065L170.878 56.7253L177.297 54.9149V79.4872Z" fill="white"/>
<path d="M191.496 50.9103L205.01 47.0989C207.217 46.4764 208.839 46.5456 209.875 47.3065C210.911 48.044 211.429 49.4775 211.429 51.6071C211.429 53.0112 211.137 54.2405 210.551 55.295C209.965 56.326 209.245 57.1377 208.389 57.7302C210.213 57.7305 211.452 58.6448 212.105 60.4732C212.33 61.1352 212.443 61.9459 212.443 62.9054C212.443 65.1988 211.925 67.0298 210.889 68.3985C209.853 69.7673 208.231 70.7629 206.024 71.3854L191.496 75.4826V50.9103ZM206.362 63.5674C206.362 62.1632 205.686 61.6517 204.334 62.0329L197.577 63.9386V68.853L204.334 66.9473C205.686 66.5662 206.362 65.6736 206.362 64.2694V63.5674ZM205.348 54.0243C205.348 52.6202 204.672 52.1087 203.321 52.4898L197.577 54.1096V59.0241L203.321 57.4043C204.672 57.0231 205.348 56.1305 205.348 54.7264V54.0243Z" fill="white"/>
<path d="M235.753 49.3104L231.024 59.4202L226.294 60.7542L221.564 53.3124V67.0027L215.482 68.7178V44.1455L221.901 42.3351L228.659 53.4176L235.416 38.5237L241.835 36.7133V61.2856L235.753 63.0007V49.3104Z" fill="white"/>
<path d="M264.653 54.8502L245.902 60.1385V35.5661L264.653 30.2778V35.1923L251.984 38.7655V43.5044L261.95 40.6935V45.608L251.984 48.4189V53.5089L264.653 49.9357V54.8502Z" fill="white"/>
<path d="M285.592 48.5937C280.569 50.4783 276.403 51.8875 273.092 52.8213C270.884 53.4438 269.263 53.363 268.227 52.5787C267.19 51.7944 266.672 50.2555 266.672 47.9621V36.729C266.672 34.2718 267.202 32.344 268.26 30.9455C269.341 29.5173 271.064 28.4697 273.429 27.8027L285.592 24.3724V29.2869L274.781 32.336C273.429 32.7171 272.754 33.6098 272.754 35.0139V46.247C272.754 46.7852 272.9 47.1769 273.193 47.4219C273.508 47.6372 273.902 47.6782 274.375 47.5448C274.848 47.4114 275.366 47.2653 275.93 47.1065C276.493 46.9243 277.078 46.7357 277.686 46.5408C278.294 46.3459 278.903 46.151 279.511 45.956C280.141 45.7548 280.941 45.4825 281.91 45.1391C282.901 44.7894 284.128 44.3613 285.592 43.8548V48.5937Z" fill="white"/>
<path d="M299.786 44.9417L293.705 46.6568V26.999L286.61 28.9999V24.0855L306.881 18.3684V23.2828L299.786 25.2838V44.9417Z" fill="white"/>
<path d="M328.001 36.9843L309.25 42.2726V17.7003L328.001 12.412V17.3265L315.331 20.8996V25.6386L325.298 22.8277V27.7421L315.331 30.553V35.643L328.001 32.0698V36.9843Z" fill="white"/>
<path d="M5.80841 143.243L19.3226 139.432C21.5299 138.809 23.1516 138.879 24.1877 139.64C25.2237 140.377 25.7418 141.811 25.7418 143.94C25.7418 145.344 25.449 146.574 24.8634 147.628C24.2777 148.659 23.557 149.471 22.7011 150.063C24.5255 150.064 25.7643 150.978 26.4175 152.806C26.6427 153.468 26.7553 154.279 26.7553 155.238C26.7553 157.532 26.2373 159.363 25.2012 160.732C24.1651 162.1 22.5434 163.096 20.3361 163.718L5.80841 167.816V143.243ZM20.674 155.9C20.674 154.496 19.9983 153.985 18.6469 154.366L11.8898 156.272V161.186L18.6469 159.28C19.9983 158.899 20.674 158.007 20.674 156.603V155.9ZM19.6604 146.357C19.6604 144.953 18.9847 144.442 17.6333 144.823L11.8898 146.443V151.357L17.6333 149.737C18.9847 149.356 19.6604 148.464 19.6604 147.059V146.357Z" fill="white"/>
<path d="M35.8761 143.188L43.6467 140.997C46.0117 140.33 47.7235 140.409 48.7821 141.233C49.8632 142.028 50.4038 143.654 50.4038 146.112V148.218C50.4038 150.675 49.8632 152.618 48.7821 154.046C47.7235 155.445 46.0117 156.477 43.6467 157.144L29.7947 161.051V136.479L35.8761 134.763V143.188ZM59.188 152.761L53.1066 154.476V129.904L59.188 128.189V152.761ZM44.3224 147.827C44.3224 146.423 43.6467 145.911 42.2953 146.292L35.8761 148.103V154.421L42.2953 152.611C43.6467 152.23 44.3224 151.337 44.3224 149.933V147.827Z" fill="white"/>
<path d="M83.8592 145.803L77.7779 147.518V132.424L69.6694 149.805L63.2501 151.615V127.043L69.3315 125.328V140.422L77.44 123.041L83.8592 121.231V145.803Z" fill="white"/>
<path d="M94.0107 142.94L87.9293 144.655V120.083L106.342 114.89V119.804L94.0107 123.282V142.94Z" fill="white"/>
<path d="M108.715 114.221L122.905 110.219C125.27 109.552 126.982 109.631 128.04 110.455C129.122 111.25 129.662 112.876 129.662 115.334V118.844C129.662 121.301 129.122 123.244 128.04 124.672C126.982 126.071 125.27 127.103 122.905 127.77L114.797 130.057V137.078L108.715 138.793V114.221ZM123.581 117.049C123.581 115.645 122.905 115.133 121.554 115.514L114.797 117.42V125.143L121.554 123.237C122.905 122.856 123.581 121.963 123.581 120.559V117.049Z" fill="white"/>
<path d="M138.783 114.166L146.553 111.974C148.918 111.307 150.63 111.386 151.689 112.211C152.77 113.006 153.311 114.632 153.311 117.089V119.195C153.311 121.652 152.77 123.595 151.689 125.023C150.63 126.422 148.918 127.454 146.553 128.121L132.702 132.028V107.456L138.783 105.741V114.166ZM162.095 123.738L156.013 125.454V100.881L162.095 99.1661V123.738ZM147.229 118.804C147.229 117.4 146.554 116.888 145.202 117.27L138.783 119.08V125.399L145.202 123.588C146.554 123.207 147.229 122.314 147.229 120.91V118.804Z" fill="white"/>
<path d="M166.157 98.0204L179.671 94.209C181.878 93.5865 183.5 93.6557 184.536 94.4166C185.572 95.1541 186.09 96.5876 186.09 98.7172C186.09 100.121 185.798 101.351 185.212 102.405C184.626 103.436 183.906 104.248 183.05 104.84C184.874 104.841 186.113 105.755 186.766 107.583C186.991 108.245 187.104 109.056 187.104 110.015C187.104 112.309 186.586 114.14 185.55 115.509C184.514 116.877 182.892 117.873 180.685 118.496L166.157 122.593V98.0204ZM181.023 110.678C181.023 109.273 180.347 108.762 178.995 109.143L172.238 111.049V115.963L178.995 114.057C180.347 113.676 181.023 112.784 181.023 111.38V110.678ZM180.009 101.134C180.009 99.7303 179.333 99.2188 177.982 99.5999L172.238 101.22V106.134L177.982 104.514C179.333 104.133 180.009 103.241 180.009 101.837V101.134Z" fill="white"/>
<path d="M194.366 114.637L187.778 116.495L196.731 89.3975L203.488 87.4919L212.442 109.539L205.853 111.397L204.333 107.438L195.887 109.82L194.366 114.637ZM197.407 104.828L202.813 103.303L200.11 95.8164L197.407 104.828Z" fill="white"/>
<path d="M228.657 104.966V89.8714L220.549 107.253L214.13 109.063V84.4908L220.211 82.7756V97.8701L228.319 80.4888L234.739 78.6784V103.251L228.657 104.966ZM222.576 80.3535C219.648 81.1793 218.184 80.071 218.184 77.0288V75.9756L222.576 74.737V75.6145C222.576 75.9656 222.688 76.2263 222.914 76.3968C223.139 76.5673 223.42 76.6049 223.758 76.5097L224.772 76.2238C225.11 76.1285 225.391 75.9321 225.617 75.6346C225.842 75.337 225.954 75.0127 225.954 74.6617V73.7841L230.347 72.5454V73.5985C230.347 76.6408 228.882 78.5748 225.954 79.4006L222.576 80.3535Z" fill="white"/>
<path d="M250.296 98.8632L244.214 100.578V80.9204L237.119 82.9214V78.0069L257.391 72.2899V77.2043L250.296 79.2053V98.8632Z" fill="white"/>
<path d="M278.51 90.9058L259.76 96.1941V71.6218L278.51 66.3335V71.2479L265.841 74.8211V79.56L275.808 76.7491V81.6636L265.841 84.4745V89.5645L278.51 85.9913V90.9058Z" fill="white"/>
<path d="M26.4175 201.967L20.3361 203.682V184.024L11.8898 186.407V206.064L5.80841 207.779V183.207L26.4175 177.395V201.967Z" fill="white"/>
<path d="M30.4876 176.247L44.6774 172.245C47.0424 171.578 48.7542 171.657 49.8128 172.482C50.8939 173.277 51.4345 174.903 51.4345 177.36V180.87C51.4345 183.328 50.8939 185.27 49.8128 186.698C48.7542 188.097 47.0424 189.13 44.6774 189.797L36.5689 192.083V199.104L30.4876 200.819V176.247ZM45.3531 179.075C45.3531 177.671 44.6774 177.159 43.326 177.541L36.5689 179.446V187.169L43.326 185.263C44.6774 184.882 45.3531 183.99 45.3531 182.585V179.075Z" fill="white"/>
<path d="M75.0829 188.242L69.0016 189.957V174.863L60.8931 192.244L54.4739 194.054V169.482L60.5552 167.767V182.861L68.6637 165.48L75.0829 163.67V188.242Z" fill="white"/>
<path d="M77.8016 182.385C83.5451 181.117 87.5994 180.149 89.9643 179.482C90.4824 179.336 90.8878 179.069 91.1806 178.682C91.4959 178.266 91.6536 177.788 91.6536 177.25V175.846C91.6536 174.442 90.9779 173.93 89.6265 174.311L81.518 176.598V171.684L88.9508 169.588C90.3022 169.206 90.9779 168.314 90.9779 166.91V166.208C90.9779 164.803 90.3022 164.292 88.9508 164.673L78.1395 167.722V162.808L90.64 159.282C92.8474 158.66 94.469 158.729 95.5051 159.49C96.5412 160.227 97.0593 161.661 97.0593 163.79C97.0593 165.195 96.7439 166.43 96.1133 167.497C95.5051 168.535 94.6943 169.372 93.6807 170.009C95.5051 170.009 96.7439 170.923 97.3971 172.752C97.6224 173.414 97.735 174.224 97.735 175.184V175.535C97.735 177.828 97.2169 179.659 96.1808 181.028C95.1448 182.397 93.5231 183.392 91.3158 184.015C87.5543 185.076 83.0496 186.112 77.8016 187.124V182.385Z" fill="white"/>
<path d="M106.845 163.137L114.616 160.945C116.981 160.278 118.693 160.357 119.751 161.182C120.832 161.977 121.373 163.603 121.373 166.06V168.166C121.373 170.624 120.832 172.566 119.751 173.994C118.693 175.393 116.981 176.426 114.616 177.093L100.764 180.999V156.427L106.845 154.712V163.137ZM130.157 172.71L124.076 174.425V149.852L130.157 148.137V172.71ZM115.291 167.775C115.291 166.371 114.616 165.86 113.264 166.241L106.845 168.051V174.37L113.264 172.559C114.616 172.178 115.291 171.286 115.291 169.881V167.775Z" fill="white"/>
<path d="M133.881 166.394L139.963 164.679V169.944L133.881 171.659V166.394ZM134.557 164.097L133.881 156.916V147.087L139.963 145.372V155.201L139.287 162.763L134.557 164.097Z" fill="white"/>
<path d="M149.568 64.864V66.8892L147.618 67.439V65.4138L145.825 66.9726L144.89 65.6163L146.761 63.9545L144.89 63.3481L145.825 61.4641L147.618 62.0114V59.9863L149.568 59.4365V61.4617L151.361 59.9029L152.296 61.2592L150.425 62.921L152.296 63.5274L151.361 65.4114L149.568 64.864Z" fill="white"/>
<path d="M147.947 147.638V149.663L145.997 150.212V148.187L144.204 149.746L143.269 148.39L145.14 146.728L143.269 146.122L144.204 144.238L145.997 144.785V142.76L147.947 142.21V144.235L149.74 142.676L150.675 144.033L148.804 145.695L150.675 146.301L149.74 148.185L147.947 147.638Z" fill="white"/>
<path d="M156.588 145.436V147.461L154.639 148.011V145.986L152.846 147.545L151.91 146.188L153.781 144.526L151.91 143.92L152.846 142.036L154.639 142.583V140.558L156.588 140.009V142.034L158.381 140.475L159.317 141.831L157.446 143.493L159.317 144.099L158.381 145.983L156.588 145.436Z" fill="white"/>
<rect width="188.868" height="16.4359" transform="matrix(0.962455 -0.271441 0 1 123 273.979)" fill="url(#paint2_linear)"/>
<path d="M0.250238 247.163C2.37726 246.694 3.87869 246.335 4.75453 246.088C4.94638 246.034 5.09652 245.935 5.20496 245.792C5.32174 245.638 5.38013 245.461 5.38013 245.262V244.742C5.38013 244.222 5.12989 244.032 4.62941 244.173L1.62655 245.02V243.2L4.37917 242.424C4.87965 242.283 5.12989 241.952 5.12989 241.432V241.172C5.12989 240.652 4.87965 240.463 4.37917 240.604L0.375358 241.733V239.913L5.00477 238.608C5.82221 238.377 6.42279 238.403 6.80648 238.684C7.19018 238.958 7.38203 239.488 7.38203 240.277C7.38203 240.797 7.26525 241.255 7.0317 241.65C6.80648 242.034 6.5062 242.344 6.13084 242.58C6.80648 242.58 7.26525 242.919 7.50715 243.596C7.59056 243.841 7.63227 244.141 7.63227 244.496V244.626C7.63227 245.476 7.44042 246.154 7.05672 246.661C6.67302 247.168 6.07245 247.536 5.25501 247.767C3.86201 248.16 2.19376 248.544 0.250238 248.918V247.163ZM15.3853 242.83C15.3853 243.48 15.2059 244.042 14.8472 244.516C14.4969 244.978 14.009 245.298 13.3834 245.475L10.5056 246.286C9.88002 246.463 9.38788 246.419 9.02921 246.157C8.67887 245.883 8.50371 245.421 8.50371 244.771V241.781C8.50371 241.131 8.67887 240.574 9.02921 240.112C9.38788 239.638 9.88002 239.313 10.5056 239.136L13.3834 238.325C14.009 238.148 14.4969 238.197 14.8472 238.471C15.2059 238.734 15.3853 239.19 15.3853 239.84V242.83ZM13.1957 240.652C13.1957 240.306 13.0289 240.18 12.6952 240.274L11.1938 240.697C10.8601 240.791 10.6933 241.012 10.6933 241.358V243.958C10.6933 244.305 10.8601 244.431 11.1938 244.337L12.6952 243.914C13.0289 243.82 13.1957 243.599 13.1957 243.252V240.652ZM21.2644 243.122L16.5099 244.463V237.573L20.889 236.338C21.4479 236.18 21.8983 236.226 22.2403 236.477C22.5907 236.716 22.7658 237.048 22.7658 237.472C22.7658 237.897 22.6782 238.268 22.5031 238.586C22.3279 238.905 22.0818 239.156 21.7649 239.341C22.1402 239.304 22.4614 239.404 22.7283 239.641C23.0036 239.875 23.1412 240.253 23.1412 240.773C23.1412 241.293 22.966 241.775 22.6157 242.221C22.2737 242.664 21.8233 242.964 21.2644 243.122ZM20.9516 241C20.9516 240.87 20.9099 240.773 20.8265 240.71C20.7431 240.647 20.6388 240.633 20.5137 240.669L18.6995 241.18V242.285L20.5137 241.774C20.6388 241.738 20.7431 241.666 20.8265 241.555C20.9099 241.445 20.9516 241.325 20.9516 241.195V241ZM20.5762 238.441C20.5762 238.311 20.5345 238.214 20.4511 238.151C20.3677 238.088 20.2634 238.074 20.1383 238.109L18.6995 238.515V239.685L20.1383 239.279C20.2634 239.244 20.3677 239.171 20.4511 239.061C20.5345 238.951 20.5762 238.831 20.5762 238.701V238.441ZM28.3287 234.239L30.6434 233.587V240.477L28.4539 241.094V237.324L26.3268 241.694L24.0121 242.347V235.457L26.2017 234.839V238.609L28.3287 234.239ZM38.5846 234.987C38.5429 235.605 38.3761 236.151 38.0841 236.623L40.2737 236.006V232.626L38.7097 233.067L38.5846 234.987ZM42.4633 230.253V235.388L43.4017 235.123V238.438L41.3247 239.024L41.1996 237.5L37.3459 238.586L37.2208 240.182L35.1438 240.767V237.452L35.9571 237.223C36.2908 236.722 36.4784 236.214 36.5201 235.699L36.7704 231.859L42.4633 230.253ZM47.9739 230.454C47.5318 230.579 47.0314 230.806 46.4725 231.137V234.257L48.3493 233.728C48.6829 233.634 48.8498 233.414 48.8498 233.067V230.662C48.8498 230.532 48.808 230.435 48.7246 230.372C48.6412 230.309 48.537 230.295 48.4118 230.33L47.9739 230.454ZM46.4725 236.012V238.222L44.2829 238.84V229.74L46.2223 229.193L46.3474 229.808C46.7394 229.428 47.1398 229.121 47.5485 228.884C47.9656 228.636 48.3159 228.473 48.5995 228.393L49.1626 228.234C49.7298 228.074 50.1844 228.123 50.5264 228.382C50.8683 228.641 51.0393 229.065 51.0393 229.654V232.644C51.0393 233.294 50.86 233.856 50.5013 234.33C50.151 234.793 49.663 235.113 49.0374 235.289L46.4725 236.012ZM53.7934 236.288C53.3513 236.412 52.8092 236.522 52.1669 236.616V234.926L53.293 234.609C53.6099 234.519 53.8143 234.371 53.906 234.163C54.0061 233.953 53.9894 233.702 53.856 233.41L51.291 227.763L53.6058 227.111L55.1697 231.09L56.4835 226.299L58.7982 225.646L56.2958 233.502C56.0539 234.255 55.7411 234.859 55.3574 235.314C54.9737 235.777 54.4524 236.102 53.7934 236.288ZM58.8021 230.845C60.3953 230.526 61.6465 230.238 62.5557 229.981C62.6808 229.946 62.7851 229.873 62.8685 229.763C62.9519 229.653 62.9936 229.533 62.9936 229.403V229.208C62.9936 229.078 62.9519 228.981 62.8685 228.918C62.7851 228.855 62.6808 228.841 62.5557 228.876L59.8031 229.653V228.028L62.3054 227.322C62.4306 227.287 62.5348 227.214 62.6182 227.104C62.7017 226.994 62.7434 226.874 62.7434 226.744V226.614C62.7434 226.484 62.7017 226.387 62.6182 226.324C62.5348 226.261 62.4306 226.247 62.3054 226.282L58.9272 227.235V225.61L63.0562 224.445C63.615 224.288 64.0655 224.334 64.4074 224.584C64.7578 224.823 64.9329 225.155 64.9329 225.58C64.9329 226.447 64.5576 227.081 63.8069 227.484C64.1822 227.447 64.5034 227.547 64.7703 227.784C65.0456 228.018 65.1832 228.413 65.1832 228.967C65.1832 229.522 65.0122 230.025 64.6702 230.477C64.3282 230.929 63.8736 231.235 63.3064 231.395C61.9134 231.788 60.412 232.124 58.8021 232.405V230.845ZM68.6215 224.371C68.2879 224.465 68.121 224.685 68.121 225.032V225.747L70.2481 225.147V224.432C70.2481 224.085 70.0812 223.959 69.7476 224.053L68.6215 224.371ZM72.1874 228.63C70.5775 229.257 69.1178 229.756 67.8082 230.125C67.241 230.285 66.7864 230.236 66.4444 229.977C66.1025 229.718 65.9315 229.294 65.9315 228.704V225.584C65.9315 224.934 66.1066 224.378 66.457 223.915C66.8156 223.441 67.3078 223.116 67.9334 222.94L70.4357 222.234C71.0613 222.058 71.5493 222.106 71.8996 222.38C72.2583 222.643 72.4377 223.099 72.4377 223.749V226.154L68.121 227.372V227.892C68.121 228.022 68.1627 228.118 68.2462 228.182C68.3296 228.245 68.4338 228.259 68.559 228.223C69.3847 227.99 70.5942 227.584 72.1874 227.005V228.63ZM76.1863 220.092C75.102 220.398 74.5598 219.988 74.5598 218.861V218.471L76.1863 218.012V218.337C76.1863 218.467 76.228 218.564 76.3115 218.627C76.3949 218.69 76.4991 218.704 76.6243 218.669L76.9996 218.563C77.1247 218.528 77.229 218.455 77.3124 218.345C77.3958 218.234 77.4375 218.114 77.4375 217.984V217.659L79.0641 217.201V217.591C79.0641 218.717 78.5219 219.434 77.4375 219.739L76.1863 220.092ZM77.8755 220.266L80.1902 219.613V226.503L78.0006 227.121V223.351L75.8735 227.72L73.5588 228.373V221.483L75.7484 220.866V224.636L77.8755 220.266ZM84.693 220.488V222.113L83.129 222.554V220.929L81.6901 222.18L80.9394 221.092L82.4408 219.758L80.9394 219.272L81.6901 217.76L83.129 218.199V216.574L84.693 216.133V217.758L86.1319 216.507L86.8826 217.596L85.3811 218.929L86.8826 219.416L86.1319 220.927L84.693 220.488ZM95.8276 217.738V215.203L98.0172 214.585V221.475L95.8276 222.093V219.493L93.5755 220.128V222.728L91.3859 223.346V216.456L93.5755 215.838V218.373L95.8276 217.738ZM101.894 218.692C102.337 218.567 102.837 218.339 103.396 218.008V217.228L101.582 217.74C101.457 217.775 101.352 217.848 101.269 217.958C101.185 218.068 101.144 218.189 101.144 218.319V218.449C101.144 218.579 101.185 218.675 101.269 218.738C101.352 218.801 101.457 218.815 101.582 218.78L101.894 218.692ZM99.5797 214.275C101.106 213.671 102.482 213.196 103.709 212.85C104.276 212.69 104.73 212.74 105.072 212.999C105.414 213.257 105.585 213.682 105.585 214.271V219.341L103.646 219.888L103.521 219.273C103.129 219.652 102.724 219.966 102.307 220.213C101.899 220.45 101.552 220.608 101.269 220.688L100.831 220.812C100.264 220.972 99.8091 220.922 99.4671 220.663C99.1251 220.405 98.9541 219.98 98.9541 219.391V218.806C98.9541 218.217 99.1251 217.696 99.4671 217.244C99.8091 216.793 100.264 216.487 100.831 216.327L103.396 215.603V215.083C103.396 214.953 103.354 214.857 103.271 214.794C103.187 214.731 103.083 214.717 102.958 214.752C102.416 214.905 101.815 215.1 101.156 215.338C100.506 215.574 99.9801 215.761 99.5797 215.9V214.275ZM116.34 216.178C114.78 216.791 113.404 217.266 112.211 217.602C111.644 217.762 111.189 217.713 110.847 217.454C110.505 217.195 110.334 216.771 110.334 216.182V213.192C110.334 212.542 110.509 211.985 110.86 211.522C111.218 211.049 111.71 210.723 112.336 210.547L116.34 209.418V211.173L113.024 212.108C112.691 212.202 112.524 212.422 112.524 212.769V215.304C112.524 215.434 112.565 215.531 112.649 215.594C112.732 215.657 112.836 215.671 112.962 215.636C113.712 215.424 114.838 215.041 116.34 214.488V216.178ZM119.966 213.595C120.408 213.47 120.908 213.243 121.467 212.912V212.132L119.653 212.643C119.528 212.679 119.424 212.751 119.34 212.862C119.257 212.972 119.215 213.092 119.215 213.222V213.352C119.215 213.482 119.257 213.578 119.34 213.642C119.424 213.705 119.528 213.719 119.653 213.683L119.966 213.595ZM117.651 209.178C119.178 208.574 120.554 208.099 121.78 207.753C122.347 207.594 122.802 207.643 123.144 207.902C123.486 208.161 123.657 208.585 123.657 209.174V214.244L121.718 214.791L121.592 214.176C121.2 214.556 120.796 214.869 120.379 215.117C119.97 215.353 119.624 215.512 119.34 215.592L118.902 215.715C118.335 215.875 117.881 215.826 117.539 215.567C117.197 215.308 117.026 214.884 117.026 214.294V213.709C117.026 213.12 117.197 212.6 117.539 212.148C117.881 211.696 118.335 211.39 118.902 211.23L121.467 210.507V209.987C121.467 209.857 121.426 209.76 121.342 209.697C121.259 209.634 121.154 209.62 121.029 209.655C120.487 209.808 119.887 210.003 119.228 210.241C118.577 210.477 118.052 210.664 117.651 210.803V209.178ZM127.407 205.647C126.323 205.952 125.78 205.542 125.78 204.415V204.025L127.407 203.567V203.892C127.407 204.022 127.449 204.118 127.532 204.181C127.616 204.244 127.72 204.258 127.845 204.223L128.22 204.117C128.345 204.082 128.45 204.009 128.533 203.899C128.616 203.789 128.658 203.669 128.658 203.539V203.214L130.285 202.755V203.145C130.285 204.272 129.743 204.988 128.658 205.294L127.407 205.647ZM129.096 205.82L131.411 205.167V212.057L129.221 212.675V208.905L127.094 213.275L124.78 213.928V207.038L126.969 206.42V210.19L129.096 205.82ZM136.414 205.511V210.646L134.225 211.264V206.129L132.16 206.711V204.956L138.479 203.174V204.929L136.414 205.511ZM138.984 207.971L141.236 207.336V209.286L138.984 209.921V207.971ZM138.984 203.031L141.236 202.396V204.346L138.984 204.981V203.031ZM145.616 206.361C147.209 206.042 148.46 205.754 149.369 205.498C149.494 205.462 149.599 205.389 149.682 205.279C149.766 205.169 149.807 205.049 149.807 204.919V204.724C149.807 204.594 149.766 204.497 149.682 204.434C149.599 204.371 149.494 204.357 149.369 204.393L146.617 205.169V203.544L149.119 202.838C149.244 202.803 149.348 202.73 149.432 202.62C149.515 202.51 149.557 202.39 149.557 202.26V202.13C149.557 202 149.515 201.903 149.432 201.84C149.348 201.777 149.244 201.763 149.119 201.798L145.741 202.751V201.126L149.87 199.961C150.429 199.804 150.879 199.85 151.221 200.1C151.571 200.339 151.747 200.671 151.747 201.096C151.747 201.963 151.371 202.597 150.621 203C150.996 202.963 151.317 203.063 151.584 203.3C151.859 203.534 151.997 203.929 151.997 204.483C151.997 205.038 151.826 205.541 151.484 205.993C151.142 206.445 150.687 206.751 150.12 206.911C148.727 207.304 147.226 207.64 145.616 207.921V206.361ZM155.688 201.96C155.647 202.579 155.48 203.124 155.188 203.597L157.377 202.979V199.599L155.813 200.04L155.688 201.96ZM159.567 197.226V202.361L160.505 202.097V205.412L158.428 205.998L158.303 204.473L154.45 205.56L154.325 207.155L152.248 207.741V204.426L153.061 204.196C153.394 203.695 153.582 203.187 153.624 202.673L153.874 198.832L159.567 197.226ZM163.952 197.485C163.618 197.579 163.451 197.799 163.451 198.146V198.861L165.578 198.261V197.546C165.578 197.199 165.411 197.073 165.078 197.167L163.952 197.485ZM167.517 201.744C165.908 202.372 164.448 202.87 163.138 203.239C162.571 203.399 162.117 203.35 161.775 203.091C161.433 202.832 161.262 202.408 161.262 201.819V198.699C161.262 198.049 161.437 197.492 161.787 197.029C162.146 196.556 162.638 196.23 163.263 196.054L165.766 195.348C166.391 195.172 166.879 195.22 167.23 195.494C167.588 195.757 167.768 196.214 167.768 196.864V199.269L163.451 200.486V201.006C163.451 201.136 163.493 201.233 163.576 201.296C163.66 201.359 163.764 201.373 163.889 201.338C164.715 201.105 165.924 200.699 167.517 200.119V201.744ZM174.77 199.699C173.21 200.312 171.833 200.787 170.641 201.123C170.073 201.283 169.619 201.234 169.277 200.975C168.935 200.716 168.764 200.292 168.764 199.703V196.713C168.764 196.063 168.939 195.506 169.289 195.043C169.648 194.57 170.14 194.245 170.766 194.068L174.77 192.939V194.694L171.454 195.629C171.12 195.723 170.953 195.944 170.953 196.29V198.825C170.953 198.955 170.995 199.052 171.078 199.115C171.162 199.178 171.266 199.192 171.391 199.157C172.142 198.945 173.268 198.562 174.77 198.009V199.699ZM175.768 199.547V192.657L177.958 192.04V194.185L180.523 193.461C181.09 193.301 181.544 193.351 181.886 193.61C182.228 193.869 182.399 194.293 182.399 194.882V195.727C182.399 196.316 182.228 196.837 181.886 197.289C181.544 197.741 181.09 198.046 180.523 198.206L175.768 199.547ZM179.772 196.793C179.897 196.758 180.001 196.685 180.085 196.575C180.168 196.465 180.21 196.345 180.21 196.215V195.63C180.21 195.5 180.168 195.403 180.085 195.34C180.001 195.277 179.897 195.263 179.772 195.298L177.958 195.81V197.305L179.772 196.793ZM191.338 188.266L193.653 187.613V194.503L191.463 195.121V191.351L189.336 195.721L187.021 196.374V189.484L189.211 188.866V192.636L191.338 188.266ZM199.031 186.096L201.471 185.408L199.344 189.453L201.534 192.281L199.094 192.969L197.843 191.242L196.592 193.674L194.152 194.363L196.341 190.3L194.214 187.455L196.654 186.767L197.843 188.512L199.031 186.096ZM207.541 190.586L205.164 191.257L207.04 187.283L206.415 186.159C206.281 185.937 206.073 185.865 205.789 185.945L205.351 186.069V184.314L205.664 184.161C205.889 184.054 206.119 183.968 206.352 183.902C206.586 183.836 206.794 183.812 206.978 183.829C207.17 183.844 207.341 183.887 207.491 183.958C207.783 184.092 208.008 184.314 208.167 184.625L208.855 185.861L209.543 185.667V183.132L211.732 182.514V185.049L212.421 184.855L213.109 183.231C213.359 182.606 213.755 182.117 214.297 181.765C214.481 181.644 214.664 181.557 214.848 181.506C215.132 181.426 215.386 181.376 215.611 181.355L215.924 181.332V183.087L215.486 183.211C215.202 183.291 214.994 183.479 214.86 183.777L214.235 185.254L216.112 188.169L213.734 188.84L212.358 186.628L211.732 186.804V189.404L209.543 190.022V187.422L208.917 187.598L207.541 190.586ZM219.678 183.914C219.636 184.532 219.469 185.077 219.177 185.55L221.367 184.932V181.552L219.803 181.993L219.678 183.914ZM223.556 179.18V184.315L224.495 184.05V187.365L222.418 187.951L222.293 186.426L218.439 187.513L218.314 189.108L216.237 189.694V186.379L217.05 186.15C217.384 185.648 217.571 185.14 217.613 184.626L217.863 180.785L223.556 179.18ZM226.001 175.89L228.128 175.29V177.11L226.001 177.71V175.89ZM228.879 175.078L231.006 174.479V176.299L228.879 176.898V175.078ZM227.941 179.438C227.607 179.532 227.44 179.753 227.44 180.099V180.814L229.567 180.214V179.499C229.567 179.153 229.4 179.026 229.067 179.12L227.941 179.438ZM231.507 183.697C229.897 184.325 228.437 184.823 227.127 185.192C226.56 185.352 226.106 185.303 225.764 185.044C225.422 184.785 225.251 184.361 225.251 183.772V180.652C225.251 180.002 225.426 179.445 225.776 178.983C226.135 178.509 226.627 178.184 227.253 178.007L229.755 177.301C230.381 177.125 230.869 177.174 231.219 177.448C231.578 177.71 231.757 178.167 231.757 178.817V181.222L227.44 182.439V182.959C227.44 183.089 227.482 183.186 227.565 183.249C227.649 183.312 227.753 183.326 227.878 183.291C228.704 183.058 229.913 182.652 231.507 182.072V183.697ZM236.632 177.247V182.382L234.442 183V177.865L232.378 178.447V176.692L238.696 174.91V176.665L236.632 177.247ZM245.267 174.226C246.076 173.825 246.785 173.538 247.394 173.367L247.957 173.208C248.525 173.048 248.979 173.097 249.321 173.356C249.663 173.615 249.834 174.039 249.834 174.628V176.708C249.834 177.358 249.655 177.92 249.296 178.394C248.946 178.857 248.458 179.177 247.832 179.353L245.08 180.129C244.454 180.306 243.962 180.263 243.603 180C243.253 179.726 243.078 179.264 243.078 178.614V173.999C243.078 173.375 243.278 172.794 243.678 172.257C244.087 171.717 244.638 171.306 245.33 171.024L249.584 169.304L249.772 171.071L245.893 172.62C245.476 172.79 245.267 173.065 245.267 173.446V174.226ZM247.144 177.792C247.478 177.698 247.645 177.478 247.645 177.131V175.506C247.645 175.376 247.603 175.279 247.519 175.216C247.436 175.153 247.332 175.139 247.207 175.175L246.769 175.298C246.443 175.39 246.152 175.489 245.893 175.597C245.634 175.705 245.426 175.789 245.267 175.851V177.801C245.267 178.148 245.434 178.274 245.768 178.18L247.144 177.792ZM257.596 174.519C257.596 175.169 257.417 175.731 257.058 176.205C256.708 176.668 256.22 176.988 255.594 177.164L252.716 177.976C252.091 178.152 251.599 178.109 251.24 177.846C250.89 177.572 250.714 177.11 250.714 176.46V173.47C250.714 172.82 250.89 172.264 251.24 171.801C251.599 171.327 252.091 171.002 252.716 170.826L255.594 170.014C256.22 169.838 256.708 169.886 257.058 170.16C257.417 170.423 257.596 170.879 257.596 171.529V174.519ZM255.406 172.342C255.406 171.995 255.24 171.869 254.906 171.963L253.404 172.387C253.071 172.481 252.904 172.701 252.904 173.048V175.648C252.904 175.994 253.071 176.121 253.404 176.027L254.906 175.603C255.24 175.509 255.406 175.289 255.406 174.942V172.342ZM259.471 176.071C259.113 176.172 258.696 176.246 258.22 176.293V174.603L258.721 174.462C259.038 174.373 259.204 174.152 259.221 173.801L259.471 169.051L265.477 167.357V174.247L263.287 174.864V169.729L261.536 170.223L261.348 173.591C261.315 174.19 261.127 174.715 260.785 175.167C260.443 175.619 260.005 175.92 259.471 176.071ZM266.724 173.895V167.005L268.913 166.388V168.533L271.478 167.809C272.046 167.649 272.5 167.699 272.842 167.958C273.184 168.216 273.355 168.641 273.355 169.23V170.075C273.355 170.664 273.184 171.185 272.842 171.637C272.5 172.088 272.046 172.394 271.478 172.554L266.724 173.895ZM270.728 171.141C270.853 171.106 270.957 171.033 271.04 170.923C271.124 170.813 271.166 170.692 271.166 170.562V169.977C271.166 169.847 271.124 169.751 271.04 169.688C270.957 169.625 270.853 169.611 270.728 169.646L268.913 170.158V171.653L270.728 171.141ZM274.226 171.779V164.889L276.416 164.272V169.407L277.855 169.001V163.866L280.044 163.248V168.383L281.483 167.978V162.843L283.673 162.225V169.115L274.226 171.779ZM287.495 162.642C287.161 162.736 286.994 162.957 286.994 163.303V164.018L289.121 163.418V162.703C289.121 162.357 288.954 162.23 288.621 162.325L287.495 162.642ZM291.06 166.901C289.451 167.529 287.991 168.027 286.681 168.397C286.114 168.556 285.659 168.507 285.317 168.248C284.975 167.989 284.805 167.565 284.805 166.976V163.856C284.805 163.206 284.98 162.649 285.33 162.187C285.689 161.713 286.181 161.388 286.806 161.211L289.309 160.505C289.934 160.329 290.422 160.378 290.773 160.652C291.131 160.914 291.311 161.371 291.311 162.021V164.426L286.994 165.643V166.163C286.994 166.293 287.036 166.39 287.119 166.453C287.203 166.516 287.307 166.53 287.432 166.495C288.258 166.262 289.467 165.856 291.06 165.276V166.901ZM4.94221 258.835L7.25691 258.182V265.072L5.06733 265.69V261.92L2.9403 266.29L0.625596 266.943V260.053L2.81518 259.435V263.205L4.94221 258.835ZM12.9484 259.112V256.577L15.138 255.96V262.85L12.9484 263.467V260.867L10.6962 261.502V264.102L8.50664 264.72V257.83L10.6962 257.212V259.747L12.9484 259.112ZM25.2086 257.929C25.2086 258.579 25.0292 259.141 24.6706 259.615C24.3202 260.078 23.8323 260.398 23.2067 260.574L21.8304 260.962V263.172L19.6408 263.79V261.58L18.2645 261.968C17.6389 262.144 17.1467 262.101 16.7881 261.838C16.4377 261.564 16.2626 261.103 16.2626 260.453V257.723C16.2626 257.073 16.4377 256.516 16.7881 256.053C17.1467 255.579 17.6389 255.254 18.2645 255.078L19.6408 254.69V252.48L21.8304 251.862V254.072L23.2067 253.684C23.8323 253.508 24.3202 253.556 24.6706 253.83C25.0292 254.093 25.2086 254.549 25.2086 255.199V257.929ZM18.4521 259.64C18.4521 259.987 18.619 260.113 18.9526 260.019L19.8285 259.772V256.392L18.9526 256.639C18.619 256.733 18.4521 256.953 18.4521 257.3V259.64ZM23.019 256.012C23.019 255.665 22.8522 255.539 22.5185 255.633L21.7678 255.845V259.225L22.5185 259.013C22.8522 258.919 23.019 258.699 23.019 258.352V256.012ZM33.0901 255.837C33.0901 256.487 32.9108 257.049 32.5521 257.522C32.2018 257.985 31.7138 258.305 31.0882 258.481L28.2105 259.293C27.5849 259.469 27.0927 259.426 26.7341 259.163C26.3837 258.889 26.2086 258.427 26.2086 257.777V254.787C26.2086 254.137 26.3837 253.581 26.7341 253.118C27.0927 252.644 27.5849 252.319 28.2105 252.143L31.0882 251.331C31.7138 251.155 32.2018 251.204 32.5521 251.477C32.9108 251.74 33.0901 252.197 33.0901 252.847V255.837ZM30.9005 253.659C30.9005 253.313 30.7337 253.186 30.4001 253.28L28.8986 253.704C28.565 253.798 28.3981 254.018 28.3981 254.365V256.965C28.3981 257.312 28.565 257.438 28.8986 257.344L30.4001 256.92C30.7337 256.826 30.9005 256.606 30.9005 256.259V253.659ZM37.9057 251.293C37.4636 251.418 36.9632 251.646 36.4043 251.977V255.097L38.2811 254.568C38.6147 254.474 38.7816 254.253 38.7816 253.906V251.501C38.7816 251.371 38.7399 251.275 38.6565 251.212C38.573 251.149 38.4688 251.135 38.3437 251.17L37.9057 251.293ZM36.4043 256.852V259.062L34.2147 259.679V250.579L36.1541 250.033L36.2792 250.647C36.6712 250.268 37.0716 249.96 37.4803 249.723C37.8974 249.476 38.2477 249.312 38.5313 249.232L39.0944 249.073C39.6616 248.913 40.1162 248.963 40.4582 249.222C40.8002 249.481 40.9712 249.905 40.9712 250.494V253.484C40.9712 254.134 40.7918 254.696 40.4331 255.17C40.0828 255.632 39.5948 255.952 38.9693 256.129L36.4043 256.852ZM47.1631 252.648L45.5365 253.106L44.2853 251.119V254.629L42.0958 255.247V248.357L44.4105 247.704L46.3498 250.797L48.2892 246.61L50.6039 245.957V252.847L48.4143 253.465V249.955L47.1631 252.648ZM54.486 250.062C54.9281 249.938 55.4285 249.71 55.9874 249.379V248.599L54.1732 249.111C54.0481 249.146 53.9438 249.219 53.8604 249.329C53.777 249.439 53.7353 249.559 53.7353 249.689V249.819C53.7353 249.949 53.777 250.046 53.8604 250.109C53.9438 250.172 54.0481 250.186 54.1732 250.151L54.486 250.062ZM52.1713 245.645C53.6977 245.041 55.074 244.567 56.3002 244.221C56.8674 244.061 57.322 244.11 57.664 244.369C58.006 244.628 58.177 245.052 58.177 245.641V250.711L56.2377 251.258L56.1125 250.644C55.7205 251.023 55.3159 251.336 54.8989 251.584C54.4902 251.821 54.144 251.979 53.8604 252.059L53.4225 252.182C52.8553 252.342 52.4007 252.293 52.0587 252.034C51.7167 251.775 51.5457 251.351 51.5457 250.762V250.177C51.5457 249.587 51.7167 249.067 52.0587 248.615C52.4007 248.163 52.8553 247.857 53.4225 247.697L55.9874 246.974V246.454C55.9874 246.324 55.9457 246.227 55.8623 246.164C55.7789 246.101 55.6746 246.087 55.5495 246.122C55.0073 246.275 54.4067 246.471 53.7478 246.709C53.0972 246.944 52.5717 247.131 52.1713 247.27V245.645ZM64.6798 248.877L59.2997 250.395V243.505L61.4892 242.887V248.022L63.7414 247.387V242.252L65.931 241.635V246.77L66.8694 246.505V249.82L64.8049 250.402L64.6798 248.877ZM72.0594 239.906L74.3741 239.253V246.143L72.1845 246.761V242.991L70.0575 247.361L67.7428 248.014V241.124L69.9323 240.506V244.276L72.0594 239.906ZM79.9404 237.683L82.2551 237.031V243.921L80.0655 244.538V240.768L77.9385 245.138L75.6238 245.791V238.901L77.8134 238.283V242.053L79.9404 237.683ZM94.0124 238.655C94.0124 239.305 93.8331 239.867 93.4744 240.341C93.1241 240.803 92.6361 241.123 92.0105 241.299L89.1328 242.111C88.5072 242.287 88.015 242.244 87.6564 241.981C87.306 241.708 87.1309 241.246 87.1309 240.596V237.606C87.1309 236.956 87.306 236.399 87.6564 235.936C88.015 235.463 88.5072 235.137 89.1328 234.961L92.0105 234.149C92.6361 233.973 93.1241 234.022 93.4744 234.296C93.8331 234.558 94.0124 235.015 94.0124 235.665V238.655ZM91.8228 236.477C91.8228 236.131 91.656 236.004 91.3223 236.098L89.8209 236.522C89.4873 236.616 89.3204 236.836 89.3204 237.183V239.783C89.3204 240.13 89.4873 240.256 89.8209 240.162L91.3223 239.738C91.656 239.644 91.8228 239.424 91.8228 239.077V236.477ZM103.33 233.622V231.087L105.519 230.469V237.359L103.33 237.977V235.377L101.078 236.012V238.612L98.8881 239.23V232.34L101.078 231.722V234.257L103.33 233.622ZM109.397 234.576C109.839 234.451 110.339 234.223 110.898 233.893V233.113L109.084 233.624C108.959 233.659 108.855 233.732 108.771 233.842C108.688 233.953 108.646 234.073 108.646 234.203V234.333C108.646 234.463 108.688 234.559 108.771 234.622C108.855 234.686 108.959 234.699 109.084 234.664L109.397 234.576ZM107.082 230.159C108.608 229.555 109.985 229.08 111.211 228.734C111.778 228.574 112.233 228.624 112.575 228.883C112.917 229.142 113.088 229.566 113.088 230.155V235.225L111.148 235.772L111.023 235.157C110.631 235.536 110.227 235.85 109.81 236.098C109.401 236.334 109.055 236.492 108.771 236.572L108.333 236.696C107.766 236.856 107.311 236.806 106.969 236.548C106.627 236.289 106.456 235.865 106.456 235.275V234.69C106.456 234.101 106.627 233.58 106.969 233.129C107.311 232.677 107.766 232.371 108.333 232.211L110.898 231.488V230.968C110.898 230.838 110.856 230.741 110.773 230.678C110.69 230.615 110.585 230.601 110.46 230.636C109.918 230.789 109.317 230.984 108.658 231.222C108.008 231.458 107.482 231.645 107.082 231.784V230.159ZM114.21 234.908V228.018L116.4 227.401V232.536L117.839 232.13V226.995L120.028 226.378V231.513L121.467 231.107V225.972L123.657 225.354V232.244L114.21 234.908ZM129.231 223.782L131.545 223.129V230.019L129.356 230.637V226.867L127.229 231.237L124.914 231.89V225L127.103 224.382V228.152L129.231 223.782ZM136.924 221.612L139.364 220.924L137.237 224.969L139.426 227.797L136.986 228.485L135.735 226.758L134.484 229.191L132.044 229.879L134.234 225.816L132.107 222.971L134.547 222.283L135.735 224.028L136.924 221.612ZM150.313 217.836V224.726L148.124 225.344V220.209L145.871 220.844V225.979L143.682 226.597V219.707L150.313 217.836ZM155.254 218.198C154.812 218.323 154.311 218.55 153.752 218.881V222.001L155.629 221.472C155.963 221.378 156.13 221.158 156.13 220.811V218.406C156.13 218.276 156.088 218.179 156.005 218.116C155.921 218.053 155.817 218.039 155.692 218.074L155.254 218.198ZM153.752 223.756V225.966L151.563 226.584V217.484L153.502 216.937L153.627 217.552C154.019 217.172 154.42 216.864 154.828 216.628C155.246 216.38 155.596 216.216 155.879 216.136L156.442 215.978C157.01 215.818 157.464 215.867 157.806 216.126C158.148 216.385 158.319 216.809 158.319 217.398V220.388C158.319 221.038 158.14 221.6 157.781 222.074C157.431 222.537 156.943 222.857 156.317 223.033L153.752 223.756ZM166.2 218.296C166.2 218.946 166.021 219.508 165.662 219.981C165.312 220.444 164.824 220.764 164.198 220.94L161.321 221.752C160.695 221.928 160.203 221.885 159.844 221.622C159.494 221.348 159.319 220.886 159.319 220.236V217.246C159.319 216.596 159.494 216.04 159.844 215.577C160.203 215.103 160.695 214.778 161.321 214.602L164.198 213.79C164.824 213.614 165.312 213.663 165.662 213.936C166.021 214.199 166.2 214.656 166.2 215.306V218.296ZM164.011 216.118C164.011 215.772 163.844 215.645 163.51 215.739L162.009 216.163C161.675 216.257 161.508 216.477 161.508 216.824V219.424C161.508 219.771 161.675 219.897 162.009 219.803L163.51 219.379C163.844 219.285 164.011 219.065 164.011 218.718V216.118ZM170.265 215.849C170.224 216.468 170.057 217.013 169.765 217.485L171.954 216.868V213.488L170.39 213.929L170.265 215.849ZM174.144 211.115V216.25L175.082 215.986V219.301L173.005 219.886L172.88 218.362L169.027 219.449L168.901 221.044L166.824 221.63V218.315L167.638 218.085C167.971 217.584 168.159 217.076 168.201 216.561L168.451 212.721L174.144 211.115ZM177.593 219.373C177.151 219.497 176.609 219.607 175.966 219.701V218.011L177.093 217.694C177.409 217.604 177.614 217.456 177.706 217.248C177.806 217.038 177.789 216.787 177.656 216.495L175.091 210.848L177.405 210.196L178.969 214.174L180.283 209.384L182.598 208.731L180.095 216.587C179.853 217.34 179.541 217.944 179.157 218.399C178.773 218.862 178.252 219.187 177.593 219.373ZM186.105 212.032L185.167 212.297V214.897L182.977 215.514V208.624L185.167 208.007V210.542L186.168 210.259L186.856 208.635C187.106 208.01 187.498 207.522 188.032 207.173C188.224 207.049 188.407 206.963 188.582 206.913C188.866 206.833 189.125 206.782 189.358 206.76L189.671 206.736V208.491L189.233 208.615C188.949 208.695 188.741 208.884 188.607 209.181L187.982 210.658L189.859 213.573L187.481 214.244L186.105 212.032ZM194.233 207.205V212.34L192.043 212.957V207.822L189.979 208.404V206.649L196.297 204.867V206.622L194.233 207.205ZM199.436 209.182C199.878 209.058 200.379 208.83 200.938 208.499V207.719L199.123 208.23C198.998 208.266 198.894 208.338 198.81 208.449C198.727 208.559 198.685 208.679 198.685 208.809V208.939C198.685 209.069 198.727 209.166 198.81 209.229C198.894 209.292 198.998 209.306 199.123 209.27L199.436 209.182ZM197.121 204.765C198.648 204.161 200.024 203.686 201.25 203.341C201.818 203.181 202.272 203.23 202.614 203.489C202.956 203.748 203.127 204.172 203.127 204.761V209.831L201.188 210.378L201.063 209.763C200.671 210.143 200.266 210.456 199.849 210.704C199.44 210.94 199.094 211.099 198.81 211.179L198.373 211.302C197.805 211.462 197.351 211.413 197.009 211.154C196.667 210.895 196.496 210.471 196.496 209.881V209.296C196.496 208.707 196.667 208.187 197.009 207.735C197.351 207.283 197.805 206.977 198.373 206.817L200.938 206.094V205.574C200.938 205.444 200.896 205.347 200.812 205.284C200.729 205.221 200.625 205.207 200.5 205.242C199.957 205.395 199.357 205.591 198.698 205.828C198.047 206.064 197.522 206.251 197.121 206.39V204.765ZM208.379 201.46L210.818 200.772L208.691 204.817L210.881 207.644L208.441 208.333L207.19 206.605L205.939 209.038L203.499 209.726L205.689 205.664L203.562 202.819L206.001 202.131L207.19 203.875L208.379 201.46ZM211.135 205.623L213.387 204.988V206.808L212.512 208.485L211.385 208.802L211.886 207.361L211.135 207.573V205.623ZM222.584 199.989V197.454L224.774 196.836V203.726L222.584 204.344V201.744L220.332 202.379V204.979L218.142 205.597V198.707L220.332 198.089V200.624L222.584 199.989ZM232.78 199.518C232.78 200.168 232.601 200.73 232.242 201.204C231.891 201.667 231.404 201.986 230.778 202.163L227.9 202.975C227.275 203.151 226.782 203.108 226.424 202.845C226.073 202.571 225.898 202.109 225.898 201.459V198.469C225.898 197.819 226.073 197.263 226.424 196.8C226.782 196.326 227.275 196.001 227.9 195.825L230.778 195.013C231.404 194.836 231.891 194.885 232.242 195.159C232.601 195.422 232.78 195.878 232.78 196.528V199.518ZM230.59 197.341C230.59 196.994 230.423 196.868 230.09 196.962L228.588 197.385C228.255 197.48 228.088 197.7 228.088 198.047V200.647C228.088 200.993 228.255 201.12 228.588 201.025L230.09 200.602C230.423 200.508 230.59 200.288 230.59 199.941V197.341ZM238.659 199.81L233.904 201.151V194.261L238.284 193.026C238.842 192.868 239.293 192.915 239.635 193.165C239.985 193.404 240.16 193.736 240.16 194.161C240.16 194.585 240.073 194.957 239.898 195.275C239.722 195.593 239.476 195.844 239.159 196.029C239.535 195.993 239.856 196.093 240.123 196.329C240.398 196.564 240.536 196.941 240.536 197.461C240.536 197.981 240.361 198.464 240.01 198.909C239.668 199.352 239.218 199.653 238.659 199.81ZM238.346 197.688C238.346 197.558 238.304 197.462 238.221 197.399C238.138 197.336 238.033 197.322 237.908 197.357L236.094 197.869V198.974L237.908 198.462C238.033 198.427 238.138 198.354 238.221 198.244C238.304 198.134 238.346 198.013 238.346 197.883V197.688ZM237.971 195.129C237.971 194.999 237.929 194.903 237.846 194.84C237.762 194.776 237.658 194.763 237.533 194.798L236.094 195.204V196.374L237.533 195.968C237.658 195.933 237.762 195.86 237.846 195.75C237.929 195.639 237.971 195.519 237.971 195.389V195.129ZM241.407 199.035V192.145L243.596 191.528V193.673L246.036 192.985C246.603 192.825 247.058 192.874 247.4 193.133C247.742 193.392 247.913 193.816 247.913 194.405V195.25C247.913 195.84 247.742 196.36 247.4 196.812C247.058 197.264 246.603 197.57 246.036 197.73L241.407 199.035ZM245.285 196.316C245.411 196.281 245.515 196.208 245.598 196.098C245.682 195.988 245.723 195.868 245.723 195.738V195.166C245.723 195.036 245.682 194.939 245.598 194.876C245.515 194.813 245.411 194.799 245.285 194.834L243.596 195.311V196.793L245.285 196.316ZM250.916 196.353L248.726 196.971V190.081L250.916 189.463V196.353ZM254.736 189.881C254.403 189.975 254.236 190.195 254.236 190.542V191.257L256.363 190.657V189.942C256.363 189.596 256.196 189.469 255.862 189.563L254.736 189.881ZM258.302 194.14C256.692 194.768 255.233 195.266 253.923 195.635C253.356 195.795 252.901 195.746 252.559 195.487C252.217 195.228 252.046 194.804 252.046 194.215V191.095C252.046 190.445 252.221 189.888 252.572 189.425C252.93 188.952 253.423 188.626 254.048 188.45L256.551 187.744C257.176 187.568 257.664 187.617 258.014 187.89C258.373 188.153 258.552 188.61 258.552 189.26V191.665L254.236 192.882V193.402C254.236 193.532 254.278 193.629 254.361 193.692C254.444 193.755 254.549 193.769 254.674 193.734C255.5 193.501 256.709 193.095 258.302 192.515V194.14ZM6.5062 283.154C4.94638 283.767 3.57007 284.242 2.37726 284.579C1.81006 284.739 1.35546 284.689 1.01347 284.43C0.671473 284.171 0.500477 283.747 0.500477 283.158V280.168C0.500477 279.518 0.675644 278.961 1.02598 278.499C1.38465 278.025 1.87679 277.7 2.50238 277.523L6.5062 276.394V278.149L3.19054 279.084C2.85689 279.178 2.69006 279.399 2.69006 279.745V282.28C2.69006 282.41 2.73177 282.507 2.81518 282.57C2.89859 282.633 3.00286 282.647 3.12798 282.612C3.87869 282.4 5.00477 282.018 6.5062 281.464V283.154ZM14.136 274.242V281.132L11.9464 281.75V276.615L9.69429 277.25V282.385L7.50471 283.002V276.112L14.136 274.242ZM17.9507 274.661C17.617 274.755 17.4502 274.976 17.4502 275.323V276.038L19.5772 275.438V274.723C19.5772 274.376 19.4104 274.25 19.0768 274.344L17.9507 274.661ZM21.5166 278.921C19.9067 279.548 18.447 280.046 17.1374 280.416C16.5702 280.576 16.1156 280.526 15.7736 280.267C15.4316 280.009 15.2606 279.584 15.2606 278.995V275.875C15.2606 275.225 15.4358 274.669 15.7861 274.206C16.1448 273.732 16.6369 273.407 17.2625 273.23L19.7649 272.525C20.3905 272.348 20.8785 272.397 21.2288 272.671C21.5875 272.934 21.7668 273.39 21.7668 274.04V276.445L17.4502 277.663V278.183C17.4502 278.313 17.4919 278.409 17.5753 278.472C17.6587 278.535 17.763 278.549 17.8881 278.514C18.7139 278.281 19.9234 277.875 21.5166 277.296V278.921ZM28.2681 277.147L22.888 278.664V271.774L25.0776 271.156V276.291L27.3297 275.656V270.521L29.5193 269.904V275.039L30.4577 274.774V278.089L28.3933 278.671L28.2681 277.147ZM37.9624 267.523V274.413L35.7728 275.03V269.895L33.5207 270.53V275.665L31.3311 276.283V269.393L37.9624 267.523ZM42.9032 267.884C42.4611 268.009 41.9606 268.237 41.4017 268.568V271.688L43.2785 271.158C43.6122 271.064 43.779 270.844 43.779 270.497V268.092C43.779 267.962 43.7373 267.865 43.6539 267.802C43.5705 267.739 43.4662 267.725 43.3411 267.761L42.9032 267.884ZM41.4017 273.443V275.653L39.2122 276.27V267.17L41.1515 266.623L41.2766 267.238C41.6687 266.859 42.069 266.551 42.4778 266.314C42.8948 266.066 43.2452 265.903 43.5288 265.823L44.0918 265.664C44.659 265.504 45.1136 265.553 45.4556 265.812C45.7976 266.071 45.9686 266.495 45.9686 267.085V270.075C45.9686 270.725 45.7893 271.286 45.4306 271.76C45.0802 272.223 44.5923 272.543 43.9667 272.719L41.4017 273.443ZM53.8496 267.982C53.8496 268.632 53.6703 269.194 53.3116 269.668C52.9613 270.13 52.4733 270.45 51.8477 270.626L48.97 271.438C48.3444 271.614 47.8523 271.571 47.4936 271.308C47.1432 271.035 46.9681 270.573 46.9681 269.923V266.933C46.9681 266.283 47.1432 265.726 47.4936 265.263C47.8523 264.79 48.3444 264.464 48.97 264.288L51.8477 263.476C52.4733 263.3 52.9613 263.349 53.3116 263.623C53.6703 263.885 53.8496 264.342 53.8496 264.992V267.982ZM51.6601 265.804C51.6601 265.458 51.4932 265.331 51.1596 265.426L49.6581 265.849C49.3245 265.943 49.1577 266.163 49.1577 266.51V269.11C49.1577 269.457 49.3245 269.583 49.6581 269.489L51.1596 269.066C51.4932 268.971 51.6601 268.751 51.6601 268.404V265.804ZM57.5392 263.496C57.2055 263.59 57.0387 263.811 57.0387 264.157V264.872L59.1657 264.273V263.558C59.1657 263.211 58.9989 263.085 58.6653 263.179L57.5392 263.496ZM61.1051 267.756C59.4952 268.383 58.0355 268.881 56.7259 269.251C56.1587 269.411 55.7041 269.361 55.3621 269.102C55.0201 268.843 54.8491 268.419 54.8491 267.83V264.71C54.8491 264.06 55.0243 263.504 55.3746 263.041C55.7333 262.567 56.2254 262.242 56.851 262.065L59.3534 261.36C59.979 261.183 60.467 261.232 60.8173 261.506C61.176 261.769 61.3553 262.225 61.3553 262.875V265.28L57.0387 266.497V267.017C57.0387 267.147 57.0804 267.244 57.1638 267.307C57.2472 267.37 57.3515 267.384 57.4766 267.349C58.3024 267.116 59.5119 266.71 61.1051 266.131V267.756ZM65.6045 264.017L64.6661 264.281V266.881L62.4765 267.499V260.609L64.6661 259.991V262.526L65.667 262.244L66.3552 260.62C66.6054 259.995 66.9975 259.507 67.5313 259.157C67.7232 259.034 67.9067 258.947 68.0818 258.898C68.3654 258.818 68.624 258.767 68.8576 258.744L69.1704 258.721V260.476L68.7325 260.599C68.4489 260.679 68.2403 260.868 68.1069 261.166L67.4813 262.642L69.3581 265.558L66.9808 266.228L65.6045 264.017ZM73.7323 259.189V264.324L71.5428 264.942V259.807L69.4783 260.389V258.634L75.7968 256.852V258.607L73.7323 259.189ZM76.5524 263.529V256.639L78.742 256.021V258.166L81.1818 257.478C81.749 257.318 82.2036 257.368 82.5456 257.627C82.8876 257.886 83.0586 258.31 83.0586 258.899V259.744C83.0586 260.333 82.8876 260.854 82.5456 261.306C82.2036 261.758 81.749 262.063 81.1818 262.223L76.5524 263.529ZM80.4311 260.81C80.5562 260.775 80.6605 260.702 80.7439 260.592C80.8273 260.482 80.869 260.362 80.869 260.232V259.66C80.869 259.53 80.8273 259.433 80.7439 259.37C80.6605 259.307 80.5562 259.293 80.4311 259.328L78.742 259.804V261.286L80.4311 260.81ZM86.0615 260.847L83.8719 261.465V254.575L86.0615 253.957V260.847ZM95.3848 251.328L97.6995 250.675V257.565L95.5099 258.182V254.412L93.3829 258.782L91.0682 259.435V252.545L93.2578 251.928V255.698L95.3848 251.328ZM108.08 254.637L102.7 256.155V249.265L104.89 248.647V253.782L107.142 253.147V248.012L109.332 247.394V252.529L110.27 252.265V255.58L108.206 256.162L108.08 254.637ZM113.708 247.655C113.375 247.749 113.208 247.969 113.208 248.316V249.031L115.335 248.431V247.716C115.335 247.37 115.168 247.243 114.834 247.337L113.708 247.655ZM117.274 251.914C115.664 252.542 114.205 253.04 112.895 253.409C112.328 253.569 111.873 253.52 111.531 253.261C111.189 253.002 111.018 252.578 111.018 251.989V248.869C111.018 248.219 111.194 247.662 111.544 247.199C111.903 246.726 112.395 246.4 113.02 246.224L115.523 245.518C116.148 245.342 116.636 245.391 116.987 245.664C117.345 245.927 117.525 246.384 117.525 247.034V249.439L113.208 250.656V251.176C113.208 251.306 113.25 251.403 113.333 251.466C113.416 251.529 113.521 251.543 113.646 251.508C114.472 251.275 115.681 250.869 117.274 250.289V251.914ZM123.087 246.05V243.515L125.277 242.897V249.787L123.087 250.405V247.805L120.835 248.44V251.04L118.646 251.657V244.767L120.835 244.15V246.685L123.087 246.05ZM130.969 243.827V241.292L133.158 240.675V247.565L130.969 248.182V245.582L128.716 246.217V248.817L126.527 249.435V242.545L128.716 241.927V244.462L130.969 243.827ZM134.408 247.212V240.322L136.597 239.705V241.85L139.037 241.161C139.604 241.001 140.059 241.051 140.401 241.31C140.743 241.569 140.914 241.993 140.914 242.582V243.427C140.914 244.016 140.743 244.537 140.401 244.989C140.059 245.441 139.604 245.746 139.037 245.906L134.408 247.212ZM138.287 244.493C138.412 244.458 138.516 244.385 138.599 244.275C138.683 244.165 138.724 244.045 138.724 243.915V243.343C138.724 243.213 138.683 243.116 138.599 243.053C138.516 242.99 138.412 242.976 138.287 243.011L136.597 243.488V244.97L138.287 244.493ZM143.917 244.53L141.727 245.148V238.258L143.917 237.64V244.53ZM147.737 238.058C147.404 238.152 147.237 238.372 147.237 238.719V239.434L149.364 238.834V238.119C149.364 237.772 149.197 237.646 148.863 237.74L147.737 238.058ZM151.303 242.317C149.693 242.944 148.234 243.443 146.924 243.812C146.357 243.972 145.902 243.923 145.56 243.664C145.218 243.405 145.047 242.981 145.047 242.391V239.271C145.047 238.621 145.223 238.065 145.573 237.602C145.932 237.128 146.424 236.803 147.049 236.627L149.552 235.921C150.177 235.745 150.665 235.793 151.016 236.067C151.374 236.33 151.554 236.786 151.554 237.436V239.841L147.237 241.059V241.579C147.237 241.709 147.279 241.805 147.362 241.869C147.445 241.932 147.55 241.946 147.675 241.91C148.501 241.678 149.71 241.271 151.303 240.692V242.317ZM163.057 232.242V239.132L160.868 239.75V234.615L158.615 235.25V240.385L156.426 241.002V234.112L163.057 232.242ZM167.998 232.604C167.556 232.728 167.055 232.956 166.496 233.287V236.407L168.373 235.878C168.707 235.784 168.874 235.563 168.874 235.217V232.812C168.874 232.682 168.832 232.585 168.749 232.522C168.665 232.459 168.561 232.445 168.436 232.48L167.998 232.604ZM166.496 238.162V240.372L164.307 240.99V231.89L166.246 231.343L166.371 231.957C166.763 231.578 167.164 231.27 167.573 231.034C167.99 230.786 168.34 230.622 168.624 230.542L169.187 230.383C169.754 230.224 170.208 230.273 170.55 230.532C170.892 230.791 171.063 231.215 171.063 231.804V234.794C171.063 235.444 170.884 236.006 170.525 236.48C170.175 236.943 169.687 237.262 169.061 237.439L166.496 238.162ZM176.505 228.45L178.819 227.797V234.687L176.63 235.304V231.534L174.503 235.904L172.188 236.557V229.667L174.378 229.049V232.819L176.505 228.45ZM179.694 232.75C181.287 232.431 182.538 232.143 183.447 231.887C183.572 231.851 183.677 231.779 183.76 231.668C183.843 231.558 183.885 231.438 183.885 231.308V231.113C183.885 230.983 183.843 230.886 183.76 230.823C183.677 230.76 183.572 230.746 183.447 230.782L180.695 231.558V229.933L183.197 229.227C183.322 229.192 183.426 229.119 183.51 229.009C183.593 228.899 183.635 228.779 183.635 228.649V228.519C183.635 228.389 183.593 228.292 183.51 228.229C183.426 228.166 183.322 228.152 183.197 228.187L179.819 229.14V227.515L183.948 226.35C184.507 226.193 184.957 226.239 185.299 226.489C185.649 226.728 185.824 227.06 185.824 227.485C185.824 228.352 185.449 228.986 184.698 229.389C185.074 229.352 185.395 229.452 185.662 229.689C185.937 229.923 186.075 230.318 186.075 230.873C186.075 231.427 185.904 231.93 185.562 232.382C185.22 232.834 184.765 233.14 184.198 233.3C182.805 233.693 181.303 234.029 179.694 234.31V232.75ZM186.948 232.394V225.504L189.138 224.887V227.032L191.578 226.344C192.145 226.184 192.599 226.233 192.941 226.492C193.283 226.751 193.454 227.175 193.454 227.764V228.609C193.454 229.199 193.283 229.719 192.941 230.171C192.599 230.623 192.145 230.929 191.578 231.089L186.948 232.394ZM190.827 229.675C190.952 229.64 191.056 229.567 191.14 229.457C191.223 229.347 191.265 229.227 191.265 229.097V228.525C191.265 228.395 191.223 228.298 191.14 228.235C191.056 228.172 190.952 228.158 190.827 228.193L189.138 228.67V230.152L190.827 229.675ZM196.457 229.712L194.268 230.33V223.44L196.457 222.822V229.712ZM197.463 227.479L199.715 226.844V228.794L197.463 229.429V227.479ZM8.38299 300.755L6.13084 301.39V294.11L3.00286 294.992V302.272L0.750715 302.907V293.807L8.38299 291.655V300.755ZM12.3301 294.247C11.9965 294.341 11.8296 294.561 11.8296 294.908V295.623L13.9567 295.023V294.308C13.9567 293.961 13.7898 293.835 13.4562 293.929L12.3301 294.247ZM15.896 298.506C14.2861 299.133 12.8264 299.632 11.5168 300.001C10.9496 300.161 10.495 300.111 10.153 299.853C9.81104 299.594 9.64004 299.17 9.64004 298.58V295.46C9.64004 294.81 9.81521 294.254 10.1655 293.791C10.5242 293.317 11.0164 292.992 11.6419 292.816L14.1443 292.11C14.7699 291.933 15.2579 291.982 15.6082 292.256C15.9669 292.519 16.1462 292.975 16.1462 293.625V296.03L11.8296 297.248V297.768C11.8296 297.898 11.8713 297.994 11.9547 298.057C12.0382 298.121 12.1424 298.134 12.2675 298.099C13.0933 297.866 14.3028 297.46 15.896 296.881V298.506ZM20.9584 292.073C20.5164 292.198 20.0159 292.426 19.457 292.757V295.877L21.3338 295.347C21.6675 295.253 21.8343 295.033 21.8343 294.686V292.281C21.8343 292.151 21.7926 292.055 21.7092 291.991C21.6257 291.928 21.5215 291.914 21.3964 291.95L20.9584 292.073ZM19.457 297.632V299.842L17.2674 300.459V291.359L19.2068 290.812L19.3319 291.427C19.7239 291.048 20.1243 290.74 20.533 290.503C20.9501 290.255 21.3004 290.092 21.584 290.012L22.1471 289.853C22.7143 289.693 23.1689 289.742 23.5109 290.001C23.8529 290.26 24.0239 290.684 24.0239 291.274V294.264C24.0239 294.914 23.8445 295.476 23.4858 295.949C23.1355 296.412 22.6476 296.732 22.022 296.908L19.457 297.632ZM29.903 294.686L25.1485 296.026V289.136L29.5276 287.901C30.0865 287.744 30.5369 287.79 30.8789 288.04C31.2293 288.279 31.4044 288.611 31.4044 289.036C31.4044 289.461 31.3168 289.832 31.1417 290.15C30.9665 290.468 30.7204 290.72 30.4035 290.904C30.7788 290.868 31.1 290.968 31.3669 291.205C31.6422 291.439 31.7798 291.816 31.7798 292.336C31.7798 292.856 31.6046 293.339 31.2543 293.784C30.9123 294.228 30.4619 294.528 29.903 294.686ZM29.5902 292.564C29.5902 292.434 29.5485 292.337 29.4651 292.274C29.3817 292.211 29.2774 292.197 29.1523 292.232L27.3381 292.744V293.849L29.1523 293.337C29.2774 293.302 29.3817 293.229 29.4651 293.119C29.5485 293.009 29.5902 292.889 29.5902 292.759V292.564ZM29.2148 290.005C29.2148 289.875 29.1731 289.778 29.0897 289.715C29.0063 289.652 28.902 289.638 28.7769 289.673L27.3381 290.079V291.249L28.7769 290.843C28.902 290.808 29.0063 290.735 29.0897 290.625C29.1731 290.515 29.2148 290.395 29.2148 290.265V290.005ZM32.6507 293.911V287.021L34.8403 286.403V288.548L37.2801 287.86C37.8473 287.7 38.3019 287.749 38.6439 288.008C38.9859 288.267 39.1569 288.691 39.1569 289.281V290.126C39.1569 290.715 38.9859 291.236 38.6439 291.687C38.3019 292.139 37.8473 292.445 37.2801 292.605L32.6507 293.911ZM36.5294 291.192C36.6545 291.156 36.7588 291.084 36.8422 290.973C36.9256 290.863 36.9673 290.743 36.9673 290.613V290.041C36.9673 289.911 36.9256 289.815 36.8422 289.751C36.7588 289.688 36.6545 289.674 36.5294 289.71L34.8403 290.186V291.668L36.5294 291.192ZM42.1598 291.229L39.9702 291.846V284.956L42.1598 284.339V291.229ZM46.0429 282.594C44.9585 282.899 44.4163 282.489 44.4163 281.362V280.972L46.0429 280.514V280.839C46.0429 280.969 46.0846 281.065 46.168 281.128C46.2514 281.191 46.3557 281.205 46.4808 281.17L46.8562 281.064C46.9813 281.029 47.0855 280.956 47.169 280.846C47.2524 280.736 47.2941 280.616 47.2941 280.486V280.161L48.9206 279.702V280.092C48.9206 281.219 48.3784 281.935 47.2941 282.241L46.0429 282.594ZM47.732 282.767L50.0467 282.114V289.004L47.8571 289.622V285.852L45.7301 290.222L43.4154 290.875V283.985L45.605 283.367V287.137L47.732 282.767ZM61.6789 278.834V285.724L59.4893 286.341V281.206L57.2371 281.841V286.976L55.0476 287.594V280.704L61.6789 278.834ZM66.6196 279.195C66.1775 279.32 65.677 279.548 65.1182 279.879V282.999L66.995 282.469C67.3286 282.375 67.4954 282.155 67.4954 281.808V279.403C67.4954 279.273 67.4537 279.177 67.3703 279.114C67.2869 279.05 67.1826 279.037 67.0575 279.072L66.6196 279.195ZM65.1182 284.754V286.964L62.9286 287.581V278.481L64.8679 277.934L64.9931 278.549C65.3851 278.17 65.7855 277.862 66.1942 277.625C66.6113 277.378 66.9616 277.214 67.2452 277.134L67.8082 276.975C68.3755 276.815 68.8301 276.865 69.172 277.123C69.514 277.382 69.685 277.806 69.685 278.396V281.386C69.685 282.036 69.5057 282.598 69.147 283.072C68.7967 283.534 68.3087 283.854 67.6831 284.03L65.1182 284.754ZM75.1263 275.041L77.441 274.388V281.278L75.2514 281.896V278.126L73.1243 282.496L70.8096 283.149V276.259L72.9992 275.641V279.411L75.1263 275.041ZM78.3153 279.342C79.9085 279.022 81.1597 278.735 82.0689 278.478C82.194 278.443 82.2983 278.37 82.3817 278.26C82.4651 278.15 82.5068 278.03 82.5068 277.9V277.705C82.5068 277.575 82.4651 277.478 82.3817 277.415C82.2983 277.352 82.194 277.338 82.0689 277.373L79.3163 278.15V276.525L81.8187 275.819C81.9438 275.783 82.048 275.711 82.1315 275.601C82.2149 275.49 82.2566 275.37 82.2566 275.24V275.11C82.2566 274.98 82.2149 274.884 82.1315 274.821C82.048 274.757 81.9438 274.743 81.8187 274.779L78.4404 275.732V274.107L82.5694 272.942C83.1282 272.784 83.5787 272.831 83.9207 273.081C84.271 273.32 84.4462 273.652 84.4462 274.077C84.4462 274.943 84.0708 275.578 83.3201 275.98C83.6954 275.944 84.0166 276.044 84.2835 276.281C84.5588 276.515 84.6964 276.909 84.6964 277.464C84.6964 278.019 84.5254 278.522 84.1834 278.974C83.8414 279.426 83.3868 279.732 82.8196 279.891C81.4266 280.284 79.9252 280.621 78.3153 280.902V279.342ZM91.0726 279.774C90.6305 279.899 90.0883 280.008 89.446 280.103V278.413L90.5721 278.095C90.8891 278.006 91.0934 277.857 91.1852 277.649C91.2853 277.439 91.2686 277.188 91.1352 276.896L88.5702 271.25L90.8849 270.597L92.4489 274.576L93.7627 269.785L96.0774 269.132L93.575 276.988C93.3331 277.741 93.0203 278.345 92.6366 278.8C92.2529 279.263 91.7316 279.588 91.0726 279.774ZM98.2083 275.421L95.831 276.092L97.7078 272.118L97.0822 270.994C96.9488 270.772 96.7402 270.7 96.4566 270.78L96.0187 270.904V269.149L96.3315 268.996C96.5567 268.889 96.7861 268.803 97.0197 268.737C97.2532 268.671 97.4618 268.647 97.6453 268.664C97.8371 268.679 98.0081 268.722 98.1582 268.793C98.4502 268.927 98.6754 269.149 98.8339 269.46L99.522 270.696L100.21 270.502V267.967L102.4 267.349V269.884L103.088 269.69L103.776 268.066C104.026 267.441 104.423 266.952 104.965 266.6C105.148 266.479 105.332 266.392 105.515 266.341C105.799 266.261 106.053 266.211 106.278 266.19L106.591 266.167V267.922L106.153 268.046C105.87 268.126 105.661 268.314 105.528 268.612L104.902 270.089L106.779 273.004L104.402 273.675L103.025 271.463L102.4 271.639V274.239L100.21 274.857V272.257L99.5846 272.433L98.2083 275.421ZM109.97 266.709C109.636 266.804 109.469 267.024 109.469 267.371V268.086L111.596 267.486V266.771C111.596 266.424 111.429 266.298 111.096 266.392L109.97 266.709ZM113.535 270.969C111.926 271.596 110.466 272.094 109.156 272.464C108.589 272.624 108.134 272.574 107.792 272.315C107.45 272.057 107.279 271.632 107.279 271.043V267.923C107.279 267.273 107.455 266.717 107.805 266.254C108.164 265.78 108.656 265.455 109.281 265.278L111.784 264.573C112.409 264.396 112.897 264.445 113.248 264.719C113.606 264.982 113.786 265.438 113.786 266.088V268.493L109.469 269.711V270.231C109.469 270.361 109.511 270.457 109.594 270.52C109.678 270.583 109.782 270.597 109.907 270.562C110.733 270.329 111.942 269.923 113.535 269.344V270.969ZM125.289 260.894V267.784L123.1 268.401V263.266L120.848 263.901V269.036L118.658 269.654V262.764L125.289 260.894ZM130.23 261.255C129.788 261.38 129.287 261.608 128.729 261.939V265.059L130.605 264.529C130.939 264.435 131.106 264.215 131.106 263.868V261.463C131.106 261.333 131.064 261.237 130.981 261.174C130.897 261.11 130.793 261.097 130.668 261.132L130.23 261.255ZM128.729 266.814V269.024L126.539 269.641V260.541L128.478 259.994L128.603 260.609C128.996 260.23 129.396 259.922 129.805 259.685C130.222 259.438 130.572 259.274 130.856 259.194L131.419 259.035C131.986 258.875 132.44 258.925 132.782 259.183C133.124 259.442 133.295 259.866 133.295 260.456V263.446C133.295 264.096 133.116 264.658 132.757 265.132C132.407 265.594 131.919 265.914 131.294 266.09L128.729 266.814ZM138.737 257.101L141.051 256.448V263.338L138.862 263.956V260.186L136.735 264.556L134.42 265.209V258.319L136.61 257.701V261.471L138.737 257.101ZM149.743 255.752C149.301 255.877 148.801 256.105 148.242 256.436V259.556L150.119 259.026C150.452 258.932 150.619 258.712 150.619 258.365V255.96C150.619 255.83 150.577 255.733 150.494 255.67C150.411 255.607 150.306 255.593 150.181 255.629L149.743 255.752ZM148.242 261.311V263.521L146.052 264.138V255.038L147.992 254.491L148.117 255.106C148.509 254.727 148.909 254.419 149.318 254.182C149.735 253.934 150.085 253.771 150.369 253.691L150.932 253.532C151.499 253.372 151.954 253.421 152.296 253.68C152.638 253.939 152.809 254.363 152.809 254.953V257.943C152.809 258.593 152.629 259.154 152.271 259.628C151.92 260.091 151.432 260.411 150.807 260.587L148.242 261.311ZM156.498 253.587C156.165 253.681 155.998 253.901 155.998 254.248V254.963L158.125 254.363V253.648C158.125 253.302 157.958 253.175 157.624 253.269L156.498 253.587ZM160.064 257.846C158.454 258.474 156.995 258.972 155.685 259.341C155.118 259.501 154.663 259.452 154.321 259.193C153.979 258.934 153.808 258.51 153.808 257.921V254.801C153.808 254.151 153.983 253.594 154.334 253.131C154.692 252.658 155.184 252.332 155.81 252.156L158.312 251.45C158.938 251.274 159.426 251.323 159.776 251.596C160.135 251.859 160.314 252.316 160.314 252.966V255.371L155.998 256.588V257.108C155.998 257.238 156.039 257.335 156.123 257.398C156.206 257.461 156.311 257.475 156.436 257.44C157.261 257.207 158.471 256.801 160.064 256.221V257.846ZM166.816 249.182V250.937L163.625 251.837V256.972L161.436 257.589V250.699L166.816 249.182ZM171.886 247.752L174.201 247.099V253.989L172.011 254.607V250.837L169.884 255.207L167.569 255.86V248.97L169.759 248.352V252.122L171.886 247.752ZM181.331 251.848C179.771 252.462 178.395 252.936 177.202 253.273C176.635 253.433 176.18 253.383 175.838 253.125C175.496 252.866 175.325 252.442 175.325 251.852V248.862C175.325 248.212 175.5 247.656 175.851 247.193C176.209 246.719 176.702 246.394 177.327 246.218L181.331 245.088V246.843L178.015 247.779C177.682 247.873 177.515 248.093 177.515 248.44V250.975C177.515 251.105 177.557 251.201 177.64 251.264C177.723 251.328 177.828 251.341 177.953 251.306C178.703 251.094 179.83 250.712 181.331 250.158V251.848ZM186.083 245.503V250.638L183.893 251.256V246.121L181.829 246.703V244.948L188.147 243.166V244.921L186.083 245.503ZM192.594 243.667C192.152 243.792 191.652 244.019 191.093 244.35V247.47L192.969 246.941C193.303 246.847 193.47 246.627 193.47 246.28V243.875C193.47 243.745 193.428 243.648 193.345 243.585C193.261 243.522 193.157 243.508 193.032 243.543L192.594 243.667ZM191.093 249.225V251.435L188.903 252.053V242.953L190.842 242.406L190.968 243.021C191.36 242.641 191.76 242.333 192.169 242.097C192.586 241.849 192.936 241.685 193.22 241.605L193.783 241.447C194.35 241.287 194.805 241.336 195.147 241.595C195.489 241.854 195.66 242.278 195.66 242.867V245.857C195.66 246.507 195.48 247.069 195.122 247.543C194.771 248.006 194.283 248.325 193.658 248.502L191.093 249.225ZM199.412 245.189C199.854 245.064 200.354 244.837 200.913 244.506V243.726L199.099 244.237C198.974 244.273 198.869 244.345 198.786 244.456C198.703 244.566 198.661 244.686 198.661 244.816V244.946C198.661 245.076 198.703 245.172 198.786 245.236C198.869 245.299 198.974 245.313 199.099 245.277L199.412 245.189ZM197.097 240.772C198.623 240.168 200 239.693 201.226 239.347C201.793 239.187 202.248 239.237 202.59 239.496C202.932 239.755 203.103 240.179 203.103 240.768V245.838L201.163 246.385L201.038 245.77C200.646 246.15 200.242 246.463 199.825 246.711C199.416 246.947 199.07 247.106 198.786 247.186L198.348 247.309C197.781 247.469 197.326 247.42 196.984 247.161C196.642 246.902 196.471 246.478 196.471 245.888V245.303C196.471 244.714 196.642 244.193 196.984 243.742C197.326 243.29 197.781 242.984 198.348 242.824L200.913 242.101V241.581C200.913 241.451 200.871 241.354 200.788 241.291C200.705 241.228 200.6 241.214 200.475 241.249C199.933 241.402 199.332 241.597 198.673 241.835C198.023 242.071 197.497 242.258 197.097 242.397V240.772ZM209.605 244.004L204.225 245.522V238.632L206.415 238.014V243.149L208.667 242.514V237.379L210.857 236.761V241.896L211.795 241.632V244.947L209.731 245.529L209.605 244.004ZM216.985 235.033L219.3 234.38V241.27L217.11 241.888V238.118L214.983 242.488L212.668 243.14V236.25L214.858 235.633V239.403L216.985 235.033ZM224.866 232.81L227.181 232.157V239.047L224.991 239.665V235.895L222.864 240.265L220.549 240.918V234.028L222.739 233.41V237.18L224.866 232.81ZM228.18 236.816L230.432 236.18V238.13L228.18 238.766V236.816ZM228.18 231.876L230.432 231.24V233.19L228.18 233.826V231.876ZM239.504 228.682L241.819 228.029V234.919L239.629 235.537V231.767L237.502 236.136L235.187 236.789V229.899L237.377 229.282V233.052L239.504 228.682ZM250.573 227.315V232.45L248.384 233.068V227.933L246.319 228.515V226.76L252.638 224.978V226.733L250.573 227.315ZM253.393 231.655V224.765L255.583 224.147V226.292L258.023 225.604C258.59 225.444 259.044 225.494 259.386 225.752C259.728 226.011 259.899 226.435 259.899 227.025V227.87C259.899 228.459 259.728 228.98 259.386 229.431C259.044 229.883 258.59 230.189 258.023 230.349L253.393 231.655ZM257.272 228.936C257.397 228.901 257.501 228.828 257.585 228.718C257.668 228.607 257.71 228.487 257.71 228.357V227.785C257.71 227.655 257.668 227.559 257.585 227.496C257.501 227.432 257.397 227.419 257.272 227.454L255.583 227.93V229.412L257.272 228.936ZM262.902 228.973L260.713 229.59V222.7L262.902 222.083V228.973ZM263.908 226.739L266.16 226.104V227.924L265.284 229.601L264.158 229.919L264.658 228.478L263.908 228.689V226.739ZM275.231 218.606L277.546 217.953V224.843L275.357 225.46V221.69L273.23 226.06L270.915 226.713V219.823L273.104 219.206V222.976L275.231 218.606ZM286.301 217.239V222.374L284.111 222.991V217.856L282.047 218.439V216.684L288.365 214.902V216.657L286.301 217.239ZM293.875 220.238L289.121 221.579V214.689L293.5 213.454C294.059 213.296 294.509 213.342 294.851 213.592C295.201 213.832 295.377 214.164 295.377 214.588C295.377 215.013 295.289 215.384 295.114 215.702C294.939 216.02 294.693 216.272 294.376 216.456C294.751 216.42 295.072 216.52 295.339 216.757C295.614 216.991 295.752 217.368 295.752 217.888C295.752 218.408 295.577 218.891 295.226 219.337C294.884 219.78 294.434 220.08 293.875 220.238ZM293.562 218.116C293.562 217.986 293.521 217.889 293.437 217.826C293.354 217.763 293.25 217.749 293.124 217.784L291.31 218.296V219.401L293.124 218.889C293.25 218.854 293.354 218.781 293.437 218.671C293.521 218.561 293.562 218.441 293.562 218.311V218.116ZM293.187 215.557C293.187 215.427 293.145 215.33 293.062 215.267C292.978 215.204 292.874 215.19 292.749 215.225L291.31 215.631V216.801L292.749 216.395C292.874 216.36 292.978 216.287 293.062 216.177C293.145 216.067 293.187 215.947 293.187 215.817V215.557ZM303.379 215.607C303.379 216.257 303.2 216.819 302.841 217.293C302.491 217.756 302.003 218.075 301.377 218.252L298.5 219.063C297.874 219.24 297.382 219.197 297.023 218.934C296.673 218.66 296.498 218.198 296.498 217.548V214.558C296.498 213.908 296.673 213.352 297.023 212.889C297.382 212.415 297.874 212.09 298.5 211.913L301.377 211.102C302.003 210.925 302.491 210.974 302.841 211.248C303.2 211.511 303.379 211.967 303.379 212.617V215.607ZM301.19 213.43C301.19 213.083 301.023 212.957 300.689 213.051L299.188 213.474C298.854 213.568 298.687 213.789 298.687 214.135V216.735C298.687 217.082 298.854 217.208 299.188 217.114L300.689 216.691C301.023 216.597 301.19 216.376 301.19 216.03V213.43ZM307.131 208.959C306.047 209.265 305.505 208.854 305.505 207.728V207.338L307.131 206.879V207.204C307.131 207.334 307.173 207.431 307.257 207.494C307.34 207.557 307.444 207.571 307.569 207.535L307.945 207.43C308.07 207.394 308.174 207.322 308.258 207.211C308.341 207.101 308.383 206.981 308.383 206.851V206.526L310.009 206.067V206.457C310.009 207.584 309.467 208.3 308.383 208.606L307.131 208.959ZM308.821 209.133L311.135 208.48V215.37L308.946 215.987V212.217L306.819 216.587L304.504 217.24V210.35L306.694 209.732V213.502L308.821 209.133ZM3.5659 316.863C3.52419 317.482 3.35736 318.027 3.06542 318.499L5.25501 317.882V314.502L3.69102 314.943L3.5659 316.863ZM7.44459 312.129V317.264L8.38299 317V320.315L6.30601 320.901L6.18089 319.376L2.32722 320.463L2.2021 322.058L0.125119 322.644V319.329L0.938394 319.099C1.27205 318.598 1.45972 318.09 1.50143 317.576L1.75167 313.735L7.44459 312.129ZM12.9552 312.33C12.5131 312.455 12.0126 312.683 11.4538 313.014V316.134L13.3306 315.604C13.6642 315.51 13.831 315.29 13.831 314.943V312.538C13.831 312.408 13.7893 312.312 13.7059 312.249C13.6225 312.185 13.5182 312.171 13.3931 312.207L12.9552 312.33ZM11.4538 317.889V320.099L9.2642 320.716V311.616L11.2035 311.069L11.3287 311.684C11.7207 311.305 12.1211 310.997 12.5298 310.76C12.9469 310.513 13.2972 310.349 13.5808 310.269L14.1438 310.11C14.7111 309.95 15.1657 310 15.5076 310.258C15.8496 310.517 16.0206 310.941 16.0206 311.531V314.521C16.0206 315.171 15.8413 315.733 15.4826 316.206C15.1323 316.669 14.6443 316.989 14.0187 317.165L11.4538 317.889ZM18.7747 318.164C18.3326 318.289 17.7904 318.398 17.1482 318.493V316.803L18.2742 316.485C18.5912 316.396 18.7956 316.247 18.8873 316.039C18.9874 315.829 18.9707 315.578 18.8373 315.286L16.2723 309.64L18.587 308.987L20.151 312.966L21.4648 308.175L23.7795 307.523L21.2771 315.378C21.0352 316.131 20.7224 316.735 20.3387 317.19C19.955 317.653 19.4337 317.978 18.7747 318.164ZM29.5389 305.898V307.653L26.3483 308.553V313.688L24.1588 314.306V307.416L29.5389 305.898ZM33.5456 306.913V308.538L31.9816 308.979V307.354L30.5428 308.605L29.7921 307.517L31.2935 306.183L29.7921 305.697L30.5428 304.185L31.9816 304.624V302.999L33.5456 302.558V304.183L34.9845 302.932L35.7352 304.021L34.2338 305.354L35.7352 305.841L34.9845 307.352L33.5456 306.913ZM46.8698 301.01V307.9L44.6803 308.518V303.383L42.4281 304.018V309.153L40.2385 309.771V302.881L46.8698 301.01ZM54.876 303.692C54.876 304.342 54.6967 304.904 54.338 305.378C53.9877 305.841 53.4997 306.161 52.8741 306.337L49.9964 307.149C49.3708 307.325 48.8786 307.282 48.5199 307.019C48.1696 306.745 47.9944 306.283 47.9944 305.633V302.643C47.9944 301.993 48.1696 301.437 48.5199 300.974C48.8786 300.5 49.3708 300.175 49.9964 299.999L52.8741 299.187C53.4997 299.011 53.9877 299.059 54.338 299.333C54.6967 299.596 54.876 300.052 54.876 300.702V303.692ZM52.6864 301.515C52.6864 301.168 52.5196 301.042 52.1859 301.136L50.6845 301.56C50.3509 301.654 50.184 301.874 50.184 302.221V304.821C50.184 305.167 50.3509 305.294 50.6845 305.2L52.1859 304.776C52.5196 304.682 52.6864 304.462 52.6864 304.115V301.515ZM56.7513 305.243C56.3927 305.345 55.9756 305.419 55.5001 305.466V303.776L56.0006 303.635C56.3176 303.546 56.4844 303.325 56.5011 302.974L56.7513 298.223L62.757 296.53V303.42L60.5675 304.037V298.902L58.8158 299.396L58.6281 302.764C58.5947 303.363 58.4071 303.888 58.0651 304.34C57.7231 304.792 57.2852 305.093 56.7513 305.243ZM65.7555 304.914C65.3134 305.039 64.7712 305.148 64.129 305.243V303.553L65.255 303.235C65.572 303.146 65.7764 302.997 65.8681 302.789C65.9682 302.579 65.9515 302.328 65.8181 302.036L63.2531 296.39L65.5678 295.737L67.1318 299.716L68.4456 294.925L70.7603 294.273L68.2579 302.128C68.016 302.881 67.7032 303.485 67.3195 303.94C66.9358 304.404 66.4145 304.728 65.7555 304.914ZM73.6419 296.645C74.3509 296.445 74.9348 296.259 75.3936 296.086V292.966L77.5832 292.348V299.238L75.3936 299.856V297.776C74.5011 298.114 73.667 298.393 72.8912 298.612C72.324 298.772 71.8694 298.722 71.5274 298.463C71.1854 298.204 71.0144 297.78 71.0144 297.191V294.201L73.204 293.583V296.313C73.204 296.443 73.2457 296.54 73.3291 296.603C73.4125 296.666 73.5168 296.68 73.6419 296.645ZM83.1539 290.777L85.4686 290.124V297.014L83.279 297.632V293.862L81.152 298.232L78.8373 298.885V291.995L81.0269 291.377V295.147L83.1539 290.777ZM90.4719 290.468V295.603L88.2823 296.221V291.086L86.2179 291.668V289.913L92.5364 288.131V289.886L90.4719 290.468ZM95.8569 288.69C95.5233 288.784 95.3565 289.004 95.3565 289.351V290.066L97.4835 289.466V288.751C97.4835 288.404 97.3167 288.278 96.983 288.372L95.8569 288.69ZM99.4228 292.949C97.813 293.576 96.3532 294.075 95.0437 294.444C94.4765 294.604 94.0219 294.554 93.6799 294.296C93.3379 294.037 93.1669 293.613 93.1669 293.023V289.903C93.1669 289.253 93.342 288.697 93.6924 288.234C94.051 287.76 94.5432 287.435 95.1688 287.259L97.6712 286.553C98.2968 286.376 98.7847 286.425 99.1351 286.699C99.4937 286.962 99.6731 287.418 99.6731 288.068V290.473L95.3565 291.691V292.211C95.3565 292.341 95.3982 292.437 95.4816 292.5C95.565 292.564 95.6693 292.577 95.7944 292.542C96.6202 292.309 97.8296 291.903 99.4228 291.324V292.949ZM111.177 282.874V289.764L108.987 290.381V285.246L106.735 285.882V291.017L104.545 291.634V284.744L111.177 282.874ZM119.183 285.556C119.183 286.206 119.004 286.768 118.645 287.242C118.295 287.705 117.807 288.024 117.181 288.201L114.303 289.012C113.678 289.189 113.185 289.145 112.827 288.883C112.476 288.609 112.301 288.147 112.301 287.497V284.507C112.301 283.857 112.476 283.3 112.827 282.838C113.185 282.364 113.678 282.039 114.303 281.862L117.181 281.051C117.807 280.874 118.295 280.923 118.645 281.197C119.004 281.46 119.183 281.916 119.183 282.566V285.556ZM116.993 283.378C116.993 283.032 116.826 282.906 116.493 283L114.991 283.423C114.658 283.517 114.491 283.738 114.491 284.084V286.684C114.491 287.031 114.658 287.157 114.991 287.063L116.493 286.64C116.826 286.546 116.993 286.325 116.993 285.978V283.378ZM129.249 284.667V277.582L127.81 278.508L127.184 277.189L129.499 275.497L131.501 274.932V284.032L129.249 284.667ZM137.885 275.601C137.885 275.081 137.635 274.892 137.135 275.033L135.758 275.421C135.258 275.562 135.008 275.893 135.008 276.413V280.573C135.008 281.093 135.258 281.282 135.758 281.141L137.135 280.753C137.635 280.612 137.885 280.281 137.885 279.761V275.601ZM140.137 279.126C140.137 280.036 139.937 280.756 139.537 281.285C139.145 281.802 138.511 282.185 137.635 282.432L135.258 283.102C134.382 283.349 133.744 283.326 133.343 283.031C132.951 282.726 132.755 282.118 132.755 281.208V277.048C132.755 276.138 132.951 275.424 133.343 274.906C133.744 274.377 134.382 273.989 135.258 273.742L137.635 273.072C138.511 272.825 139.145 272.854 139.537 273.16C139.937 273.454 140.137 274.056 140.137 274.966V279.126ZM146.267 273.237C146.267 272.717 146.017 272.528 145.517 272.669L144.14 273.057C143.64 273.198 143.39 273.529 143.39 274.049V278.209C143.39 278.729 143.64 278.918 144.14 278.777L145.517 278.389C146.017 278.248 146.267 277.917 146.267 277.397V273.237ZM148.519 276.762C148.519 277.672 148.319 278.392 147.919 278.921C147.527 279.438 146.893 279.821 146.017 280.068L143.64 280.738C142.764 280.985 142.126 280.962 141.725 280.667C141.333 280.362 141.137 279.754 141.137 278.844V274.684C141.137 273.774 141.333 273.06 141.725 272.542C142.126 272.013 142.764 271.625 143.64 271.378L146.017 270.708C146.893 270.461 147.527 270.49 147.919 270.796C148.319 271.09 148.519 271.692 148.519 272.602V276.762ZM157.087 271.681C156.645 271.806 156.144 272.033 155.585 272.364V275.484L157.462 274.955C157.796 274.861 157.962 274.641 157.962 274.294V271.889C157.962 271.759 157.921 271.662 157.837 271.599C157.754 271.536 157.65 271.522 157.525 271.557L157.087 271.681ZM155.585 277.239V279.449L153.396 280.067V270.967L155.335 270.42L155.46 271.035C155.852 270.655 156.253 270.348 156.661 270.111C157.078 269.863 157.429 269.7 157.712 269.62L158.275 269.461C158.842 269.301 159.297 269.35 159.639 269.609C159.981 269.868 160.152 270.292 160.152 270.881V273.871C160.152 274.521 159.973 275.083 159.614 275.557C159.264 276.02 158.776 276.34 158.15 276.516L155.585 277.239ZM162.906 277.515C162.464 277.639 161.922 277.749 161.28 277.843V276.153L162.406 275.836C162.723 275.746 162.927 275.598 163.019 275.39C163.119 275.18 163.102 274.929 162.969 274.637L160.404 268.99L162.718 268.338L164.282 272.317L165.596 267.526L167.911 266.873L165.409 274.729C165.167 275.482 164.854 276.086 164.47 276.541C164.086 277.004 163.565 277.329 162.906 277.515ZM170.355 267.354C171.164 266.953 171.873 266.666 172.482 266.494L173.045 266.335C173.612 266.175 174.067 266.225 174.409 266.484C174.751 266.743 174.922 267.167 174.922 267.756V269.836C174.922 270.486 174.742 271.048 174.383 271.522C174.033 271.985 173.545 272.304 172.92 272.481L170.167 273.257C169.541 273.433 169.049 273.39 168.691 273.127C168.34 272.853 168.165 272.392 168.165 271.742V267.127C168.165 266.503 168.365 265.922 168.766 265.384C169.174 264.844 169.725 264.433 170.417 264.151L174.671 262.432L174.859 264.199L170.98 265.748C170.563 265.917 170.355 266.193 170.355 266.574V267.354ZM172.231 270.92C172.565 270.826 172.732 270.605 172.732 270.259V268.634C172.732 268.504 172.69 268.407 172.607 268.344C172.523 268.281 172.419 268.267 172.294 268.302L171.856 268.426C171.531 268.517 171.239 268.617 170.98 268.725C170.722 268.832 170.513 268.917 170.355 268.979V270.929C170.355 271.276 170.521 271.402 170.855 271.308L172.231 270.92ZM176.678 271.421C176.319 271.522 175.902 271.596 175.426 271.644V269.954L175.927 269.813C176.244 269.723 176.411 269.503 176.427 269.151L176.678 264.401L182.683 262.707V269.597L180.494 270.215V265.08L178.742 265.574L178.554 268.941C178.521 269.54 178.333 270.065 177.991 270.517C177.649 270.969 177.211 271.27 176.678 271.421ZM186.495 263.127C186.161 263.221 185.995 263.441 185.995 263.788V264.503L188.122 263.903V263.188C188.122 262.842 187.955 262.715 187.621 262.809L186.495 263.127ZM190.061 267.386C188.451 268.014 186.991 268.512 185.682 268.881C185.115 269.041 184.66 268.992 184.318 268.733C183.976 268.474 183.805 268.05 183.805 267.461V264.341C183.805 263.691 183.98 263.134 184.33 262.671C184.689 262.198 185.181 261.872 185.807 261.696L188.309 260.99C188.935 260.814 189.423 260.863 189.773 261.136C190.132 261.399 190.311 261.856 190.311 262.506V264.911L185.995 266.128V266.648C185.995 266.778 186.036 266.875 186.12 266.938C186.203 267.001 186.307 267.015 186.432 266.98C187.258 266.747 188.468 266.341 190.061 265.761V267.386ZM194.06 258.848C192.975 259.154 192.433 258.744 192.433 257.617V257.227L194.06 256.768V257.093C194.06 257.223 194.102 257.32 194.185 257.383C194.268 257.446 194.373 257.46 194.498 257.425L194.873 257.319C194.998 257.284 195.103 257.211 195.186 257.101C195.269 256.991 195.311 256.871 195.311 256.741V256.416L196.938 255.957V256.347C196.938 257.474 196.395 258.19 195.311 258.496L194.06 258.848ZM195.749 259.022L198.064 258.369V265.259L195.874 265.877V262.107L193.747 266.477L191.432 267.13V260.24L193.622 259.622V263.392L195.749 259.022ZM207.506 258.241V255.706L209.696 255.089V261.979L207.506 262.596V259.996L205.254 260.631V263.231L203.065 263.849V256.959L205.254 256.341V258.876L207.506 258.241ZM213.573 259.195C214.015 259.07 214.516 258.843 215.075 258.512V257.732L213.26 258.243C213.135 258.279 213.031 258.351 212.947 258.462C212.864 258.572 212.822 258.692 212.822 258.822V258.952C212.822 259.082 212.864 259.178 212.947 259.242C213.031 259.305 213.135 259.319 213.26 259.283L213.573 259.195ZM211.258 254.778C212.785 254.174 214.161 253.699 215.387 253.354C215.955 253.194 216.409 253.243 216.751 253.502C217.093 253.761 217.264 254.185 217.264 254.774V259.844L215.325 260.391L215.2 259.776C214.808 260.156 214.403 260.469 213.986 260.717C213.577 260.953 213.231 261.112 212.947 261.192L212.51 261.315C211.942 261.475 211.488 261.426 211.146 261.167C210.804 260.908 210.633 260.484 210.633 259.894V259.309C210.633 258.72 210.804 258.2 211.146 257.748C211.488 257.296 211.942 256.99 212.51 256.83L215.075 256.107V255.587C215.075 255.457 215.033 255.36 214.949 255.297C214.866 255.234 214.762 255.22 214.637 255.255C214.094 255.408 213.494 255.604 212.835 255.841C212.184 256.077 211.659 256.264 211.258 256.403V254.778ZM227.205 255.871L225.579 256.329L224.327 254.342V257.852L222.138 258.47V251.58L224.453 250.927L226.392 254.02L228.331 249.833L230.646 249.18V256.07L228.456 256.688V253.178L227.205 255.871ZM238.657 251.861C238.657 252.511 238.478 253.073 238.119 253.547C237.769 254.009 237.281 254.329 236.655 254.505L233.777 255.317C233.152 255.493 232.66 255.45 232.301 255.187C231.951 254.914 231.775 254.452 231.775 253.802V250.812C231.775 250.162 231.951 249.605 232.301 249.142C232.66 248.669 233.152 248.343 233.777 248.167L236.655 247.355C237.281 247.179 237.769 247.228 238.119 247.502C238.478 247.764 238.657 248.221 238.657 248.871V251.861ZM236.467 249.683C236.467 249.337 236.301 249.21 235.967 249.304L234.466 249.728C234.132 249.822 233.965 250.042 233.965 250.389V252.989C233.965 253.336 234.132 253.462 234.466 253.368L235.967 252.944C236.301 252.85 236.467 252.63 236.467 252.283V249.683ZM241.846 247.191C242.655 246.79 243.364 246.503 243.973 246.331L244.536 246.173C245.103 246.013 245.558 246.062 245.9 246.321C246.242 246.58 246.413 247.004 246.413 247.593V249.673C246.413 250.323 246.234 250.885 245.875 251.359C245.525 251.822 245.037 252.142 244.411 252.318L241.658 253.094C241.033 253.271 240.541 253.228 240.182 252.965C239.832 252.691 239.657 252.229 239.657 251.579V246.964C239.657 246.34 239.857 245.759 240.257 245.222C240.666 244.682 241.216 244.271 241.909 243.989L246.163 242.269L246.35 244.036L242.472 245.585C242.055 245.755 241.846 246.03 241.846 246.411V247.191ZM243.723 250.757C244.057 250.663 244.223 250.443 244.223 250.096V248.471C244.223 248.341 244.182 248.244 244.098 248.181C244.015 248.118 243.911 248.104 243.785 248.139L243.348 248.263C243.022 248.355 242.73 248.454 242.472 248.562C242.213 248.67 242.005 248.754 241.846 248.816V250.766C241.846 251.113 242.013 251.239 242.347 251.145L243.723 250.757ZM251.735 243.232L254.05 242.58V249.47L251.86 250.087V246.317L249.733 250.687L247.418 251.34V244.45L249.608 243.832V247.602L251.735 243.232ZM256.05 249.035C255.691 249.137 255.274 249.211 254.799 249.258V247.568L255.299 247.427C255.616 247.338 255.783 247.117 255.8 246.766L256.05 242.015L262.056 240.322V247.212L259.866 247.829V242.694L258.115 243.188L257.927 246.556C257.893 247.155 257.706 247.68 257.364 248.132C257.022 248.584 256.584 248.885 256.05 249.035ZM263.303 246.86V239.97L265.492 239.352V241.497L268.057 240.774C268.624 240.614 269.079 240.664 269.421 240.922C269.763 241.181 269.934 241.605 269.934 242.195V243.04C269.934 243.629 269.763 244.15 269.421 244.601C269.079 245.053 268.624 245.359 268.057 245.519L263.303 246.86ZM267.306 244.106C267.432 244.071 267.536 243.998 267.619 243.888C267.703 243.777 267.744 243.657 267.744 243.527V242.942C267.744 242.812 267.703 242.716 267.619 242.653C267.536 242.589 267.432 242.576 267.306 242.611L265.492 243.122V244.617L267.306 244.106ZM275.247 239.136V236.601L277.436 235.984V242.874L275.247 243.491V240.891L272.994 241.527V244.127L270.805 244.744V237.854L272.994 237.237V239.772L275.247 239.136ZM278.686 242.521V235.631L280.875 235.014V237.159L283.315 236.471C283.882 236.311 284.337 236.36 284.679 236.619C285.021 236.878 285.192 237.302 285.192 237.892V238.737C285.192 239.326 285.021 239.846 284.679 240.298C284.337 240.75 283.882 241.056 283.315 241.216L278.686 242.521ZM282.565 239.803C282.69 239.767 282.794 239.695 282.877 239.584C282.961 239.474 283.002 239.354 283.002 239.224V238.652C283.002 238.522 282.961 238.425 282.877 238.362C282.794 238.299 282.69 238.285 282.565 238.321L280.875 238.797V240.279L282.565 239.803ZM288.195 239.84L286.005 240.457V233.567L288.195 232.95V239.84ZM292.078 231.204C290.994 231.51 290.451 231.1 290.451 229.973V229.583L292.078 229.124V229.449C292.078 229.579 292.12 229.676 292.203 229.739C292.287 229.802 292.391 229.816 292.516 229.781L292.891 229.675C293.016 229.64 293.121 229.567 293.204 229.457C293.288 229.347 293.329 229.227 293.329 229.097V228.772L294.956 228.313V228.703C294.956 229.83 294.414 230.546 293.329 230.852L292.078 231.204ZM293.767 231.378L296.082 230.725V237.615L293.892 238.233V234.463L291.765 238.833L289.451 239.486V232.596L291.64 231.978V235.748L293.767 231.378ZM297.332 235.313L299.584 234.678V236.628L297.332 237.263V235.313ZM297.582 234.462L297.332 231.803V228.163L299.584 227.528V231.168L299.333 233.968L297.582 234.462Z" fill="white"/>
<defs>
<linearGradient id="paint0_linear" x1="0" y1="139.04" x2="265.371" y2="195.954" gradientUnits="userSpaceOnUse">
<stop stop-color="#FF54B1"/>
<stop offset="1" stop-color="#2E98EC"/>
</linearGradient>
<linearGradient id="paint1_linear" x1="0" y1="179.004" x2="160.859" y2="199.01" gradientUnits="userSpaceOnUse">
<stop stop-color="#FF54B1"/>
<stop offset="1" stop-color="#2E98EC"/>
</linearGradient>
<linearGradient id="paint2_linear" x1="195.231" y1="1.71353" x2="8.50999" y2="-38.4072" gradientUnits="userSpaceOnUse">
<stop stop-color="#FF2DA0"/>
<stop offset="1" stop-color="#2E98EC"/>
</linearGradient>
</defs>
</svg>
