<svg width="46" height="47" viewBox="0 0 46 47" fill="none" xmlns="http://www.w3.org/2000/svg">
<path fill-rule="evenodd" clip-rule="evenodd" d="M0 23.5441C0 36.1362 10.2079 46.3441 22.8 46.3441C35.3921 46.3441 45.6 36.1362 45.6 23.5441C45.6 10.952 35.3921 0.744141 22.8 0.744141C10.2079 0.744141 0 10.952 0 23.5441ZM10.8447 22.5588C16.965 19.8923 21.0462 18.1344 23.0882 17.285C28.9186 14.86 30.1301 14.4387 30.9198 14.4246C31.0934 14.4217 31.4818 14.4648 31.7333 14.6689C31.9457 14.8412 32.0041 15.074 32.0321 15.2374C32.0601 15.4008 32.0949 15.7731 32.0672 16.0639C31.7513 19.3836 30.3841 27.4397 29.6886 31.1579C29.3943 32.7312 28.8149 33.2587 28.2539 33.3103C27.2884 33.3992 26.5069 32.842 25.6371 32.2219L25.6371 32.2219L25.6369 32.2218L25.6368 32.2217C25.4083 32.0588 25.1737 31.8916 24.928 31.7305C23.9635 31.0982 23.218 30.5906 22.4705 30.0816L22.4704 30.0814L22.4701 30.0813C21.7859 29.6153 21.0999 29.1482 20.2428 28.5833C18.4588 27.4077 19.2056 26.6878 20.2014 25.7277C20.3626 25.5723 20.5304 25.4106 20.695 25.2397C20.7684 25.1634 21.1276 24.8295 21.634 24.3586L21.6345 24.3582C23.2599 22.8471 26.4006 19.9272 26.4799 19.5893C26.4929 19.5339 26.5049 19.3272 26.3822 19.2181C26.2594 19.109 26.0782 19.1463 25.9475 19.176C25.7622 19.2181 22.8103 21.1691 17.0919 25.0292C16.254 25.6046 15.4951 25.8849 14.8151 25.8702C14.0655 25.854 12.6236 25.4464 11.5516 25.0979C11.3942 25.0467 11.2406 24.9985 11.0924 24.9519C10.0029 24.6093 9.20277 24.3577 9.28287 23.7187C9.33026 23.3407 9.85088 22.9541 10.8447 22.5588Z" fill="#F07E23"/>
</svg>
