<?xml version="1.0" encoding="utf-8"?>
<!-- Generator: Adobe Illustrator 26.3.1, SVG Export Plug-In . SVG Version: 6.00 Build 0)  -->
<svg version="1.1" id="Layer_1" xmlns="http://www.w3.org/2000/svg" xmlns:xlink="http://www.w3.org/1999/xlink" width="40" height="40"
	 viewBox="0 0 500 500" style="enable-background:new 0 0 500 500;" xml:space="preserve">
<style type="text/css">
	.st0{fill:#FFFFFF;}
	.st1{clip-path:url(#SVGID_00000039095570675602824030000005691753157053353368_);}
	.st2{fill:#E1EDF0;}
	.st3{clip-path:url(#SVGID_00000068639831704139410920000017000899918684771246_);fill:#E1EDF0;}
	
		.st4{clip-path:url(#SVGID_00000062173496531165878670000007664928462758661007_);fill:url(#SVGID_00000005988952540016470260000010674593107766492848_);}
	
		.st5{clip-path:url(#SVGID_00000006676652807502789330000011503994872215882149_);fill:url(#SVGID_00000119103489261232682910000018034523745926232987_);}
	
		.st6{clip-path:url(#SVGID_00000052804155804214308450000002233651767143814579_);fill:url(#SVGID_00000151523144667358731430000001575674761490624433_);}
	.st7{fill:#6CC6D8;}
	.st8{clip-path:url(#SVGID_00000165929121303205249290000000064852781887429261_);fill:#6CC6D8;}
	.st9{clip-path:url(#SVGID_00000165929121303205249290000000064852781887429261_);fill:#F9FAFC;}
	.st10{clip-path:url(#SVGID_00000149342863520415544370000017074162844636097927_);fill:#F9FAFC;}
	
		.st11{clip-path:url(#SVGID_00000049218505580045078040000012057830263721923234_);fill:url(#SVGID_00000135661585639334478180000000667920236142771880_);}
	
		.st12{clip-path:url(#SVGID_00000171720236673744570170000013768838293017714340_);fill:url(#SVGID_00000063615235201283892800000008035466666476541598_);}
	.st13{clip-path:url(#SVGID_00000046319917950260504320000007061929343029873592_);}
	.st14{clip-path:url(#SVGID_00000116944925557335543800000014944521195565140628_);}
	.st15{clip-path:url(#SVGID_00000074436987582694632480000012741252940078648989_);fill:#FFFFFF;}
	
		.st16{clip-path:url(#SVGID_00000039095186251316789600000009448853131483159974_);fill:url(#SVGID_00000151527387631314046550000011475799405877812389_);}
	.st17{clip-path:url(#SVGID_00000019640141424032487780000016516983890870981786_);fill:#FFFFFF;}
	
		.st18{clip-path:url(#SVGID_00000019640141424032487780000016516983890870981786_);fill-rule:evenodd;clip-rule:evenodd;fill:#FFFFFF;}
	
		.st19{clip-path:url(#SVGID_00000016066896742588376110000016041016596621989262_);fill:url(#SVGID_00000138536578348852720270000012594502989736095675_);}
	
		.st20{clip-path:url(#SVGID_00000129908435247377874500000017400422397963032244_);fill:url(#SVGID_00000081613023542605980920000012387581125793269687_);}
	.st21{clip-path:url(#SVGID_00000128482197067653128370000002136496330510566047_);fill:#25182D;}
	.st22{clip-path:url(#SVGID_00000129199355873847253740000004450580105728549792_);}
	.st23{clip-path:url(#SVGID_00000075869540708812462520000008246096441963445904_);}
	.st24{clip-path:url(#SVGID_00000162332169659750112920000016877686915252192399_);}
	.st25{clip-path:url(#SVGID_00000022541504572643099440000003163566469299045264_);}
	.st26{clip-path:url(#SVGID_00000127752598305663366310000007689112633461117833_);}
	.st27{clip-path:url(#SVGID_00000088840409774482828680000010892308618129505442_);}
	.st28{clip-path:url(#SVGID_00000127023439203657855900000001125206254964850350_);}
	.st29{clip-path:url(#SVGID_00000013911903373953154420000017537225819721127086_);}
	.st30{clip-path:url(#SVGID_00000043452213385497102330000016837407596632312459_);}
	.st31{clip-path:url(#SVGID_00000014611682605753094220000017741914049799293344_);}
	
		.st32{clip-path:url(#SVGID_00000031927173756110822330000002337834999022897061_);fill:url(#SVGID_00000096060412340529178310000000223091356918854791_);}
	
		.st33{clip-path:url(#SVGID_00000072987536230783453630000012091552295072967830_);fill:url(#SVGID_00000137114688275249716840000013369814812604758677_);}
	.st34{clip-path:url(#SVGID_00000116222148165958950960000002055855692065263507_);fill:#FFFFFF;}
	.st35{fill:#FD9E06;}
</style>
<circle class="st0" cx="250" cy="250" r="250"/>
<path class="st35" d="M327.63,368.09c-3.08-1.74-5.15-2.77-7.07-4.01c-20.24-13.1-40.49-26.16-60.62-39.42
	c-3.08-2.03-5.17-2.14-8.31-0.02c-20.24,13.7-40.64,27.16-60.99,40.69c-5.36,3.57-9.29,1.61-10.46-4.96
	c-5.46-30.61-10.94-61.22-16.64-91.78c-0.34-1.84-2.38-3.91-4.16-4.85c-29.21-15.5-58.5-30.85-87.78-46.23
	c-1.62-0.85-3.55-1.41-4.76-2.67c-1.81-1.88-4.63-4.62-4.23-6.34c0.52-2.22,3.53-4.92,5.93-5.48c14.24-3.33,28.6-6.12,42.92-9.07
	c53.08-10.92,106.16-21.81,159.23-32.74c45.26-9.32,90.5-18.74,135.79-27.91c2.21-0.45,5.87,0.38,6.98,1.94
	c1.28,1.81,1.31,5.39,0.47,7.68c-24.53,66.75-49.24,133.44-73.91,200.14c-2.31,6.23-4.32,12.59-6.98,18.67
	C332,364.11,329.56,365.88,327.63,368.09z M220.09,284.75c35,22.67,69.28,44.86,103.96,67.32c24.18-65.43,48.14-130.24,72.09-195.05
	c-0.32-0.19-0.63-0.38-0.95-0.58C337.04,199.06,278.88,241.67,220.09,284.75z M86.25,211.32c1.46,1.01,1.96,1.44,2.53,1.74
	c25.72,13.53,51.43,27.09,77.23,40.47c1.41,0.73,3.91,0.58,5.38-0.17c62.03-31.52,124-63.15,185.97-94.8
	c1.04-0.53,1.93-1.35,2.89-2.04c-0.18-0.5-0.37-0.99-0.55-1.49C268.92,173.72,178.14,192.4,86.25,211.32z M336.44,184.6
	c-0.2-0.39-0.4-0.78-0.6-1.16c-1.85,0.75-3.77,1.37-5.54,2.27c-50,25.5-99.95,51.09-150.02,76.45c-4,2.02-5.21,4.07-4.39,8.37
	c3.52,18.43,6.76,36.92,10.13,55.38c0.44,2.41,1.03,4.8,1.55,7.19c5.73-15.44,10.32-30.85,15.33-46.13c1.02-3.1,3.02-6.47,5.58-8.36
	c37.27-27.56,74.71-54.89,112.11-82.28C325.89,192.45,331.15,188.51,336.44,184.6z M244.92,315.01
	c-11.09-7.17-21.33-13.79-31.97-20.67c-5.17,16.92-10.16,33.29-15.16,49.66c0.31,0.4,0.62,0.8,0.93,1.2
	C214.27,335.87,228.91,325.1,244.92,315.01z"/>
</svg>
