<svg width="46" height="47" viewBox="0 0 46 47" fill="none" xmlns="http://www.w3.org/2000/svg">
<path fill-rule="evenodd" clip-rule="evenodd" d="M0.303131 23.5441C0.303131 36.1362 10.511 46.3441 23.1031 46.3441C35.6952 46.3441 45.9031 36.1362 45.9031 23.5441C45.9031 10.952 35.6952 0.744141 23.1031 0.744141C10.511 0.744141 0.303131 10.952 0.303131 23.5441ZM31.9014 14.1699C33.2132 15.0454 34.109 16.283 34.5613 17.8497C35.2263 20.1536 35.4186 22.7012 35.1472 25.6371C34.9934 27.3069 34.584 28.7792 33.8918 30.1397C33.2291 31.4431 32.1253 32.4151 30.6143 33.0273C28.9632 33.6944 27.2102 33.837 25.697 33.916C24.4484 33.9818 23.1908 34.0279 21.9604 34.052C21.8931 34.053 21.854 34.0535 21.8198 34.0667C21.7724 34.085 21.7344 34.1278 21.6437 34.2298L21.5193 34.3636C20.6077 35.3291 18.0518 37.7252 17.941 37.8262L17.7736 37.9841H16.7422L16.7377 37.4268C16.7377 37.4268 16.7218 34.8156 16.7377 33.4837C16.7399 33.3301 16.7399 33.3148 16.5499 33.2292C16.3441 33.1348 16.093 33.0493 15.8352 32.9615C15.3805 32.8057 14.9101 32.6433 14.5436 32.4195C13.1028 31.5396 12.1325 30.2011 11.576 28.3272C11.006 26.4051 10.8251 24.3315 11.0241 21.988C11.1101 20.9743 11.2594 19.9123 11.481 18.7361C11.9357 16.3159 13.424 14.5276 15.903 13.4217C17.1674 12.8577 18.554 12.5088 20.3951 12.2894C22.3607 12.0568 24.4213 12.1029 26.6968 12.432C28.3411 12.6712 30.2457 13.0618 31.9014 14.1699ZM27.5065 30.5522C28.1738 30.2823 28.7392 29.8654 29.1192 29.2664C29.6372 28.4435 29.644 27.873 28.7913 27.2652C28.57 27.1079 28.3501 26.9482 28.1301 26.7884C27.7947 26.5447 27.459 26.3008 27.1175 26.0649C26.2557 25.4725 25.3215 25.3694 24.6791 26.4094C24.652 26.4546 24.6115 26.4933 24.572 26.5311C24.5655 26.5374 24.5589 26.5436 24.5525 26.5499C24.2245 26.8878 23.8196 26.9734 23.3899 26.8022C21.7591 26.1505 20.4969 25.0995 19.7369 23.535C19.2913 22.6156 19.4135 22.1526 20.2504 21.5426C20.3341 21.4812 20.4132 21.4197 20.4901 21.3517C20.8566 21.0269 20.9538 20.6408 20.7389 20.2041C20.2458 19.2079 19.5922 18.3192 18.7643 17.5556C18.4657 17.277 18.1084 17.1387 17.7057 17.2265C16.6517 17.4503 15.609 18.1942 15.5796 19.5129C15.5899 19.5729 15.5964 19.6343 15.6028 19.6955C15.6162 19.8225 15.6295 19.949 15.6768 20.0615C15.7651 20.271 15.8503 20.4822 15.9356 20.6936C16.1827 21.3056 16.4301 21.9186 16.7512 22.4927C18.8412 26.2449 22.0056 28.8538 26.0385 30.5105C26.5203 30.708 27.0179 30.7497 27.5065 30.5522ZM23.2021 18.9314C23.3899 18.9007 23.5799 18.8853 23.7699 18.8853C25.6382 18.8853 27.1604 20.3621 27.1604 22.1745C27.1604 22.361 27.1446 22.5454 27.1129 22.7253C27.0609 23.0303 27.2735 23.3199 27.5879 23.3704C27.6219 23.377 27.6535 23.3792 27.6852 23.3792C27.9634 23.3792 28.2077 23.1839 28.2552 22.9096C28.2982 22.6704 28.3185 22.4225 28.3185 22.1745C28.3185 19.7411 26.2783 17.7619 23.7699 17.7619C23.5165 17.7619 23.2609 17.7816 23.0121 17.8233C22.6955 17.8738 22.4829 18.1634 22.5349 18.4684C22.5892 18.7756 22.8855 18.9819 23.2021 18.9314ZM26.0024 22.8175C26.3213 22.8175 26.5814 22.5651 26.5814 22.2557C26.5814 20.7066 25.2831 19.4471 23.6862 19.4471C23.3673 19.4471 23.1071 19.6994 23.1071 20.0088C23.1071 20.3182 23.3673 20.5705 23.6862 20.5705C24.643 20.5705 25.4233 21.3276 25.4233 22.2557C25.4233 22.5651 25.6834 22.8175 26.0024 22.8175ZM29.3228 23.9409C29.5874 23.9409 29.8272 23.7654 29.8883 23.5043C29.9901 23.0632 30.0421 22.609 30.0421 22.1526C30.0421 18.802 27.2328 16.0767 23.7789 16.0767C23.3084 16.0767 22.8402 16.1272 22.3879 16.2281C22.0757 16.2961 21.8789 16.5967 21.9513 16.8995C22.0214 17.2024 22.3313 17.3933 22.6434 17.323C23.0121 17.2419 23.3944 17.2002 23.7789 17.2002C26.5927 17.2002 28.884 19.4229 28.884 22.1526C28.884 22.5256 28.841 22.8964 28.7573 23.2541C28.6872 23.5569 28.8817 23.8575 29.1939 23.9277C29.2369 23.9365 29.2798 23.9409 29.3228 23.9409Z" fill="#F07E23"/>
</svg>
