<svg width="46" height="47" viewBox="0 0 46 47" fill="none" xmlns="http://www.w3.org/2000/svg">
<path fill-rule="evenodd" clip-rule="evenodd" d="M0.196869 23.5441C0.196869 36.1362 10.4048 46.3441 22.9969 46.3441C35.589 46.3441 45.7969 36.1362 45.7969 23.5441C45.7969 10.952 35.589 0.744141 22.9969 0.744141C10.4048 0.744141 0.196869 10.952 0.196869 23.5441ZM9.31835 15.9441C9.53573 26.3784 14.7528 32.6489 23.8994 32.6489H24.418V26.6794C27.779 27.0138 30.3204 29.4719 31.3404 32.6489H36.0895C34.7852 27.9 31.3572 25.2747 29.2168 24.2715C31.3572 23.0341 34.367 20.0242 35.0861 15.9441H30.7718C29.8354 19.255 27.06 22.2649 24.418 22.5491V15.9441H20.1037V27.5154C17.4282 26.8466 14.0505 23.6026 13.9001 15.9441H9.31835Z" fill="#F07E23"/>
</svg>
