<svg width="46" height="47" viewBox="0 0 46 47" fill="none" xmlns="http://www.w3.org/2000/svg">
<path fill-rule="evenodd" clip-rule="evenodd" d="M0.0984344 23.5441C0.0984344 36.1362 10.3063 46.3441 22.8984 46.3441C35.4905 46.3441 45.6984 36.1362 45.6984 23.5441C45.6984 10.952 35.4905 0.744141 22.8984 0.744141C10.3063 0.744141 0.0984344 10.952 0.0984344 23.5441ZM10.7415 23.5434C10.7415 16.8385 16.1965 11.3834 22.9014 11.3834C29.6063 11.3834 35.0614 16.8385 35.0614 23.5434C35.0614 30.2483 29.6063 35.7034 22.9014 35.7034C20.8977 35.7034 18.9167 35.2054 17.1577 34.2611L11.3971 35.6881C11.3553 35.6981 11.3125 35.7034 11.2702 35.7034C11.129 35.7034 10.9916 35.6468 10.8906 35.5427C10.7595 35.4079 10.7103 35.2133 10.761 35.032L12.308 29.5124C11.2823 27.6958 10.7415 25.637 10.7415 23.5434ZM26.9111 29.2998C27.5106 29.2115 28.7583 28.5544 29.0184 27.8343C29.2785 27.1147 29.2785 26.4972 29.2003 26.3693C29.1374 26.266 28.9906 26.1959 28.7734 26.0922C28.7204 26.0669 28.6631 26.0396 28.6018 26.0092C28.2899 25.8549 26.7551 25.1094 26.4685 25.0068C26.182 24.9037 25.9737 24.853 25.7659 25.1612C25.5581 25.4694 24.9596 26.1636 24.7778 26.3698C24.5959 26.5755 24.4135 26.6014 24.1016 26.447C24.0505 26.4217 23.9808 26.3918 23.8947 26.3549C23.4551 26.1665 22.5883 25.795 21.5913 24.9169C20.663 24.0996 20.0364 23.0903 19.8546 22.7815C19.6727 22.4728 19.835 22.3062 19.9915 22.1524C20.0848 22.0605 20.1915 21.9322 20.2985 21.8036C20.3528 21.7382 20.4072 21.6728 20.4599 21.6121C20.5934 21.4584 20.6507 21.3423 20.7289 21.184C20.7424 21.1566 20.7566 21.128 20.7719 21.0977C20.8755 20.892 20.8237 20.7117 20.7454 20.5573C20.6942 20.4546 20.4022 19.7525 20.1355 19.1112C20.0002 18.7858 19.8713 18.476 19.7837 18.2681C19.5603 17.7371 19.3335 17.7385 19.1514 17.7397C19.1271 17.7398 19.1037 17.74 19.0811 17.7388C18.8987 17.7304 18.6909 17.7277 18.4826 17.7277C18.2743 17.7277 17.9365 17.8049 17.6499 18.1137C17.6317 18.1333 17.6114 18.1547 17.5893 18.178C17.2641 18.5205 16.5571 19.2649 16.5571 20.6853C16.5571 22.1929 17.6623 23.6499 17.8288 23.8694L17.8318 23.8733C17.8422 23.887 17.861 23.9135 17.8879 23.9516C18.2652 24.4854 20.2416 27.2813 23.1647 28.5279C23.9097 28.8457 24.4912 29.035 24.9443 29.1777C25.6919 29.4124 26.3728 29.3786 26.9111 29.2998Z" fill="#F07E23"/>
</svg>
